<svg width="18" height="18" viewBox="0 0 18 18" fill="none" xmlns="http://www.w3.org/2000/svg">
<g clip-path="url(#clip0_250_242)">
<path d="M6.25 13.25H13.9277L15.25 14.2887V6.5H16C16.1989 6.5 16.3897 6.57902 16.5303 6.71967C16.671 6.86032 16.75 7.05109 16.75 7.25V17.375L13.4088 14.75H7C6.80109 14.75 6.61032 14.671 6.46967 14.5303C6.32902 14.3897 6.25 14.1989 6.25 14V13.25ZM4.34125 11.75L1 14.375V2.75C1 2.55109 1.07902 2.36032 1.21967 2.21967C1.36032 2.07902 1.55109 2 1.75 2H13C13.1989 2 13.3897 2.07902 13.5303 2.21967C13.671 2.36032 13.75 2.55109 13.75 2.75V11.75H4.34125Z" fill="white"/>
</g>
<defs>
<clipPath id="clip0_250_242">
<rect width="18" height="18" fill="white"/>
</clipPath>
</defs>
</svg>
