<?xml version="1.0" encoding="UTF-8"?> <svg xmlns="http://www.w3.org/2000/svg" width="141" height="48" viewBox="0 0 141 48" fill="none"><path fill-rule="evenodd" clip-rule="evenodd" d="M83.5931 29.332C84.0428 29.332 84.4133 29.6946 84.4302 30.1428V30.177V33.8311C84.4302 34.2965 84.0541 34.6733 83.5903 34.6733C83.1265 34.6733 82.7759 34.3164 82.7589 33.8654V33.8311V30.177C82.7589 29.7146 83.1294 29.332 83.5903 29.332H83.5931ZM97.2268 30.2199C98.2166 30.2199 99.1611 30.5824 99.7918 31.1962C100.456 31.8642 100.705 32.6892 100.714 34.3536V41.0879H97.8574V34.5762C97.8574 33.9853 97.7896 33.6456 97.6114 33.3515C97.3428 32.9205 96.8026 32.6493 96.2398 32.6493C95.1369 32.6493 94.396 33.4886 94.396 34.7133V41.0908H91.5398V30.5853H94.396V31.8785C95.1596 30.6766 95.9259 30.2227 97.2296 30.2227L97.2268 30.2199ZM81.5146 30.7708C81.7352 30.6966 81.9614 30.8479 81.9784 31.0763V31.102V33.5086C81.2431 34.0224 80.8076 34.9217 80.8076 36.0636C80.8076 37.8792 81.9331 39.1039 83.596 39.1039C85.2588 39.1039 86.3844 37.8564 86.3844 36.1092C86.3844 34.9274 85.9771 34.0253 85.2588 33.5086L85.2136 33.4771V31.1163C85.2136 30.8707 85.454 30.7052 85.683 30.788C87.8464 31.5702 89.2632 33.5885 89.2632 36.1549C89.2632 39.2409 86.7661 41.6703 83.5733 41.6703C80.3806 41.6703 77.9287 39.3323 77.9287 36.0664C77.9287 33.4829 79.3201 31.5273 81.5146 30.7765V30.7708Z" fill="#47B731"></path><path fill-rule="evenodd" clip-rule="evenodd" d="M49.674 10.143C49.9964 10.4113 50.2594 10.7168 50.4686 11.0565C50.6779 11.3962 50.7967 11.7074 50.825 11.99C50.8532 12.3297 50.644 12.5267 50.1972 12.5838H49.9879C49.5693 12.5838 49.2187 12.5553 48.9415 12.4982C48.6616 12.4411 48.4466 12.3497 48.2911 12.2212C48.1384 12.0928 48.0253 11.9015 47.9546 11.6474C47.8839 11.3934 47.8499 11.0394 47.8499 10.5883C47.8499 10.2486 47.9489 10.0288 48.144 9.93172C48.3392 9.83181 48.5909 9.78328 48.8991 9.78328C49.0942 9.75473 49.3516 9.87463 49.674 10.143ZM63.0842 18.4189C63.0248 18.4189 62.9626 18.4189 62.8976 18.4246C62.3857 18.456 61.9898 18.6359 61.7212 18.9585C61.4497 19.2896 61.3281 19.7578 61.3875 20.246C61.5034 21.1852 62.4281 21.7276 63.811 21.6677H63.8761C63.9128 21.6619 63.9468 21.6619 63.9807 21.6591C64.4106 21.0567 64.6029 20.4144 64.5491 19.7607C64.4756 18.8586 63.9948 18.4189 63.0814 18.4189H63.0842ZM41.7132 22.4641C36.1563 24.0914 24.2986 25.5872 21.8213 25.8499L21.3433 25.9013C18.7444 26.1867 14.1603 26.8262 10.0145 28.1109L9.78822 28.1822C6.09206 29.3527 1.81616 31.371 1.86141 34.4313C1.89252 36.4725 3.0633 39.4671 8.47321 42.1592C12.5512 44.186 18.1817 45.4964 23.9196 45.7533C34.4878 46.2272 38.8994 44.0747 41.7839 42.556L42.3326 42.2676C42.3778 42.2419 42.4259 42.2191 42.4711 42.1934C48.5145 39.0275 48.9444 34.4513 48.933 33.1238C48.9048 30.1863 46.648 25.9184 41.7161 22.467L41.7132 22.4641ZM68.5111 30.9342C67.1028 32.1618 65.4824 33.3779 63.9439 34.5141L62.5526 35.5447C60.6013 36.9949 58.7716 38.4137 58.2031 39.3358C57.3972 40.6404 56.7241 42.6616 57.482 44.0604C58.1975 45.3822 60.1799 46.093 63.2115 46.1159C66.1554 46.1444 68.2227 45.4964 69.3623 44.2089C70.8018 42.5788 70.6632 40.0952 70.4059 37.8799L70.3974 37.7999C70.1202 35.4447 69.3341 32.9925 68.5139 30.9342H68.5111ZM36.9594 2.13251C40.4039 4.0452 41.8037 7.23683 41.8603 7.37386C42.0639 7.8506 41.849 8.40728 41.3767 8.61282C40.9186 8.81551 40.3841 8.61282 40.1692 8.16177L40.1267 8.07327C39.9373 7.67361 38.6986 5.25277 36.0601 3.78827L35.8763 3.6855C33.0398 2.13822 31.3232 1.887 27.4376 1.887C24.8783 1.887 22.319 2.79196 21.069 4.13655C20.5204 4.72749 20.263 5.36981 20.3026 6.04354C20.4949 9.19234 29.2164 13.7828 34.9119 16.6433L37.7286 18.0507C38.9984 18.6873 40.0871 19.2497 40.8705 19.7064C41.241 19.9234 41.6143 20.1546 41.9932 20.403C42.3071 20.2945 42.5814 20.1889 42.8105 20.0833C44.5893 19.2582 45.8534 18.476 46.7187 17.9308L47.126 17.6738C47.9828 17.1343 48.4608 16.8717 49.0207 16.9773C49.5354 17.0743 49.8182 17.4712 50.3018 18.3019L50.7288 19.0441C51.6055 20.56 52.9601 22.7353 54.6201 23.2178C56.7185 23.8259 59.685 23.5946 61.5543 23.1464C60.4344 22.644 59.6907 21.7048 59.5408 20.4801C59.4163 19.4781 59.6907 18.4846 60.2902 17.7538C60.8897 17.023 61.7523 16.6062 62.7873 16.5434C64.8234 16.4206 66.2431 17.6225 66.4043 19.6037C66.4778 20.4972 66.2827 21.3765 65.8415 22.1929C66.6956 22.7839 67.2216 23.7688 67.6401 24.6452L67.9257 25.2532C68.0219 25.4588 68.1152 25.6529 68.2114 25.8356L68.3103 26.0269C68.5649 26.5122 68.8505 27.0831 69.1474 27.7198C69.2577 27.597 69.3652 27.4714 69.467 27.3486C71.1157 25.3646 72.3317 23.2349 73.2536 21.5478L73.8362 20.4772C74.6111 19.0527 74.9928 18.4361 75.6093 18.2591C76.2994 18.0592 77.0233 18.4989 78.4826 19.5266L79.2235 20.0519C79.8287 20.4801 80.5781 20.9911 81.0051 21.1852C81.056 21.0824 81.1154 20.954 81.1691 20.8312L81.3388 20.443C81.8479 19.2982 82.7981 17.5083 85.3036 17.5939C87.0004 17.6482 88.8923 18.3704 90.6231 19.087L91.7967 19.5751C93.007 20.0747 94.1807 20.5258 94.8876 20.5258C96.559 20.5258 98.1935 19.7407 98.5866 19.538L98.6771 19.4895C99.1268 19.2383 99.6924 19.4038 99.9412 19.8606C100.182 20.3059 100.032 20.8626 99.6075 21.1224L99.5227 21.1709C99.1635 21.3622 97.0991 22.4099 94.8905 22.4099C93.8781 22.4099 92.6507 21.9588 91.248 21.3822L90.5128 21.0767C88.7736 20.3516 86.8025 19.5266 85.2471 19.4781C83.949 19.4324 83.5079 20.1461 82.9875 21.3337L82.8631 21.6191C82.5548 22.3214 82.1759 23.0551 81.336 23.1379C80.5611 23.2121 79.6449 22.6411 78.1687 21.5991L77.4419 21.0853C76.9922 20.7684 76.4775 20.4116 76.1382 20.2203C75.9657 20.4858 75.7338 20.8997 75.4962 21.3337L74.8656 22.4927C73.938 24.1884 72.6343 26.4694 70.8923 28.5619C70.6151 28.8959 70.3041 29.2328 69.9732 29.5725C70.9375 31.8763 71.8736 34.6654 72.2214 37.4088L72.2638 37.7571C72.4901 39.7041 72.8238 43.1184 70.748 45.4678C69.2605 47.1521 66.7747 48.0029 63.3557 48.0029H63.1974C59.3994 47.9743 56.9277 46.9523 55.8503 44.9711C54.7049 42.8614 55.4996 40.1637 56.6223 38.3423C57.3717 37.1291 59.2269 35.6788 61.461 34.0231L63.1493 32.7727C64.7329 31.5994 66.3817 30.349 67.7363 29.1214L67.6458 28.9216C67.2272 28.0052 66.8426 27.2487 66.5683 26.7263C66.4439 26.4894 66.3251 26.241 66.2091 25.9955L66.0508 25.6558C65.5587 24.6081 65.1883 23.96 64.6792 23.6917C64.5802 23.7859 64.4756 23.8801 64.3653 23.9715C62.8439 25.2561 57.4933 26.0155 54.1082 25.0334C51.6451 24.3197 49.9879 21.5049 48.9783 19.7464L48.8086 19.4495C48.7209 19.2982 48.6333 19.144 48.5513 19.0099C48.4184 19.0898 48.2628 19.184 48.1045 19.2839L47.4229 19.7121C46.5689 20.246 45.3924 20.9511 43.8003 21.7019C47.4286 24.5453 50.7486 28.6618 50.7882 33.1096C50.8108 35.5932 49.9483 37.9027 48.2289 39.9781C46.6282 41.9079 44.6769 43.1612 43.3195 43.8692L43.1838 43.9405L42.5305 44.286C39.4678 45.896 34.7762 48.1285 23.8348 47.6374C17.7603 47.3662 12.0138 46.0216 7.6531 43.852C2.70132 41.3855 0.0571597 38.1368 0.000600217 34.457C-0.0503033 31.0084 3.13682 28.2679 9.47149 26.3066C13.9029 24.9335 18.7868 24.2769 21.4027 23.9971L21.7873 23.9572C25.6221 23.5461 34.352 22.3271 39.5215 21.091L39.3547 20.9996C38.5346 20.5514 37.4713 20.0148 36.2694 19.4152L34.977 18.7701C26.3488 14.4537 18.6992 10.2429 18.4503 6.15487C18.3768 4.95872 18.8151 3.81396 19.7172 2.84049C21.3066 1.1362 24.2872 0.0256929 27.3415 0H27.4433C31.3035 0 33.5008 0.211252 36.9594 2.13251Z" fill="white"></path><path fill-rule="evenodd" clip-rule="evenodd" d="M135.167 32.4327C133.561 32.4327 132.296 33.9001 132.296 35.7357C132.296 37.5713 133.45 38.9701 135.099 38.9701C136.748 38.9701 137.947 37.6398 137.947 35.7357C137.947 33.8315 136.748 32.4327 135.167 32.4327ZM120.948 32.4327C119.319 32.4327 118.168 33.7859 118.168 35.7357C118.168 37.6855 119.367 38.993 120.925 38.993C122.483 38.993 123.818 37.4799 123.818 35.6443C123.818 33.8087 122.642 32.4327 120.948 32.4327ZM112.379 27.454V30.2973H113.691V32.7524H112.379V37.8453C112.379 38.3506 112.56 38.4877 113.193 38.5333H113.691V40.9656H111.409C110.006 40.9199 109.489 40.3461 109.509 38.9473V32.7553H108.31V30.3002H109.509V27.4569H112.379V27.454ZM132.342 25.6641V31.6277C133.337 30.4572 134.31 29.9748 135.732 29.9748C138.806 29.9748 141.001 32.3613 141.001 35.71C141.001 39.0586 138.92 41.331 135.868 41.331C134.285 41.331 133.269 40.8257 132.342 39.5867V40.9627H129.471V25.6641H132.342ZM120.36 29.9776C121.785 29.9776 122.755 30.4829 123.773 31.699V30.3459H126.643V40.9656H123.773V39.4982C122.8 40.7601 121.672 41.3339 120.133 41.3339C117.195 41.3339 115.091 39.0158 115.091 35.7842C115.091 32.5526 117.305 29.9805 120.36 29.9805V29.9776Z" fill="white"></path></svg> 