<?xml version="1.0" encoding="UTF-8"?> <svg xmlns="http://www.w3.org/2000/svg" width="80" height="80" viewBox="0 0 80 80" fill="none"><rect width="80" height="80" rx="16" fill="#28252C"></rect><g filter="url(#filter0_b_1231_1312)"><circle cx="34.5" cy="34.5" r="11.5" fill="url(#paint0_linear_1231_1312)" fill-opacity="0.8"></circle></g><path d="M49.0172 45.4151H47.1201L46.4477 44.7667C48.8824 41.9428 50.2205 38.3375 50.2178 34.6089C50.2178 31.5218 49.3024 28.5039 47.5873 25.9371C45.8721 23.3702 43.4344 21.3696 40.5822 20.1882C37.73 19.0068 34.5916 18.6977 31.5638 19.2999C28.5359 19.9022 25.7547 21.3888 23.5718 23.5718C21.3888 25.7547 19.9022 28.5359 19.2999 31.5638C18.6977 34.5916 19.0068 37.73 20.1882 40.5822C21.3696 43.4344 23.3702 45.8721 25.9371 47.5873C28.5039 49.3024 31.5218 50.2178 34.6089 50.2178C38.4751 50.2178 42.0292 48.801 44.7667 46.4477L45.4151 47.1201V49.0172L57.422 61L61 57.422L49.0172 45.4151ZM34.6089 45.4151C28.6295 45.4151 23.8028 40.5883 23.8028 34.6089C23.8028 28.6295 28.6295 23.8028 34.6089 23.8028C40.5883 23.8028 45.4151 28.6295 45.4151 34.6089C45.4151 40.5883 40.5883 45.4151 34.6089 45.4151Z" fill="url(#paint1_linear_1231_1312)"></path><defs><filter id="filter0_b_1231_1312" x="17" y="17" width="35" height="35" filterUnits="userSpaceOnUse" color-interpolation-filters="sRGB"><feFlood flood-opacity="0" result="BackgroundImageFix"></feFlood><feGaussianBlur in="BackgroundImageFix" stdDeviation="3"></feGaussianBlur><feComposite in2="SourceAlpha" operator="in" result="effect1_backgroundBlur_1231_1312"></feComposite><feBlend mode="normal" in="SourceGraphic" in2="effect1_backgroundBlur_1231_1312" result="shape"></feBlend></filter><linearGradient id="paint0_linear_1231_1312" x1="46.9977" y1="20.6669" x2="21.7483" y2="47.1169" gradientUnits="userSpaceOnUse"><stop stop-color="#02AF5F"></stop><stop offset="1" stop-color="#014928" stop-opacity="0"></stop></linearGradient><linearGradient id="paint1_linear_1231_1312" x1="58.0698" y1="9.84615" x2="19.2028" y2="62.7643" gradientUnits="userSpaceOnUse"><stop stop-color="#02AF5F"></stop><stop offset="1" stop-color="#014928" stop-opacity="0.52"></stop></linearGradient></defs></svg> 