<?xml version="1.0" encoding="UTF-8"?> <svg xmlns="http://www.w3.org/2000/svg" width="80" height="80" viewBox="0 0 80 80" fill="none"><rect width="80" height="80" rx="16" fill="#28252C"></rect><g opacity="0.9" filter="url(#filter0_b_1229_612)"><path d="M23 39C23 42.9305 23.3229 49.6493 23.3568 50.3884C23.4706 51.9636 24.0622 53.4681 25.0543 54.7052C25.6836 55.4694 26.4872 56.0749 27.399 56.472C28.3108 56.8691 29.3046 57.0465 30.2991 56.9896H49.7519C50.7457 57.0411 51.7381 56.8612 52.649 56.4645C53.56 56.0678 54.3642 55.4652 54.9971 54.7052C55.9987 53.4735 56.5915 51.9659 56.6946 50.3884C56.6946 49.7669 56.8982 42.477 57 39H23Z" fill="url(#paint0_linear_1229_612)" fill-opacity="0.6"></path></g><g filter="url(#filter1_b_1229_612)"><path fill-rule="evenodd" clip-rule="evenodd" d="M43.3677 44.7318C43.5893 44.9054 43.8638 44.9999 44.1465 45H44.4346C48.7125 44.4282 52.8081 42.9205 56.4237 40.5866C56.5989 40.4734 56.7429 40.3193 56.8435 40.1378C56.9441 39.9563 56.9978 39.7531 57 39.5462V33.7231C56.9955 32.0288 56.3133 30.4051 55.1026 29.2071C53.892 28.009 52.2512 27.334 50.5391 27.3295C48.5931 27.3295 47.0288 25.7102 45.6092 24.3792C45.5665 24.3391 45.523 24.2997 45.4787 24.261C44.571 23.4673 43.4071 23.0202 42.1961 23H37.8209C36.6098 23.0202 35.446 23.4673 34.5383 24.261C34.494 24.2997 34.4505 24.3391 34.4078 24.3792C32.9881 25.7102 31.4239 27.3295 29.4779 27.3295C27.7628 27.3295 26.1179 28.0026 24.9036 29.2012C23.6893 30.3997 23.0045 32.0259 23 33.7231V39.5462C22.9992 39.7537 23.0519 39.9581 23.1528 40.1401C23.2536 40.322 23.3994 40.4757 23.5767 40.5866C27.1801 42.917 31.2651 44.4193 35.5319 44.9832H35.7012C35.9779 44.9794 36.246 44.8877 36.4659 44.7215C36.6858 44.5552 36.8461 44.3234 36.9225 44.0603C37.0991 43.4027 37.4911 42.8218 38.0374 42.4087C38.5837 41.9956 39.2531 41.7738 39.9406 41.778C40.6215 41.7745 41.2844 41.9952 41.8247 42.4053C42.365 42.8154 42.7521 43.3917 42.9251 44.0435C42.9901 44.3157 43.1461 44.5582 43.3677 44.7318ZM36.2601 26.0139C36.6884 25.6869 37.2126 25.5067 37.7534 25.5004H42.1452C42.6853 25.5094 43.2083 25.6907 43.636 26.0172C44.272 26.5027 43.7243 27.3127 42.9241 27.3127H36.9763C36.1735 27.3127 35.622 26.501 36.2601 26.0139ZM39 45.9247V45.1183V45.0753C39 44.7901 39.1054 44.5166 39.293 44.3149C39.4805 44.1133 39.7348 44 40 44C40.2652 44 40.5198 44.1133 40.7074 44.3149C40.8949 44.5166 41 44.7901 41 45.0753V45.9247C41 46.2099 40.8949 46.4834 40.7074 46.6851C40.5198 46.8867 40.2652 47 40 47C39.7348 47 39.4805 46.8867 39.293 46.6851C39.1054 46.4834 39 46.2099 39 45.9247Z" fill="url(#paint1_linear_1229_612)"></path></g><defs><filter id="filter0_b_1229_612" x="3" y="19" width="74" height="58" filterUnits="userSpaceOnUse" color-interpolation-filters="sRGB"><feFlood flood-opacity="0" result="BackgroundImageFix"></feFlood><feGaussianBlur in="BackgroundImageFix" stdDeviation="10"></feGaussianBlur><feComposite in2="SourceAlpha" operator="in" result="effect1_backgroundBlur_1229_612"></feComposite><feBlend mode="normal" in="SourceGraphic" in2="effect1_backgroundBlur_1229_612" result="shape"></feBlend></filter><filter id="filter1_b_1229_612" x="3" y="3" width="74" height="64" filterUnits="userSpaceOnUse" color-interpolation-filters="sRGB"><feFlood flood-opacity="0" result="BackgroundImageFix"></feFlood><feGaussianBlur in="BackgroundImageFix" stdDeviation="10"></feGaussianBlur><feComposite in2="SourceAlpha" operator="in" result="effect1_backgroundBlur_1229_612"></feComposite><feBlend mode="normal" in="SourceGraphic" in2="effect1_backgroundBlur_1229_612" result="shape"></feBlend></filter><linearGradient id="paint0_linear_1229_612" x1="58.4749" y1="37.1741" x2="42.5481" y2="68.6884" gradientUnits="userSpaceOnUse"><stop stop-color="#02AF5F"></stop><stop offset="1" stop-color="#014928" stop-opacity="0"></stop></linearGradient><linearGradient id="paint1_linear_1229_612" x1="58.4749" y1="20.5655" x2="34.0289" y2="56.844" gradientUnits="userSpaceOnUse"><stop stop-color="#02AF5F"></stop><stop offset="1" stop-color="#014928"></stop></linearGradient></defs></svg> 