<?xml version="1.0" encoding="UTF-8"?> <svg xmlns="http://www.w3.org/2000/svg" width="80" height="80" viewBox="0 0 80 80" fill="none"><rect width="80" height="80" rx="16" fill="#28252C"></rect><g opacity="0.5" filter="url(#filter0_b_1229_637)"><path fill-rule="evenodd" clip-rule="evenodd" d="M32.9918 54.0174C32.9067 54.3349 33.146 54.6468 33.4748 54.6468H37.8936C38.1199 54.6468 38.3179 54.4949 38.3765 54.2764L46.063 25.6296C46.1482 25.312 45.9089 25 45.5801 25H41.1536C40.9273 25 40.7292 25.152 40.6706 25.3705L32.9918 54.0174ZM29.6048 29.8614C29.6048 29.4341 29.1034 29.2037 28.7791 29.482L17.1743 39.444C16.9419 39.6435 16.9419 40.0033 17.1743 40.2028L28.7791 50.1648C29.1034 50.4431 29.6048 50.2127 29.6048 49.7854V45.1179C29.6048 44.9722 29.5412 44.8337 29.4307 44.7388L24.153 40.2026C23.9209 40.0031 23.9209 39.6437 24.153 39.4442L29.4307 34.908C29.5412 34.813 29.6048 34.6746 29.6048 34.5289V29.8614ZM49.4505 49.7854C49.4505 50.2127 49.9519 50.4431 50.2761 50.1648L61.8809 40.2028C62.1134 40.0033 62.1134 39.6435 61.8809 39.444L50.2761 29.482C49.9519 29.2037 49.4505 29.434 49.4505 29.8614V34.5288C49.4505 34.6746 49.514 34.813 49.6245 34.908L54.9022 39.4442C55.1343 39.6437 55.1343 40.0031 54.9022 40.2026L49.6245 44.7388C49.514 44.8337 49.4505 44.9722 49.4505 45.1179V49.7854Z" fill="url(#paint0_linear_1229_637)"></path></g><defs><filter id="filter0_b_1229_637" x="-3" y="5" width="85.0547" height="69.6468" filterUnits="userSpaceOnUse" color-interpolation-filters="sRGB"><feFlood flood-opacity="0" result="BackgroundImageFix"></feFlood><feGaussianBlur in="BackgroundImageFix" stdDeviation="10"></feGaussianBlur><feComposite in2="SourceAlpha" operator="in" result="effect1_backgroundBlur_1229_637"></feComposite><feBlend mode="normal" in="SourceGraphic" in2="effect1_backgroundBlur_1229_637" result="shape"></feBlend></filter><linearGradient id="paint0_linear_1229_637" x1="64.0097" y1="21.9927" x2="34.659" y2="68.719" gradientUnits="userSpaceOnUse"><stop stop-color="#00FA86"></stop><stop offset="1" stop-color="#014928"></stop></linearGradient></defs></svg> 