<?xml version="1.0" encoding="UTF-8"?> <svg xmlns="http://www.w3.org/2000/svg" width="80" height="80" viewBox="0 0 80 80" fill="none"><rect width="80" height="80" rx="16" fill="#28252C"></rect><g filter="url(#filter0_b_1230_1115)"><rect x="16" y="59" width="6" height="6" fill="url(#paint0_linear_1230_1115)"></rect><rect x="17.5" y="60.5" width="3" height="3" stroke="#02AF5F" stroke-width="3"></rect></g><g filter="url(#filter1_b_1230_1115)"><rect x="59" y="16" width="6" height="6" fill="url(#paint1_linear_1230_1115)"></rect><rect x="60.5" y="17.5" width="3" height="3" stroke="#02AF5F" stroke-width="3"></rect></g><g filter="url(#filter2_b_1230_1115)"><rect x="59" y="59" width="6" height="6" fill="url(#paint2_linear_1230_1115)"></rect><rect x="60.5" y="60.5" width="3" height="3" stroke="#02AF5F" stroke-width="3"></rect></g><g filter="url(#filter3_b_1230_1115)"><rect x="16" y="16" width="6" height="6" fill="url(#paint3_linear_1230_1115)"></rect><rect x="17.5" y="17.5" width="3" height="3" stroke="#02AF5F" stroke-width="3"></rect></g><path d="M30.4789 50.2753L31.3169 44.7854H47.8803L48.7183 50.2753H30.4789ZM39.5 35.0202L34.3239 46.7287L34.4718 48.2834L29.9366 58H22L39.5 22L57 58H49.0141L44.5775 48.5749L44.6761 46.8259L39.5 35.0202Z" fill="url(#paint4_linear_1230_1115)"></path><path opacity="0.2" fill-rule="evenodd" clip-rule="evenodd" d="M20 24H18V27H20V24ZM18 29H20V32H18V29ZM20 34H18V37H20V34ZM18 39H20V42H18V39ZM20 44H18V47H20V44ZM18 49H20V52H18V49ZM18 54H20V57H18V54Z" fill="#02AF5F"></path><path opacity="0.2" fill-rule="evenodd" clip-rule="evenodd" d="M63 24H61V27H63V24ZM61 29H63V32H61V29ZM63 34H61V37H63V34ZM61 39H63V42H61V39ZM63 44H61V47H63V44ZM61 49H63V52H61V49ZM61 54H63V57H61V54Z" fill="#02AF5F"></path><path opacity="0.2" fill-rule="evenodd" clip-rule="evenodd" d="M24 61L24 63L27 63L27 61L24 61ZM29 63L29 61L32 61L32 63L29 63ZM34 61L34 63L37 63L37 61L34 61ZM39 63L39 61L42 61L42 63L39 63ZM44 61L44 63L47 63L47 61L44 61ZM49 63L49 61L52 61L52 63L49 63ZM54 63L54 61L57 61L57 63L54 63Z" fill="#02AF5F"></path><path opacity="0.2" fill-rule="evenodd" clip-rule="evenodd" d="M24 18L24 20L27 20L27 18L24 18ZM29 20L29 18L32 18L32 20L29 20ZM34 18L34 20L37 20L37 18L34 18ZM39 20L39 18L42 18L42 20L39 20ZM44 18L44 20L47 20L47 18L44 18ZM49 20L49 18L52 18L52 20L49 20ZM54 20L54 18L57 18L57 20L54 20Z" fill="#02AF5F"></path><defs><filter id="filter0_b_1230_1115" x="-4" y="39" width="46" height="46" filterUnits="userSpaceOnUse" color-interpolation-filters="sRGB"><feFlood flood-opacity="0" result="BackgroundImageFix"></feFlood><feGaussianBlur in="BackgroundImageFix" stdDeviation="10"></feGaussianBlur><feComposite in2="SourceAlpha" operator="in" result="effect1_backgroundBlur_1230_1115"></feComposite><feBlend mode="normal" in="SourceGraphic" in2="effect1_backgroundBlur_1230_1115" result="shape"></feBlend></filter><filter id="filter1_b_1230_1115" x="39" y="-4" width="46" height="46" filterUnits="userSpaceOnUse" color-interpolation-filters="sRGB"><feFlood flood-opacity="0" result="BackgroundImageFix"></feFlood><feGaussianBlur in="BackgroundImageFix" stdDeviation="10"></feGaussianBlur><feComposite in2="SourceAlpha" operator="in" result="effect1_backgroundBlur_1230_1115"></feComposite><feBlend mode="normal" in="SourceGraphic" in2="effect1_backgroundBlur_1230_1115" result="shape"></feBlend></filter><filter id="filter2_b_1230_1115" x="39" y="39" width="46" height="46" filterUnits="userSpaceOnUse" color-interpolation-filters="sRGB"><feFlood flood-opacity="0" result="BackgroundImageFix"></feFlood><feGaussianBlur in="BackgroundImageFix" stdDeviation="10"></feGaussianBlur><feComposite in2="SourceAlpha" operator="in" result="effect1_backgroundBlur_1230_1115"></feComposite><feBlend mode="normal" in="SourceGraphic" in2="effect1_backgroundBlur_1230_1115" result="shape"></feBlend></filter><filter id="filter3_b_1230_1115" x="-4" y="-4" width="46" height="46" filterUnits="userSpaceOnUse" color-interpolation-filters="sRGB"><feFlood flood-opacity="0" result="BackgroundImageFix"></feFlood><feGaussianBlur in="BackgroundImageFix" stdDeviation="10"></feGaussianBlur><feComposite in2="SourceAlpha" operator="in" result="effect1_backgroundBlur_1230_1115"></feComposite><feBlend mode="normal" in="SourceGraphic" in2="effect1_backgroundBlur_1230_1115" result="shape"></feBlend></filter><linearGradient id="paint0_linear_1230_1115" x1="22.2603" y1="58.3914" x2="15.6735" y2="65.2914" gradientUnits="userSpaceOnUse"><stop stop-color="#02AF5F"></stop><stop offset="1" stop-color="#014928" stop-opacity="0"></stop></linearGradient><linearGradient id="paint1_linear_1230_1115" x1="65.2603" y1="15.3914" x2="58.6735" y2="22.2914" gradientUnits="userSpaceOnUse"><stop stop-color="#02AF5F"></stop><stop offset="1" stop-color="#014928" stop-opacity="0"></stop></linearGradient><linearGradient id="paint2_linear_1230_1115" x1="65.2603" y1="58.3914" x2="58.6735" y2="65.2914" gradientUnits="userSpaceOnUse"><stop stop-color="#02AF5F"></stop><stop offset="1" stop-color="#014928" stop-opacity="0"></stop></linearGradient><linearGradient id="paint3_linear_1230_1115" x1="22.2603" y1="15.3914" x2="15.6735" y2="22.2914" gradientUnits="userSpaceOnUse"><stop stop-color="#02AF5F"></stop><stop offset="1" stop-color="#014928" stop-opacity="0"></stop></linearGradient><linearGradient id="paint4_linear_1230_1115" x1="79.0349" y1="-5.86711" x2="28.1971" y2="48.9207" gradientUnits="userSpaceOnUse"><stop stop-color="#02AF5F"></stop><stop offset="1" stop-color="#014928" stop-opacity="0.52"></stop></linearGradient></defs></svg> 