<?xml version="1.0" encoding="UTF-8"?> <svg xmlns="http://www.w3.org/2000/svg" width="80" height="80" viewBox="0 0 80 80" fill="none"><rect width="80" height="80" rx="16" fill="#28252C"></rect><g clip-path="url(#clip0_1230_1133)"><path d="M61.4541 26.405C61.1574 26.1428 60.7709 25.9983 60.3705 25.9999H19.6295C19.2291 25.9983 18.8426 26.1428 18.5459 26.405C18.3747 26.5537 18.2377 26.736 18.1436 26.9398C18.0495 27.1436 18.0006 27.3645 18 27.588V51.4102C18.0006 51.6337 18.0495 51.8546 18.1436 52.0584C18.2377 52.2623 18.3747 52.4445 18.5459 52.5933C18.8426 52.8554 19.2291 53 19.6295 52.9984H60.3705C60.7753 53.0023 61.1663 52.8544 61.4623 52.5852C61.6315 52.4371 61.7668 52.2559 61.8594 52.0535C61.9521 51.851 62 51.6319 62 51.4102V27.588C61.9994 27.3645 61.9505 27.1436 61.8564 26.9398C61.7624 26.736 61.6253 26.5537 61.4541 26.405Z" fill="url(#paint0_linear_1230_1133)"></path><path d="M36.1796 39.5L18.5459 52.5949C18.3747 52.4462 18.2377 52.2639 18.1436 52.0601C18.0495 51.8562 18.0006 51.6354 18 51.4118V27.5897C18.0006 27.3662 18.0495 27.1453 18.1436 26.9414C18.2377 26.7376 18.3747 26.5554 18.5459 26.4066L36.1796 39.5Z" fill="url(#paint1_linear_1230_1133)"></path><path d="M61.9988 27.5881V51.4103C61.9987 51.632 61.9508 51.8511 61.8582 52.0536C61.7656 52.256 61.6303 52.4372 61.4611 52.5853L43.8203 39.5L61.454 26.4051C61.625 26.5539 61.7619 26.7362 61.8557 26.9401C61.9496 27.1439 61.9983 27.3647 61.9988 27.5881Z" fill="url(#paint2_linear_1230_1133)"></path><path d="M61.4562 26.4051L43.8225 39.5L41.1172 41.509C40.7986 41.7521 40.4056 41.8842 40.0009 41.8842C39.5963 41.8842 39.2033 41.7521 38.8847 41.509L36.1806 39.5L18.5469 26.4051C18.8435 26.1429 19.23 25.9984 19.6305 26H60.3726C60.773 25.9984 61.1596 26.1429 61.4562 26.4051Z" fill="url(#paint3_linear_1230_1133)"></path></g><defs><linearGradient id="paint0_linear_1230_1133" x1="89.701" y1="5.10066" x2="57.3011" y2="63.6319" gradientUnits="userSpaceOnUse"><stop stop-color="#02AF5F"></stop><stop offset="1" stop-color="#014928" stop-opacity="0.52"></stop></linearGradient><linearGradient id="paint1_linear_1230_1133" x1="47.6249" y1="6.13463" x2="11.7768" y2="33.7198" gradientUnits="userSpaceOnUse"><stop stop-color="#02AF5F"></stop><stop offset="1" stop-color="#014928" stop-opacity="0.52"></stop></linearGradient><linearGradient id="paint2_linear_1230_1133" x1="73.4433" y1="6.13934" x2="37.604" y2="33.7245" gradientUnits="userSpaceOnUse"><stop stop-color="#02AF5F"></stop><stop offset="1" stop-color="#014928" stop-opacity="0.52"></stop></linearGradient><linearGradient id="paint3_linear_1230_1133" x1="88.4705" y1="13.7042" x2="74.9542" y2="54.1783" gradientUnits="userSpaceOnUse"><stop stop-color="#02AF5F"></stop><stop offset="1" stop-color="#00743E"></stop></linearGradient><clipPath id="clip0_1230_1133"><rect width="44" height="27" fill="white" transform="translate(18 26)"></rect></clipPath></defs></svg> 