<?xml version="1.0" encoding="UTF-8"?> <svg xmlns="http://www.w3.org/2000/svg" width="80" height="80" viewBox="0 0 80 80" fill="none"><rect width="80" height="80" rx="16" fill="#28252C"></rect><g opacity="0.9" filter="url(#filter0_b_1229_695)"><path d="M47.1692 59.9376C47.1259 59.9421 47.0831 59.9502 47.0412 59.9618L44.2683 60.7304C43.72 60.9031 43.1428 60.9646 42.5696 60.9111C41.9964 60.8576 41.4387 60.6903 40.9286 60.4189C40.4185 60.1474 39.966 59.7771 39.5971 59.3293C39.2283 58.8815 38.9504 58.3649 38.7794 57.8094L38.7509 57.7063C38.4309 56.7144 37.7467 55.8823 36.8394 55.3816C35.932 54.8808 34.8708 54.7496 33.8748 55.0153C33.2246 55.1721 32.6332 55.5133 32.1702 55.9987C31.6133 56.5944 30.9029 57.0219 30.1179 57.2338C29.3804 57.4421 28.6013 57.4559 27.8549 57.274C27.1084 57.092 26.4194 56.7205 25.8535 56.1946L23.7394 54.1152C23.2074 53.5873 22.8217 52.9282 22.621 52.204C22.4203 51.4799 22.4117 50.7162 22.596 49.9898C22.8076 49.1987 23.2217 48.4789 23.7968 47.9023C24.2663 47.4415 24.5988 46.8571 24.757 46.2146C25.0131 45.232 24.873 44.1848 24.3671 43.3019C24.1094 42.8448 23.7636 42.4441 23.3502 42.1237C22.9369 41.8032 22.4644 41.5696 21.9608 41.4367C21.4028 41.309 20.8755 41.0688 20.4106 40.7305C19.9458 40.3923 19.5529 39.963 19.2558 39.4685C18.9586 38.9741 18.7633 38.4245 18.6816 37.8531C18.6024 37.2994 18.6313 36.7363 18.7667 36.1954C18.7752 36.1613 18.7751 36.1255 18.7657 36.0916C18.7564 36.058 18.7561 36.0225 18.7649 35.9887L19.4846 33.2161C19.789 32.0658 20.5307 31.0854 21.5491 30.4872C22.5675 29.889 23.7806 29.7211 24.9257 30.0199C25.5753 30.1721 26.2512 30.1602 26.8933 29.9854C27.5669 29.7901 28.1809 29.4287 28.6803 28.9336C29.1796 28.4386 29.5485 27.8254 29.754 27.1491C29.9474 26.5139 29.9428 25.8329 29.7405 25.1982C29.4874 24.4349 29.4823 23.6113 29.7261 22.8478C29.9517 22.1156 30.3525 21.4517 30.8932 20.9145C31.4339 20.3773 32.0979 19.9833 32.8267 19.7672L35.7441 18.9586C36.4849 18.7561 37.2653 18.7446 38.0138 18.9251C38.7624 19.1057 39.4552 19.4725 40.0289 19.9921C40.6124 20.5346 41.0165 21.245 41.1858 22.0259C41.3391 22.6742 41.6856 23.2604 42.1785 23.7054C42.7055 24.1818 43.3412 24.5184 44.028 24.6849C44.7149 24.8514 45.431 24.8424 46.1115 24.6587C46.752 24.478 47.3376 24.1402 47.8162 23.6753C48.6412 22.8315 49.7647 22.3524 50.9425 22.3421C52.1202 22.3317 53.257 22.791 54.1059 23.6201L56.1679 25.6696C56.589 26.055 56.9298 26.5213 57.1699 27.041C57.4101 27.5607 57.5448 28.1231 57.5661 28.6951C57.5874 29.267 57.4948 29.8369 57.2938 30.3708C57.0929 30.9047 56.7876 31.3919 56.3961 31.8034C56.0328 32.1766 55.5847 32.6653 55.3953 33.1528C55.2058 33.6403 55.1156 34.1618 55.13 34.6864C55.1577 35.7047 55.5841 36.6729 56.3157 37.3786C56.7693 37.8552 57.3503 38.1882 57.9872 38.3368C58.7857 38.5378 59.5231 38.9366 60.1322 39.497C60.6537 40.032 61.0323 40.6915 61.2324 41.4133C61.4324 42.1351 61.4473 42.8953 61.2757 43.6224L60.4928 46.5047C60.3466 47.0748 60.0899 47.6095 59.7375 48.0779C59.3852 48.5462 58.9441 48.9391 58.4397 49.2338C57.9353 49.5284 57.3775 49.7191 56.7986 49.7948C56.2196 49.8705 55.6309 49.8296 55.0664 49.6746C54.4193 49.4992 53.7373 49.5112 53.0987 49.7092C52.1031 49.9899 51.255 50.6476 50.7307 51.5458C50.2064 52.4439 50.0463 53.5134 50.2834 54.532C50.4354 55.0908 50.477 55.6737 50.4059 56.2475C50.3349 56.8212 50.1525 57.3745 49.8691 57.8759C49.5858 58.3772 49.2072 58.8167 48.7547 59.1694C48.319 59.509 47.8231 59.7616 47.2934 59.914C47.2528 59.9257 47.2112 59.9333 47.1692 59.9376ZM38.367 33.8908C36.813 34.3038 35.488 35.3226 34.6823 36.7242C33.8766 38.1257 33.6559 39.7956 34.0686 41.368C34.2811 42.1386 34.6456 42.8588 35.1401 43.4851C35.6347 44.1115 36.249 44.6311 36.9461 45.0128C38.3705 45.7997 40.0413 45.9909 41.5972 45.545C42.74 45.2335 43.7633 44.5854 44.5368 43.6831C45.3103 42.7808 45.7992 41.6651 45.9412 40.4779C46.0832 39.2908 45.872 38.0858 45.3343 37.0163C44.7967 35.9468 43.9569 35.061 42.9218 34.4718C41.5201 33.6807 39.8694 33.4761 38.3263 33.9021L38.367 33.8908Z" fill="url(#paint0_linear_1229_695)"></path></g><ellipse cx="41.5" cy="40.0389" rx="10.5" ry="10" fill="#28252C"></ellipse><path d="M32.3048 37.9835L32.3046 37.9844C31.8617 39.6446 31.9025 41.3914 32.4221 43.0302C32.9417 44.6687 33.9183 46.132 35.2396 47.2604C36.5606 48.3886 38.1751 49.1389 39.9036 49.4323C41.4101 49.688 42.955 49.5885 44.4088 49.1458L55.1551 60.3338C55.6035 60.8417 56.153 61.2534 56.7685 61.5451C57.3915 61.8402 58.0696 62.0066 58.7602 62.0347C59.4507 62.0628 60.1405 61.952 60.7861 61.7088C61.4318 61.4655 62.0206 61.0944 62.5144 60.6172C63.0082 60.1399 63.3963 59.5666 63.652 58.9327C63.9078 58.2986 64.0251 57.6189 63.9955 56.9369C63.966 56.255 63.7904 55.5876 63.4812 54.9773C63.1756 54.3743 62.7468 53.8409 62.223 53.4087L50.6731 43.041C51.1203 41.6377 51.2184 40.1473 50.9538 38.6931C50.6465 37.0045 49.863 35.4348 48.6943 34.1563C47.5258 32.878 46.0181 31.9405 44.3397 31.4431C42.6618 30.9459 40.8753 30.9067 39.1763 31.3297C38.792 31.4247 38.4375 31.6191 38.1517 31.8964C37.8655 32.1741 37.6587 32.525 37.5577 32.9135C37.4567 33.3022 37.4663 33.7106 37.5852 34.0941C37.7039 34.4773 37.9263 34.8181 38.2244 35.0825C38.2245 35.0825 38.2246 35.0826 38.2247 35.0827L41.7486 38.2125L41.1245 39.8511L39.3661 40.4765L36.0953 37.0424L36.0945 37.0416C35.82 36.754 35.4738 36.5466 35.094 36.4372C34.7145 36.3278 34.3122 36.3194 33.9284 36.4126C33.5445 36.5058 33.1899 36.6981 32.9033 36.9732C32.6165 37.2486 32.4083 37.597 32.3048 37.9835Z" fill="#079554" stroke="#28252C" stroke-width="2"></path><defs><filter id="filter0_b_1229_695" x="-1.36133" y="-1.20233" width="82.7559" height="82.1321" filterUnits="userSpaceOnUse" color-interpolation-filters="sRGB"><feFlood flood-opacity="0" result="BackgroundImageFix"></feFlood><feGaussianBlur in="BackgroundImageFix" stdDeviation="10"></feGaussianBlur><feComposite in2="SourceAlpha" operator="in" result="effect1_backgroundBlur_1229_695"></feComposite><feBlend mode="normal" in="SourceGraphic" in2="effect1_backgroundBlur_1229_695" result="shape"></feBlend></filter><linearGradient id="paint0_linear_1229_695" x1="54.1572" y1="9.3758" x2="21.4223" y2="66.339" gradientUnits="userSpaceOnUse"><stop stop-color="#02AF5F"></stop><stop offset="1" stop-color="#014928" stop-opacity="0"></stop></linearGradient></defs></svg> 