<?xml version="1.0" encoding="UTF-8"?> <svg xmlns="http://www.w3.org/2000/svg" width="80" height="80" viewBox="0 0 80 80" fill="none"><rect width="80" height="80" rx="16" fill="#28252C"></rect><path d="M23 28C23 23.5817 26.5817 20 31 20H49L49.1866 20.2476L57 30V51C57 55.4183 53.4183 59 49 59H31C26.5817 59 23 55.4183 23 51V28Z" fill="url(#paint0_linear_1230_1149)"></path><path d="M49 20C49.0258 20.0242 49.0498 20.0502 49.0719 20.0778L57 30H53C50.7909 30 49 28.2091 49 26V20Z" fill="#008648"></path><path d="M37.3124 39.3929V38H39.7544C40.201 38 40.59 37.9286 40.9214 37.7857C41.2528 37.6429 41.5049 37.4357 41.6778 37.1643C41.8651 36.8929 41.9587 36.5714 41.9587 36.2C41.9587 35.6286 41.757 35.1929 41.3536 34.8929C40.9646 34.5929 40.4316 34.4429 39.7544 34.4429H38.0904V44.5571H40.0786C40.5972 44.5571 41.0655 44.4857 41.4833 44.3429C41.9011 44.1857 42.2253 43.9429 42.4558 43.6143C42.7007 43.2857 42.8232 42.8643 42.8232 42.35C42.8232 41.9786 42.7511 41.6643 42.6071 41.4071C42.4774 41.1357 42.2829 40.9143 42.0236 40.7429C41.7787 40.5571 41.4905 40.4286 41.1591 40.3571C40.8278 40.2714 40.4676 40.2286 40.0786 40.2286H37.3124V38.5571H40.3595C41.0943 38.5571 41.7931 38.6357 42.4558 38.7929C43.1329 38.95 43.738 39.2 44.2711 39.5429C44.8042 39.8714 45.222 40.3 45.5246 40.8286C45.8415 41.3571 46 41.9929 46 42.7357C46 43.7214 45.7623 44.5286 45.2868 45.1571C44.8258 45.7857 44.1703 46.25 43.3202 46.55C42.4702 46.85 41.4833 47 40.3595 47H35V32H40.0354C41.0439 32 41.9299 32.1429 42.6935 32.4286C43.4571 32.7 44.055 33.1143 44.4872 33.6714C44.9194 34.2286 45.1356 34.9357 45.1356 35.7929C45.1356 36.55 44.9194 37.2 44.4872 37.7429C44.055 38.2857 43.4571 38.7 42.6935 38.9857C41.9299 39.2571 41.0439 39.3929 40.0354 39.3929H37.3124Z" fill="#008648"></path><defs><linearGradient id="paint0_linear_1230_1149" x1="78.4053" y1="-10.1894" x2="23.2091" y2="43.151" gradientUnits="userSpaceOnUse"><stop stop-color="#02AF5F"></stop><stop offset="1" stop-color="#014928" stop-opacity="0.52"></stop></linearGradient></defs></svg> 