<?xml version="1.0" encoding="UTF-8"?> <svg xmlns="http://www.w3.org/2000/svg" width="80" height="80" viewBox="0 0 80 80" fill="none"><rect width="80" height="80" rx="16" fill="#28252C"></rect><g clip-path="url(#clip0_1229_723)"><g opacity="0.9" filter="url(#filter0_b_1229_723)"><path d="M60.7761 18.6145C60.7387 18.4542 60.6265 18.3316 60.4675 18.2939C55.3788 17.0397 43.6207 21.5094 37.2505 27.9311C35.152 30.0466 32.2234 31.1202 29.381 32.0146C29.0977 32.1038 28.8207 32.207 28.5512 32.3254C23.8274 34.4188 22.4523 39.8881 22.0688 42.2362C21.9753 42.7925 22.4336 43.2734 22.9855 43.2169L28.8527 42.5678C29.7737 42.4659 30.5684 43.1827 30.6746 44.1033C30.712 44.4993 30.8897 44.8671 31.1703 45.15L34.1075 48.1109C34.3882 48.3938 34.753 48.573 35.1458 48.6107C36.0545 48.7172 36.7625 49.5013 36.6634 50.4108L36.0158 56.3526C35.9597 56.909 36.4367 57.371 36.9886 57.2767C39.3178 56.8995 44.7525 55.5134 46.8198 50.7513C46.9397 50.4739 47.0439 50.1889 47.1337 49.8975C48.0126 47.0434 49.0943 44.1206 51.1975 42.0004C57.5957 35.5881 62.0015 23.9989 60.7761 18.6145ZM45.5102 33.6927C43.9481 32.118 43.9481 29.5719 45.5102 27.9971C47.0724 26.4224 49.598 26.4224 51.1601 27.9971C52.7222 29.5719 52.7222 32.118 51.1601 33.6927C49.598 35.2675 47.0724 35.2675 45.5102 33.6927Z" fill="url(#paint0_linear_1229_723)"></path></g><path d="M20.8369 50.0624L21.1484 49.8063C21.5132 49.5351 22.625 48.947 23.313 49.0841C22.6901 49.2592 21.4895 49.7598 20.6208 50.8655C18.2374 53.9053 18.87 57.1502 20.773 60.351L21.1382 60.9174C21.5416 58.5542 22.1433 57.1915 23.3378 56.4969C23.7666 56.2477 24.2774 56.2042 24.6191 56.1164C24.6191 56.1164 24.1789 56.3703 23.7233 56.7804C23.3123 57.1472 22.9747 57.7578 23.0062 58.3132C23.461 57.7455 24.0135 57.4926 24.6395 57.3813C26.5008 57.0515 28.4781 58.4617 30.9019 56.6442L31.0139 56.5485C32.5965 55.1949 33.2915 53.2927 32.9801 51.3568C32.7876 51.8688 32.2428 52.6005 31.3485 53.0435C31.9469 52.3273 32.0594 51.7202 32.2525 50.9981C32.3923 50.4596 32.3437 49.9442 32.1587 49.3871C31.9738 48.8301 31.5959 48.2847 31.1733 47.7826C29.7782 46.1248 28.3547 45.5233 26.7072 45.517C25.0598 45.5107 23.9006 46.2772 22.769 47.2451C21.6373 48.213 21.1867 49.0326 20.8369 50.0624Z" fill="#106943"></path></g><defs><filter id="filter0_b_1229_723" x="2.05664" y="-1.91748" width="78.9238" height="79.2065" filterUnits="userSpaceOnUse" color-interpolation-filters="sRGB"><feFlood flood-opacity="0" result="BackgroundImageFix"></feFlood><feGaussianBlur in="BackgroundImageFix" stdDeviation="10"></feGaussianBlur><feComposite in2="SourceAlpha" operator="in" result="effect1_backgroundBlur_1229_723"></feComposite><feBlend mode="normal" in="SourceGraphic" in2="effect1_backgroundBlur_1229_723" result="shape"></feBlend></filter><linearGradient id="paint0_linear_1229_723" x1="62.6696" y1="14.1055" x2="19.6154" y2="58.8824" gradientUnits="userSpaceOnUse"><stop stop-color="#02AF5F"></stop><stop offset="1" stop-color="#014928" stop-opacity="0"></stop></linearGradient><clipPath id="clip0_1229_723"><rect x="19" y="18" width="42" height="43" fill="white"></rect></clipPath></defs></svg> 