<?xml version="1.0" encoding="UTF-8"?> <svg xmlns="http://www.w3.org/2000/svg" width="80" height="80" viewBox="0 0 80 80" fill="none"><rect width="80" height="80" rx="16" fill="#28252C"></rect><path d="M23 28C23 23.5817 26.5817 20 31 20H49L49.1866 20.2476L57 30V51C57 55.4183 53.4183 59 49 59H31C26.5817 59 23 55.4183 23 51V28Z" fill="url(#paint0_linear_1229_755)"></path><path d="M49 20C49.0258 20.0242 49.0498 20.0502 49.0719 20.0778L57 30H53C50.7909 30 49 28.2091 49 26V20Z" fill="#008648"></path><path d="M31 39H35H39" stroke="#008648" stroke-width="2" stroke-linecap="round"></path><path d="M31 44H38H45" stroke="#008648" stroke-width="2" stroke-linecap="round"></path><path d="M31 49H35H39" stroke="#008648" stroke-width="2" stroke-linecap="round"></path><defs><linearGradient id="paint0_linear_1229_755" x1="78.4053" y1="-10.1894" x2="23.2091" y2="43.151" gradientUnits="userSpaceOnUse"><stop stop-color="#02AF5F"></stop><stop offset="1" stop-color="#014928" stop-opacity="0.52"></stop></linearGradient></defs></svg> 