<?xml version="1.0" encoding="UTF-8"?> <svg xmlns="http://www.w3.org/2000/svg" width="560" height="380" viewBox="0 0 560 380" fill="none"><g clip-path="url(#clip0_1049_234)"><g filter="url(#filter0_f_1049_234)"><circle cx="330.5" cy="179.5" r="110.5" fill="#02AF5F" fill-opacity="0.3"></circle></g><g filter="url(#filter1_b_1049_234)"><path fill-rule="evenodd" clip-rule="evenodd" d="M279.5 79C218.473 79 169 128.473 169 189.5C169 250.527 218.473 300 279.5 300C340.527 300 390 250.527 390 189.5C390 128.473 340.527 79 279.5 79ZM145 189.5C145 115.218 205.218 55 279.5 55C353.782 55 414 115.218 414 189.5C414 263.782 353.782 324 279.5 324C205.218 324 145 263.782 145 189.5ZM279.502 128C245.536 128 218.002 155.535 218.002 189.5C218.002 223.466 245.536 251 279.502 251C313.467 251 341.002 223.466 341.002 189.5C341.002 155.535 313.467 128 279.502 128ZM194.002 189.5C194.002 142.28 232.282 104 279.502 104C326.722 104 365.002 142.28 365.002 189.5C365.002 236.72 326.722 275 279.502 275C232.282 275 194.002 236.72 194.002 189.5ZM266.998 189.5C266.998 182.596 272.594 177 279.498 177C286.402 177 291.998 182.596 291.998 189.5C291.998 196.403 286.402 202 279.498 202C272.594 202 266.998 196.403 266.998 189.5ZM279.498 153C259.34 153 242.998 169.341 242.998 189.5C242.998 209.658 259.34 226 279.498 226C299.656 226 315.998 209.658 315.998 189.5C315.998 169.341 299.656 153 279.498 153Z" fill="url(#paint0_linear_1049_234)"></path></g><path fill-rule="evenodd" clip-rule="evenodd" d="M399.266 34.2946C398.912 32.8691 398.187 31.563 397.163 30.5102C396.139 29.4573 394.854 28.6954 393.439 28.3023C392.024 27.9093 390.53 27.8993 389.11 28.2733C387.69 28.6473 386.395 29.392 385.357 30.431L352.201 63.5951C351.189 64.6086 350.458 65.8668 350.077 67.2471C349.697 68.6274 349.68 70.0828 350.029 71.4715L355.997 95.416C355.919 95.4923 355.841 95.5697 355.765 95.6481L270.337 181.085C268.141 183.443 266.945 186.561 267.002 189.783C267.059 193.005 268.364 196.079 270.642 198.357C272.92 200.636 275.993 201.941 279.214 201.998C282.435 202.055 285.553 200.859 287.91 198.662L373.371 113.242C373.449 113.16 373.527 113.077 373.603 112.993L397.525 118.979C398.914 119.328 400.369 119.311 401.749 118.931C403.129 118.55 404.387 117.818 405.4 116.807L438.556 83.6427C439.599 82.605 440.348 81.3083 440.724 79.8858C441.1 78.4632 441.092 76.9661 440.698 75.5481C440.305 74.1301 439.542 72.8423 438.486 71.817C437.431 70.7917 436.122 70.0658 434.694 69.7138L406.361 62.6499L399.266 34.2946Z" fill="#02AF5F"></path></g><defs><filter id="filter0_f_1049_234" x="120" y="-31" width="421" height="421" filterUnits="userSpaceOnUse" color-interpolation-filters="sRGB"><feFlood flood-opacity="0" result="BackgroundImageFix"></feFlood><feBlend mode="normal" in="SourceGraphic" in2="BackgroundImageFix" result="shape"></feBlend><feGaussianBlur stdDeviation="50" result="effect1_foregroundBlur_1049_234"></feGaussianBlur></filter><filter id="filter1_b_1049_234" x="125" y="35" width="309" height="309" filterUnits="userSpaceOnUse" color-interpolation-filters="sRGB"><feFlood flood-opacity="0" result="BackgroundImageFix"></feFlood><feGaussianBlur in="BackgroundImageFix" stdDeviation="10"></feGaussianBlur><feComposite in2="SourceAlpha" operator="in" result="effect1_backgroundBlur_1049_234"></feComposite><feBlend mode="normal" in="SourceGraphic" in2="effect1_backgroundBlur_1049_234" result="shape"></feBlend></filter><linearGradient id="paint0_linear_1049_234" x1="425.669" y1="27.7129" x2="130.361" y2="337.063" gradientUnits="userSpaceOnUse"><stop stop-color="#02AF5F"></stop><stop offset="1" stop-color="#014928" stop-opacity="0"></stop></linearGradient><clipPath id="clip0_1049_234"><rect width="560" height="380" fill="white"></rect></clipPath></defs></svg> 