<?xml version="1.0" encoding="UTF-8"?> <svg xmlns="http://www.w3.org/2000/svg" width="560" height="480" viewBox="0 0 560 480" fill="none"><g clip-path="url(#clip0_1230_1020)"><g filter="url(#filter0_f_1230_1020)"><circle cx="332.5" cy="193.5" r="103.5" fill="#02AF5F" fill-opacity="0.2"></circle></g><g filter="url(#filter1_b_1230_1020)"><path d="M270.887 168.011C221.197 158.349 169.84 161.934 121.972 178.406C119.968 179.162 118.244 180.516 117.033 182.284C115.822 184.052 115.184 186.15 115.204 188.293V341.436C115.204 342.819 115.476 344.188 116.005 345.466C116.534 346.743 117.309 347.904 118.286 348.882C119.264 349.86 120.424 350.636 121.701 351.165C122.978 351.694 124.347 351.966 125.729 351.966L269.037 351.998C274.546 351.999 279.018 347.546 279.039 342.037L279.687 178.474C279.684 175.973 278.8 173.553 277.191 171.64C275.582 169.726 273.35 168.441 270.887 168.011Z" fill="url(#paint0_linear_1230_1020)"></path></g><g filter="url(#filter2_b_1230_1020)"><path d="M437.063 178.44C389.192 161.979 337.836 158.405 288.148 168.079C285.734 168.536 283.555 169.82 281.986 171.711C280.417 173.603 279.556 175.982 279.552 178.44L279.032 341.966C279.014 347.502 283.498 351.999 289.034 351.998L433.543 351.966C436.335 351.966 439.012 350.857 440.986 348.882C442.96 346.907 444.069 344.229 444.069 341.436V188.326C444.061 186.157 443.384 184.043 442.13 182.274C440.876 180.504 439.107 179.165 437.063 178.44Z" fill="url(#paint1_linear_1230_1020)"></path></g><g filter="url(#filter3_b_1230_1020)"><path d="M395.999 124.055C355.896 126.546 316.834 140.604 281.537 159.911C279.685 160.924 277.442 160.909 275.603 159.873C240.936 140.353 202.312 126.275 162.643 124.021C161.141 123.928 159.636 124.145 158.222 124.659C156.808 125.173 155.515 125.972 154.423 127.008C153.331 128.043 152.463 129.292 151.875 130.677C151.286 132.062 150.988 133.554 151 135.059V282.04C151 284.815 152.045 287.489 153.926 289.528C155.808 291.567 158.388 292.823 161.154 293.044C181.156 294.703 228.571 303.879 277.849 350.604C278.268 350.992 278.818 351.207 279.389 351.207C279.959 351.207 280.509 350.992 280.928 350.604C330.24 303.744 377.385 294.602 397.454 293.044C400.219 292.823 402.8 291.567 404.682 289.528C406.563 287.489 407.608 284.815 407.607 282.04V135.093C407.624 133.589 407.331 132.098 406.746 130.713C406.161 129.328 405.297 128.079 404.207 127.043C403.118 126.007 401.827 125.207 400.415 124.693C399.002 124.179 397.499 123.962 395.999 124.055Z" fill="url(#paint2_linear_1230_1020)" fill-opacity="0.8"></path></g><g filter="url(#filter4_b_1230_1020)"><path d="M220.546 105.311C219.44 104.979 218.272 104.912 217.136 105.114C215.999 105.317 214.925 105.783 213.998 106.477C213.072 107.171 212.318 108.072 211.798 109.11C211.278 110.148 211.004 111.295 211 112.458V266.439C211 268.945 257.555 327.679 272.277 348.612C273.045 349.68 274.057 350.545 275.227 351.135C277.164 352.111 279 350.259 279 348.09V160.229C279 159.905 278.976 159.593 278.921 159.274C276.715 146.491 267.029 118.928 220.546 105.311Z" fill="url(#paint3_linear_1230_1020)" fill-opacity="0.6"></path></g><g filter="url(#filter5_b_1230_1020)"><path d="M347.932 112.492C347.933 111.326 347.66 110.176 347.134 109.134C346.608 108.091 345.845 107.185 344.905 106.487C343.964 105.79 342.873 105.32 341.718 105.116C340.562 104.911 339.375 104.978 338.25 105.311C291.095 118.9 281.178 146.477 279.073 159.062C279.022 159.369 279 159.67 279 159.982V348.038C279 350.236 280.858 352.112 282.826 351.134C284.013 350.545 285.04 349.679 285.818 348.611C300.75 327.676 348 268.968 348 266.461L347.932 112.492Z" fill="url(#paint4_linear_1230_1020)" fill-opacity="0.6"></path></g><path d="M223.319 70.5054L223.964 68.8504L226.491 69.8345C226.923 70.0028 227.315 70.078 227.665 70.0599C228.031 70.0476 228.342 69.9542 228.599 69.7795C228.861 69.5899 229.062 69.3162 229.202 68.9583C229.411 68.4216 229.389 67.9494 229.135 67.5417C228.882 67.134 228.427 66.8024 227.771 66.5469L226.206 65.9373L222.391 75.7329L224.315 76.4818C224.807 76.6734 225.27 76.785 225.704 76.8167C226.144 76.8335 226.531 76.7437 226.865 76.5476C227.219 76.3423 227.495 75.9861 227.693 75.4792C227.82 75.1512 227.864 74.8418 227.822 74.551C227.781 74.2602 227.67 73.9938 227.49 73.7518C227.309 73.5098 227.074 73.2981 226.784 73.1165C226.515 72.9258 226.194 72.7579 225.821 72.6128L222.936 71.4894L223.737 69.4319L227.047 70.7207C227.808 71.0168 228.514 71.3862 229.166 71.8289C229.817 72.2716 230.362 72.7925 230.798 73.3917C231.24 73.9759 231.522 74.6181 231.644 75.3182C231.788 76.0092 231.705 76.7498 231.397 77.54C230.991 78.5836 230.41 79.3273 229.653 79.771C228.911 80.2206 228.025 80.4248 226.993 80.3837C225.968 80.3278 224.836 80.0589 223.599 79.577L217.471 77.1908L223.567 61.5358L229.315 63.774C230.403 64.1978 231.299 64.7184 232.003 65.3359C232.728 65.9443 233.212 66.6396 233.457 67.4218C233.723 68.1948 233.682 69.0287 233.333 69.9232C233.014 70.7433 232.495 71.3482 231.777 71.7381C231.073 72.1338 230.243 72.3256 229.286 72.3136C228.35 72.2925 227.338 72.07 226.249 71.6462L223.319 70.5054Z" fill="#125C3C"></path><path d="M261.529 94.7556L265.655 93.9706L272.24 100.462L267.572 101.35L261.529 94.7556ZM255.685 86.5106L259.669 85.7525L262.81 102.256L258.825 103.015L255.685 86.5106ZM258.826 89.4067L258.184 86.0352L261.697 85.3668C263.112 85.0976 264.334 85.1012 265.364 85.3776C266.394 85.654 267.23 86.1545 267.873 86.8792C268.512 87.5881 268.934 88.4769 269.137 89.5458C269.338 90.5989 269.272 91.5805 268.94 92.4905C268.605 93.3848 268.01 94.1496 267.154 94.7849C266.297 95.4201 265.162 95.8723 263.747 96.1415L260.234 96.8099L259.646 93.7213L262.877 93.1067C263.411 93.005 263.852 92.8397 264.199 92.6108C264.559 92.3631 264.811 92.0627 264.956 91.7094C265.098 91.3405 265.125 90.9281 265.038 90.4722C264.951 90.0164 264.776 89.6508 264.512 89.3753C264.245 89.0841 263.898 88.8894 263.472 88.7913C263.062 88.6902 262.59 88.6904 262.056 88.7921L258.826 89.4067Z" fill="#125C3C"></path><path d="M280.719 63.7561L282.232 61.0396L289.851 64.4004L288.844 67.3396L280.719 63.7561ZM287.72 58.7651L283.379 62.7787L283.197 63.6687L279.543 66.7787L275.349 64.9289L290.635 52.1555L291.533 72.0668L287.317 70.2072L287.147 65.5948L287.696 64.7086L287.72 58.7651Z" fill="#125C3C"></path><path d="M319.382 82.9618L322.961 84.5405L315.842 100.68L309.369 86.5724L305.553 95.2242L301.996 93.6552L309.114 77.5154L315.566 91.6137L319.382 82.9618Z" fill="#125C3C"></path><path d="M340.323 65.4888L344.24 64.0408L350.065 79.7986L346.148 81.2466L340.323 65.4888ZM351.776 79.1662L348.669 80.3146L347.421 76.9379L350.393 75.8395C350.993 75.6175 351.543 75.3289 352.043 74.9736C352.558 74.6127 352.961 74.182 353.254 73.6815C353.562 73.1754 353.738 72.5901 353.782 71.9255C353.821 71.2459 353.682 70.4784 353.366 69.623C353.049 68.7676 352.658 68.1019 352.192 67.6259C351.721 67.1349 351.204 66.7973 350.641 66.613C350.093 66.4232 349.506 66.3586 348.881 66.4194C348.27 66.4745 347.664 66.6131 347.064 66.835L344.093 67.9335L342.844 64.5568L345.951 63.4084C347.677 62.7704 349.289 62.5411 350.788 62.7204C352.288 62.8997 353.599 63.447 354.722 64.3624C355.845 65.2778 356.706 66.5459 357.305 68.1667C357.899 69.7725 358.07 71.2958 357.817 72.7366C357.56 74.1623 356.92 75.4309 355.898 76.5422C354.876 77.6535 353.502 78.5282 351.776 79.1662Z" fill="#125C3C"></path></g><defs><filter id="filter0_f_1230_1020" x="129" y="-10" width="407" height="407" filterUnits="userSpaceOnUse" color-interpolation-filters="sRGB"><feFlood flood-opacity="0" result="BackgroundImageFix"></feFlood><feBlend mode="normal" in="SourceGraphic" in2="BackgroundImageFix" result="shape"></feBlend><feGaussianBlur stdDeviation="50" result="effect1_foregroundBlur_1230_1020"></feGaussianBlur></filter><filter id="filter1_b_1230_1020" x="95.2031" y="142.708" width="204.484" height="229.29" filterUnits="userSpaceOnUse" color-interpolation-filters="sRGB"><feFlood flood-opacity="0" result="BackgroundImageFix"></feFlood><feGaussianBlur in="BackgroundImageFix" stdDeviation="10"></feGaussianBlur><feComposite in2="SourceAlpha" operator="in" result="effect1_backgroundBlur_1230_1020"></feComposite><feBlend mode="normal" in="SourceGraphic" in2="effect1_backgroundBlur_1230_1020" result="shape"></feBlend></filter><filter id="filter2_b_1230_1020" x="259.031" y="142.763" width="205.039" height="229.234" filterUnits="userSpaceOnUse" color-interpolation-filters="sRGB"><feFlood flood-opacity="0" result="BackgroundImageFix"></feFlood><feGaussianBlur in="BackgroundImageFix" stdDeviation="10"></feGaussianBlur><feComposite in2="SourceAlpha" operator="in" result="effect1_backgroundBlur_1230_1020"></feComposite><feBlend mode="normal" in="SourceGraphic" in2="effect1_backgroundBlur_1230_1020" result="shape"></feBlend></filter><filter id="filter3_b_1230_1020" x="131" y="104" width="296.609" height="267.208" filterUnits="userSpaceOnUse" color-interpolation-filters="sRGB"><feFlood flood-opacity="0" result="BackgroundImageFix"></feFlood><feGaussianBlur in="BackgroundImageFix" stdDeviation="10"></feGaussianBlur><feComposite in2="SourceAlpha" operator="in" result="effect1_backgroundBlur_1230_1020"></feComposite><feBlend mode="normal" in="SourceGraphic" in2="effect1_backgroundBlur_1230_1020" result="shape"></feBlend></filter><filter id="filter4_b_1230_1020" x="191" y="85" width="108" height="286.402" filterUnits="userSpaceOnUse" color-interpolation-filters="sRGB"><feFlood flood-opacity="0" result="BackgroundImageFix"></feFlood><feGaussianBlur in="BackgroundImageFix" stdDeviation="10"></feGaussianBlur><feComposite in2="SourceAlpha" operator="in" result="effect1_backgroundBlur_1230_1020"></feComposite><feBlend mode="normal" in="SourceGraphic" in2="effect1_backgroundBlur_1230_1020" result="shape"></feBlend></filter><filter id="filter5_b_1230_1020" x="259" y="85" width="109" height="286.4" filterUnits="userSpaceOnUse" color-interpolation-filters="sRGB"><feFlood flood-opacity="0" result="BackgroundImageFix"></feFlood><feGaussianBlur in="BackgroundImageFix" stdDeviation="10"></feGaussianBlur><feComposite in2="SourceAlpha" operator="in" result="effect1_backgroundBlur_1230_1020"></feComposite><feBlend mode="normal" in="SourceGraphic" in2="effect1_backgroundBlur_1230_1020" result="shape"></feBlend></filter><linearGradient id="paint0_linear_1230_1020" x1="197.445" y1="162.708" x2="197.445" y2="352" gradientUnits="userSpaceOnUse"><stop stop-color="#1F1E24"></stop><stop offset="1" stop-color="#211F26"></stop></linearGradient><linearGradient id="paint1_linear_1230_1020" x1="361.534" y1="162.763" x2="361.534" y2="352" gradientUnits="userSpaceOnUse"><stop stop-color="#2B2932"></stop><stop offset="1" stop-color="#1F1E24"></stop></linearGradient><linearGradient id="paint2_linear_1230_1020" x1="418.74" y1="100.952" x2="172.531" y2="392.243" gradientUnits="userSpaceOnUse"><stop stop-color="#02AF5F"></stop><stop offset="1" stop-color="#014928" stop-opacity="0"></stop></linearGradient><linearGradient id="paint3_linear_1230_1020" x1="281.95" y1="79.9446" x2="137.403" y2="121.631" gradientUnits="userSpaceOnUse"><stop stop-color="#02AF5F"></stop><stop offset="1" stop-color="#014928" stop-opacity="0"></stop></linearGradient><linearGradient id="paint4_linear_1230_1020" x1="350.993" y1="79.9446" x2="204.654" y2="122.769" gradientUnits="userSpaceOnUse"><stop stop-color="#02AF5F"></stop><stop offset="1" stop-color="#014928" stop-opacity="0"></stop></linearGradient><clipPath id="clip0_1230_1020"><rect width="560" height="480" fill="white"></rect></clipPath></defs></svg> 