<?xml version="1.0" encoding="UTF-8"?> <svg xmlns="http://www.w3.org/2000/svg" width="140" height="140" viewBox="0 0 140 140" fill="none"><g opacity="0.9" filter="url(#filter0_b_1237_1569)"><path d="M101.821 72.4658L72.2844 23.917C72.1833 23.7549 72.0324 23.6301 71.8544 23.5613C71.6764 23.4925 71.4809 23.4833 71.2973 23.5353C71.1137 23.5872 70.9518 23.6974 70.8361 23.8493C70.7203 24.0013 70.4583 24.3171 70.4583 24.7927V64.0929C70.4583 66.1623 72.1432 67.8354 73.2855 69.561C73.8671 70.4396 74.1107 71.4998 73.971 72.5446C73.8312 73.5895 73.3177 74.5481 72.5257 75.2423C71.7338 75.9365 70.7172 76.3191 69.6649 76.3191C68.6126 76.3191 67.5961 75.9365 66.8041 75.2423C66.0122 74.5481 65.4986 73.5895 65.3589 72.5446C65.2192 71.4998 65.4627 70.4396 66.0444 69.561C67.1032 67.9616 68.5493 66.2673 68.5493 64.3491V24.7927C68.5493 24.3171 68.3065 23.868 68.1924 23.7159C68.0782 23.5638 67.9178 23.453 67.7353 23.4002C67.5528 23.3475 67.3582 23.3556 67.1807 23.4234C67.0033 23.4913 66.8526 23.6151 66.7516 23.7762L35.2795 73.0611C35.204 73.1799 35.1581 73.3153 35.1459 73.4557C35.1216 73.7345 35.2852 73.9861 35.4362 74.2218L43.4318 86.7008C47.6369 93.2619 50.3966 100.646 51.5266 108.361L52.582 115.528C52.6321 115.869 52.6944 116.245 52.9804 116.437C53.1249 116.534 53.295 116.586 53.4689 116.585L84.3021 116.477C84.4783 116.476 84.6505 116.423 84.7962 116.324C85.0843 116.128 85.1372 115.744 85.1715 115.397L85.976 107.247C86.6925 99.8375 89.1918 92.7127 93.2594 86.4832L101.673 73.5964C101.822 73.3682 101.978 73.1217 101.952 72.8504C101.939 72.7137 101.894 72.582 101.821 72.4658Z" fill="url(#paint0_linear_1237_1569)"></path></g><path d="M117.168 33.6963C89.735 11.753 65.241 12.8991 49.5224 17.7036C39.1631 20.9011 29.6338 26.3383 21.6101 33.6297L20.584 32.6035C28.7635 25.1646 38.476 19.612 49.036 16.3376C65.101 11.3932 90.1215 10.1937 118.067 32.5502L117.168 33.6963Z" fill="#02AF5F"></path><path d="M22.6104 34.2361C22.6104 34.7909 22.4459 35.3333 22.1377 35.7946C21.8294 36.256 21.3913 36.6156 20.8787 36.8279C20.3661 37.0402 19.8021 37.0958 19.258 36.9875C18.7138 36.8793 18.214 36.6121 17.8216 36.2198C17.4293 35.8274 17.1621 35.3275 17.0539 34.7834C16.9457 34.2392 17.0012 33.6751 17.2135 33.1625C17.4259 32.6499 17.7854 32.2117 18.2467 31.9035C18.708 31.5952 19.2504 31.4307 19.8052 31.4307C20.1739 31.4298 20.539 31.5018 20.8798 31.6424C21.2205 31.7831 21.5301 31.9897 21.7908 32.2504C22.0514 32.5111 22.258 32.8207 22.3987 33.1614C22.5394 33.5022 22.6113 33.8674 22.6104 34.2361Z" fill="#02AF5F"></path><path d="M120.421 33.2846C120.421 33.8398 120.256 34.3824 119.948 34.8439C119.639 35.3054 119.201 35.665 118.688 35.8771C118.175 36.0892 117.61 36.1444 117.066 36.0356C116.522 35.9268 116.022 35.659 115.63 35.266C115.238 34.873 114.971 34.3725 114.864 33.8278C114.756 33.2832 114.813 32.7189 115.026 32.2064C115.239 31.6939 115.6 31.2563 116.062 30.9488C116.524 30.6414 117.067 30.4779 117.622 30.4793C117.991 30.4793 118.355 30.5519 118.695 30.6929C119.035 30.834 119.344 31.0407 119.604 31.3013C119.864 31.5619 120.07 31.8712 120.21 32.2116C120.35 32.5519 120.422 32.9166 120.421 33.2846Z" fill="#02AF5F"></path><path d="M72.7137 11H66.2852V17.4207H72.7137V11Z" fill="#02AF5F"></path><path d="M119.142 13.1403H21.2852V15.2805H119.142V13.1403Z" fill="#02AF5F"></path><path d="M122.001 11H115.572V17.4207H122.001V11Z" fill="#02AF5F"></path><path d="M24.1434 11H17.7148V17.4207H24.1434V11Z" fill="#02AF5F"></path><g opacity="0.9" filter="url(#filter1_b_1237_1569)"><rect x="49.1426" y="114.445" width="38.5714" height="13.5549" rx="2" fill="url(#paint1_linear_1237_1569)"></rect></g><defs><filter id="filter0_b_1237_1569" x="15.1426" y="3.36584" width="106.812" height="133.219" filterUnits="userSpaceOnUse" color-interpolation-filters="sRGB"><feFlood flood-opacity="0" result="BackgroundImageFix"></feFlood><feGaussianBlur in="BackgroundImageFix" stdDeviation="10"></feGaussianBlur><feComposite in2="SourceAlpha" operator="in" result="effect1_backgroundBlur_1237_1569"></feComposite><feBlend mode="normal" in="SourceGraphic" in2="effect1_backgroundBlur_1237_1569" result="shape"></feBlend></filter><filter id="filter1_b_1237_1569" x="29.1426" y="94.4451" width="78.5723" height="53.5549" filterUnits="userSpaceOnUse" color-interpolation-filters="sRGB"><feFlood flood-opacity="0" result="BackgroundImageFix"></feFlood><feGaussianBlur in="BackgroundImageFix" stdDeviation="10"></feGaussianBlur><feComposite in2="SourceAlpha" operator="in" result="effect1_backgroundBlur_1237_1569"></feComposite><feBlend mode="normal" in="SourceGraphic" in2="effect1_backgroundBlur_1237_1569" result="shape"></feBlend></filter><linearGradient id="paint0_linear_1237_1569" x1="104.854" y1="13.9097" x2="6.47565" y2="87.7737" gradientUnits="userSpaceOnUse"><stop stop-color="#02AF5F"></stop><stop offset="1" stop-color="#014928" stop-opacity="0"></stop></linearGradient><linearGradient id="paint1_linear_1237_1569" x1="89.3872" y1="113.07" x2="80.4035" y2="139.849" gradientUnits="userSpaceOnUse"><stop stop-color="#02AF5F"></stop><stop offset="1" stop-color="#014928" stop-opacity="0"></stop></linearGradient></defs></svg> 