<?xml version="1.0" encoding="UTF-8"?> <svg xmlns="http://www.w3.org/2000/svg" width="140" height="140" viewBox="0 0 140 140" fill="none"><g opacity="0.8" filter="url(#filter0_b_1237_1688)"><rect y="25" width="140" height="98" rx="8" fill="url(#paint0_linear_1237_1688)"></rect></g><path d="M30 54H14V56H30V54Z" fill="#093C25"></path><path d="M69 54H35V56H69V54Z" fill="#093C25"></path><path d="M37 63H21V65H37V63Z" fill="white"></path><path d="M119 63H42V65H119V63Z" fill="#088D51"></path><path d="M37 71H21V73H37V71Z" fill="white"></path><path d="M106 71H42V73H106V71Z" fill="#088D51"></path><path d="M30 81H14V83H30V81Z" fill="#093C25"></path><path d="M70 81H36V83H70V81Z" fill="#093C25"></path><path d="M105 90H43V92H105V90Z" fill="white"></path><path d="M83 99H43V101H83V99Z" fill="white"></path><path d="M38 99H33V101H38V99Z" fill="#088D51"></path><path d="M38 107H22V109H38V107Z" fill="#088D51"></path><path d="M97 107H43V109H97V107Z" fill="white"></path><circle cx="13" cy="34" r="2" fill="#0A5533"></circle><circle cx="20" cy="34" r="2" fill="#0A5533"></circle><circle cx="27" cy="34" r="2" fill="#0A5533"></circle><g filter="url(#filter1_b_1237_1688)"><rect x="67" width="66" height="50" rx="8" fill="url(#paint1_linear_1237_1688)" fill-opacity="0.8"></rect></g><g opacity="0.5" filter="url(#filter2_b_1237_1688)"><path fill-rule="evenodd" clip-rule="evenodd" d="M94.7337 35.8817C94.648 36.1994 94.8874 36.5118 95.2165 36.5118H98.531C98.7569 36.5118 98.9548 36.3602 99.0137 36.1421L105.089 13.6303C105.174 13.3125 104.935 13 104.606 13H101.285C101.059 13 100.861 13.1516 100.802 13.3699L94.7337 35.8817ZM91.9968 17.0766C91.9968 16.6499 91.4968 16.4193 91.1722 16.6963L82.1754 24.3756C81.9415 24.5752 81.9415 24.9366 82.1754 25.1362L91.1722 32.8156C91.4968 33.0926 91.9968 32.8619 91.9968 32.4353V29.0032C91.9968 28.857 91.9328 28.7181 91.8217 28.6231L87.7414 25.136C87.5079 24.9364 87.5079 24.5754 87.7414 24.3758L91.8217 20.8888C91.9328 20.7938 91.9968 20.6549 91.9968 20.5087V17.0766ZM107.824 32.4353C107.824 32.8619 108.324 33.0926 108.648 32.8156L117.645 25.1362C117.879 24.9366 117.879 24.5752 117.645 24.3756L108.648 16.6963C108.324 16.4193 107.824 16.6499 107.824 17.0766V20.5087C107.824 20.6549 107.888 20.7938 107.999 20.8888L112.079 24.3758C112.313 24.5754 112.313 24.9364 112.079 25.136L107.999 28.6231C107.888 28.7181 107.824 28.857 107.824 29.0032V32.4353Z" fill="url(#paint2_linear_1237_1688)"></path></g><defs><filter id="filter0_b_1237_1688" x="-20" y="5" width="180" height="138" filterUnits="userSpaceOnUse" color-interpolation-filters="sRGB"><feFlood flood-opacity="0" result="BackgroundImageFix"></feFlood><feGaussianBlur in="BackgroundImageFix" stdDeviation="10"></feGaussianBlur><feComposite in2="SourceAlpha" operator="in" result="effect1_backgroundBlur_1237_1688"></feComposite><feBlend mode="normal" in="SourceGraphic" in2="effect1_backgroundBlur_1237_1688" result="shape"></feBlend></filter><filter id="filter1_b_1237_1688" x="47" y="-20" width="106" height="90" filterUnits="userSpaceOnUse" color-interpolation-filters="sRGB"><feFlood flood-opacity="0" result="BackgroundImageFix"></feFlood><feGaussianBlur in="BackgroundImageFix" stdDeviation="10"></feGaussianBlur><feComposite in2="SourceAlpha" operator="in" result="effect1_backgroundBlur_1237_1688"></feComposite><feBlend mode="normal" in="SourceGraphic" in2="effect1_backgroundBlur_1237_1688" result="shape"></feBlend></filter><filter id="filter2_b_1237_1688" x="62" y="-7" width="75.8203" height="63.5118" filterUnits="userSpaceOnUse" color-interpolation-filters="sRGB"><feFlood flood-opacity="0" result="BackgroundImageFix"></feFlood><feGaussianBlur in="BackgroundImageFix" stdDeviation="10"></feGaussianBlur><feComposite in2="SourceAlpha" operator="in" result="effect1_backgroundBlur_1237_1688"></feComposite><feBlend mode="normal" in="SourceGraphic" in2="effect1_backgroundBlur_1237_1688" result="shape"></feBlend></filter><linearGradient id="paint0_linear_1237_1688" x1="146.073" y1="15.059" x2="46.5681" y2="163.968" gradientUnits="userSpaceOnUse"><stop stop-color="#02AF5F" stop-opacity="0.43"></stop><stop offset="1" stop-color="#014928" stop-opacity="0"></stop></linearGradient><linearGradient id="paint1_linear_1237_1688" x1="135.863" y1="-5.07195" x2="83.6784" y2="67.0872" gradientUnits="userSpaceOnUse"><stop stop-color="#02AF5F"></stop><stop offset="1" stop-color="#014928" stop-opacity="0"></stop></linearGradient><linearGradient id="paint2_linear_1237_1688" x1="119.374" y1="10.615" x2="96.1224" y2="47.7239" gradientUnits="userSpaceOnUse"><stop stop-color="#00FA86"></stop><stop offset="1" stop-color="#014928"></stop></linearGradient></defs></svg> 