<?xml version="1.0" encoding="UTF-8"?> <svg xmlns="http://www.w3.org/2000/svg" width="560" height="480" viewBox="0 0 560 480" fill="none"><g clip-path="url(#clip0_1229_528)"><g filter="url(#filter0_b_1229_528)"><rect x="106" y="93" width="342" height="248" rx="10" fill="#1C1A20"></rect></g><g opacity="0.5" filter="url(#filter1_b_1229_528)"><path d="M212.671 151H140.329C134.625 151 130 155.694 130 161.484V302.516C130 308.306 134.625 313 140.329 313H212.671C218.375 313 223 308.306 223 302.516V161.484C223 155.694 218.375 151 212.671 151Z" fill="#2C2A30"></path></g><g opacity="0.9" filter="url(#filter2_b_1229_528)"><path d="M153 196C153 192.691 155.691 190 159 190H195C198.309 190 201 192.691 201 196V226C201 229.309 198.309 232 195 232H159C155.691 232 153 229.309 153 226V196ZM183.356 205.984C182.934 205.366 182.241 205 181.5 205C180.759 205 180.056 205.366 179.644 205.984L171.487 217.947L169.003 214.844C168.572 214.309 167.925 214 167.25 214C166.575 214 165.919 214.309 165.497 214.844L159.497 222.344C158.953 223.019 158.85 223.947 159.225 224.725C159.6 225.503 160.387 226 161.25 226H192.75C193.584 226 194.353 225.541 194.738 224.8C195.122 224.059 195.075 223.169 194.606 222.484L183.356 205.984ZM163.5 205C164.693 205 165.838 204.526 166.682 203.682C167.526 202.838 168 201.693 168 200.5C168 199.307 167.526 198.162 166.682 197.318C165.838 196.474 164.693 196 163.5 196C162.307 196 161.162 196.474 160.318 197.318C159.474 198.162 159 199.307 159 200.5C159 201.693 159.474 202.838 160.318 203.682C161.162 204.526 162.307 205 163.5 205Z" fill="#313034"></path></g><g opacity="0.5" filter="url(#filter3_b_1229_528)"><rect x="144" y="276" width="28" height="3" rx="1.5" fill="#3D3D41"></rect></g><g opacity="0.5" filter="url(#filter4_b_1229_528)"><rect x="144" y="284" width="38" height="3" rx="1.5" fill="#3D3D41"></rect></g><g opacity="0.5" filter="url(#filter5_b_1229_528)"><rect x="144" y="292" width="29" height="3" rx="1.5" fill="#3D3D41"></rect></g><g opacity="0.5" filter="url(#filter6_b_1229_528)"><path d="M315.671 151H243.329C237.625 151 233 155.694 233 161.484V302.516C233 308.306 237.625 313 243.329 313H315.671C321.375 313 326 308.306 326 302.516V161.484C326 155.694 321.375 151 315.671 151Z" fill="#2C2A30"></path></g><g opacity="0.9" filter="url(#filter7_b_1229_528)"><path d="M256 196C256 192.691 258.691 190 262 190H298C301.309 190 304 192.691 304 196V226C304 229.309 301.309 232 298 232H262C258.691 232 256 229.309 256 226V196ZM286.356 205.984C285.934 205.366 285.241 205 284.5 205C283.759 205 283.056 205.366 282.644 205.984L274.487 217.947L272.003 214.844C271.572 214.309 270.925 214 270.25 214C269.575 214 268.919 214.309 268.497 214.844L262.497 222.344C261.953 223.019 261.85 223.947 262.225 224.725C262.6 225.503 263.387 226 264.25 226H295.75C296.584 226 297.353 225.541 297.738 224.8C298.122 224.059 298.075 223.169 297.606 222.484L286.356 205.984ZM266.5 205C267.693 205 268.838 204.526 269.682 203.682C270.526 202.838 271 201.693 271 200.5C271 199.307 270.526 198.162 269.682 197.318C268.838 196.474 267.693 196 266.5 196C265.307 196 264.162 196.474 263.318 197.318C262.474 198.162 262 199.307 262 200.5C262 201.693 262.474 202.838 263.318 203.682C264.162 204.526 265.307 205 266.5 205Z" fill="#313034"></path></g><g opacity="0.5" filter="url(#filter8_b_1229_528)"><rect x="247" y="276" width="28" height="3" rx="1.5" fill="#3D3D41"></rect></g><g opacity="0.5" filter="url(#filter9_b_1229_528)"><rect x="247" y="284" width="38" height="3" rx="1.5" fill="#3D3D41"></rect></g><g opacity="0.5" filter="url(#filter10_b_1229_528)"><rect x="247" y="292" width="29" height="3" rx="1.5" fill="#3D3D41"></rect></g><g opacity="0.5" filter="url(#filter11_b_1229_528)"><path d="M418.671 151H346.329C340.625 151 336 155.694 336 161.484V302.516C336 308.306 340.625 313 346.329 313H418.671C424.375 313 429 308.306 429 302.516V161.484C429 155.694 424.375 151 418.671 151Z" fill="#2C2A30"></path></g><g opacity="0.9" filter="url(#filter12_b_1229_528)"><path d="M359 196C359 192.691 361.691 190 365 190H401C404.309 190 407 192.691 407 196V226C407 229.309 404.309 232 401 232H365C361.691 232 359 229.309 359 226V196ZM389.356 205.984C388.934 205.366 388.241 205 387.5 205C386.759 205 386.056 205.366 385.644 205.984L377.487 217.947L375.003 214.844C374.572 214.309 373.925 214 373.25 214C372.575 214 371.919 214.309 371.497 214.844L365.497 222.344C364.953 223.019 364.85 223.947 365.225 224.725C365.6 225.503 366.387 226 367.25 226H398.75C399.584 226 400.353 225.541 400.738 224.8C401.122 224.059 401.075 223.169 400.606 222.484L389.356 205.984ZM369.5 205C370.693 205 371.838 204.526 372.682 203.682C373.526 202.838 374 201.693 374 200.5C374 199.307 373.526 198.162 372.682 197.318C371.838 196.474 370.693 196 369.5 196C368.307 196 367.162 196.474 366.318 197.318C365.474 198.162 365 199.307 365 200.5C365 201.693 365.474 202.838 366.318 203.682C367.162 204.526 368.307 205 369.5 205Z" fill="#313034"></path></g><g opacity="0.5" filter="url(#filter13_b_1229_528)"><rect x="350" y="276" width="28" height="3" rx="1.5" fill="#3D3D41"></rect></g><g opacity="0.5" filter="url(#filter14_b_1229_528)"><rect x="350" y="284" width="38" height="3" rx="1.5" fill="#3D3D41"></rect></g><g opacity="0.5" filter="url(#filter15_b_1229_528)"><rect x="350" y="292" width="29" height="3" rx="1.5" fill="#3D3D41"></rect></g><circle cx="126" cy="110" r="4" fill="#2E2E30"></circle><circle cx="138" cy="110" r="4" fill="#2E2E30"></circle><circle cx="150" cy="110" r="4" fill="#2E2E30"></circle><g clip-path="url(#clip1_1229_528)"><g opacity="0.9" filter="url(#filter16_b_1229_528)"><path d="M475.004 202H390.996C384.371 202 379 207.36 379 213.972V375.028C379 381.64 384.371 387 390.996 387H475.004C481.629 387 487 381.64 487 375.028V213.972C487 207.36 481.629 202 475.004 202Z" fill="url(#paint0_linear_1229_528)"></path></g><g filter="url(#filter17_b_1229_528)"><path d="M459.879 255.694H406.109C399.484 255.694 394.113 261.054 394.113 267.667V321.334C394.113 327.946 399.484 333.306 406.109 333.306H459.879C466.504 333.306 471.875 327.946 471.875 321.334V267.667C471.875 261.054 466.504 255.694 459.879 255.694Z" fill="url(#paint1_linear_1229_528)"></path></g><path d="M432.51 316C428.257 316.002 424.098 314.742 420.561 312.381C417.024 310.019 414.267 306.661 412.638 302.732C411.01 298.803 410.583 294.479 411.413 290.308C412.242 286.136 414.29 282.305 417.297 279.297C420.305 276.29 424.136 274.242 428.308 273.413C432.479 272.583 436.803 273.01 440.732 274.638C444.661 276.267 448.019 279.024 450.381 282.561C452.742 286.098 454.002 290.257 454 294.51C453.992 300.207 451.726 305.669 447.697 309.697C443.669 313.726 438.207 315.992 432.51 316ZM432.51 276.984C429.042 276.984 425.651 278.013 422.768 279.94C419.884 281.866 417.637 284.605 416.309 287.809C414.982 291.013 414.635 294.539 415.312 297.94C415.988 301.342 417.658 304.466 420.111 306.919C422.563 309.371 425.687 311.041 429.089 311.718C432.49 312.394 436.016 312.047 439.22 310.72C442.424 309.393 445.163 307.145 447.09 304.261C449.016 301.378 450.045 297.988 450.045 294.519C450.045 289.869 448.197 285.409 444.909 282.12C441.62 278.832 437.16 276.984 432.51 276.984Z" fill="#00BF68"></path><path d="M431.039 302L424 295.509L426.949 292L430.628 295.394L437.631 287L441 290.078L431.039 302Z" fill="#00BF68"></path><path opacity="0.15" d="M448.39 210H423.61C423.186 210 422.779 209.843 422.477 209.564C422.176 209.285 422.005 208.905 422 208.508C422 208.108 422.17 207.725 422.471 207.442C422.773 207.159 423.183 207 423.61 207H448.39C448.817 207 449.227 207.159 449.529 207.442C449.83 207.725 450 208.108 450 208.508C449.995 208.905 449.824 209.285 449.523 209.564C449.221 209.843 448.814 210 448.39 210Z" fill="white"></path></g><rect x="72" y="140" width="129" height="129" rx="16" fill="#121015" fill-opacity="0.9"></rect><g filter="url(#filter18_b_1229_528)"><path d="M96.5 173H104C105.287 173 106.291 173.823 106.549 175.11L108.962 186.5V186.564L110.957 195.863L116.041 219.897C116.781 223.436 119.934 225.977 123.538 225.977H153.72C154.377 225.977 155.007 225.716 155.471 225.252C155.936 224.787 156.197 224.157 156.197 223.5C156.197 222.843 155.936 222.213 155.471 221.748C155.007 221.284 154.377 221.023 153.72 221.023H123.538C122.251 221.023 121.125 220.122 120.867 218.835L120 215C121 215 121.356 215 122 215H154C157.958 215 161.249 212.561 162.053 208.7L167.942 181.095C168.027 180.715 168.019 180.321 167.918 179.946C167.817 179.57 167.626 179.225 167.362 178.939C167.105 178.646 166.78 178.42 166.416 178.28C166.051 178.139 165.659 178.09 165.271 178.135L113.306 183.347L111.343 174.113C110.635 170.574 107.45 168 103.846 168H96.4454C95.094 168 94 169.094 94 170.477C94 171.861 95.1164 173 96.5 173ZM147.863 242C148.826 242 149.78 241.811 150.67 241.443C151.56 241.075 152.368 240.535 153.05 239.855C153.731 239.174 154.271 238.366 154.64 237.477C155.009 236.587 155.199 235.634 155.2 234.671C155.2 233.708 155.011 232.754 154.643 231.865C154.275 230.975 153.735 230.166 153.054 229.485C152.374 228.804 151.565 228.263 150.676 227.895C149.786 227.526 148.833 227.336 147.87 227.335C145.925 227.334 144.059 228.106 142.684 229.48C141.308 230.855 140.534 232.72 140.534 234.664C140.533 236.609 141.305 238.474 142.679 239.85C144.054 241.226 145.919 241.999 147.863 242ZM125.372 242C127.318 242 129.184 241.227 130.56 239.851C131.935 238.476 132.708 236.61 132.708 234.664C132.708 232.719 131.935 230.853 130.56 229.477C129.184 228.102 127.318 227.329 125.372 227.329C123.426 227.329 121.56 228.102 120.185 229.477C118.809 230.853 118.036 232.719 118.036 234.664C118.036 236.61 118.809 238.476 120.185 239.851C121.56 241.227 123.426 242 125.372 242Z" fill="url(#paint2_linear_1229_528)"></path></g><g filter="url(#filter19_f_1229_528)"><circle cx="188.5" cy="142.5" r="77.5" fill="#02AF5F" fill-opacity="0.5"></circle></g></g><defs><filter id="filter0_b_1229_528" x="86" y="73" width="382" height="288" filterUnits="userSpaceOnUse" color-interpolation-filters="sRGB"><feFlood flood-opacity="0" result="BackgroundImageFix"></feFlood><feGaussianBlur in="BackgroundImageFix" stdDeviation="10"></feGaussianBlur><feComposite in2="SourceAlpha" operator="in" result="effect1_backgroundBlur_1229_528"></feComposite><feBlend mode="normal" in="SourceGraphic" in2="effect1_backgroundBlur_1229_528" result="shape"></feBlend></filter><filter id="filter1_b_1229_528" x="110" y="131" width="133" height="202" filterUnits="userSpaceOnUse" color-interpolation-filters="sRGB"><feFlood flood-opacity="0" result="BackgroundImageFix"></feFlood><feGaussianBlur in="BackgroundImageFix" stdDeviation="10"></feGaussianBlur><feComposite in2="SourceAlpha" operator="in" result="effect1_backgroundBlur_1229_528"></feComposite><feBlend mode="normal" in="SourceGraphic" in2="effect1_backgroundBlur_1229_528" result="shape"></feBlend></filter><filter id="filter2_b_1229_528" x="133" y="170" width="88" height="82" filterUnits="userSpaceOnUse" color-interpolation-filters="sRGB"><feFlood flood-opacity="0" result="BackgroundImageFix"></feFlood><feGaussianBlur in="BackgroundImageFix" stdDeviation="10"></feGaussianBlur><feComposite in2="SourceAlpha" operator="in" result="effect1_backgroundBlur_1229_528"></feComposite><feBlend mode="normal" in="SourceGraphic" in2="effect1_backgroundBlur_1229_528" result="shape"></feBlend></filter><filter id="filter3_b_1229_528" x="124" y="256" width="68" height="43" filterUnits="userSpaceOnUse" color-interpolation-filters="sRGB"><feFlood flood-opacity="0" result="BackgroundImageFix"></feFlood><feGaussianBlur in="BackgroundImageFix" stdDeviation="10"></feGaussianBlur><feComposite in2="SourceAlpha" operator="in" result="effect1_backgroundBlur_1229_528"></feComposite><feBlend mode="normal" in="SourceGraphic" in2="effect1_backgroundBlur_1229_528" result="shape"></feBlend></filter><filter id="filter4_b_1229_528" x="124" y="264" width="78" height="43" filterUnits="userSpaceOnUse" color-interpolation-filters="sRGB"><feFlood flood-opacity="0" result="BackgroundImageFix"></feFlood><feGaussianBlur in="BackgroundImageFix" stdDeviation="10"></feGaussianBlur><feComposite in2="SourceAlpha" operator="in" result="effect1_backgroundBlur_1229_528"></feComposite><feBlend mode="normal" in="SourceGraphic" in2="effect1_backgroundBlur_1229_528" result="shape"></feBlend></filter><filter id="filter5_b_1229_528" x="124" y="272" width="69" height="43" filterUnits="userSpaceOnUse" color-interpolation-filters="sRGB"><feFlood flood-opacity="0" result="BackgroundImageFix"></feFlood><feGaussianBlur in="BackgroundImageFix" stdDeviation="10"></feGaussianBlur><feComposite in2="SourceAlpha" operator="in" result="effect1_backgroundBlur_1229_528"></feComposite><feBlend mode="normal" in="SourceGraphic" in2="effect1_backgroundBlur_1229_528" result="shape"></feBlend></filter><filter id="filter6_b_1229_528" x="213" y="131" width="133" height="202" filterUnits="userSpaceOnUse" color-interpolation-filters="sRGB"><feFlood flood-opacity="0" result="BackgroundImageFix"></feFlood><feGaussianBlur in="BackgroundImageFix" stdDeviation="10"></feGaussianBlur><feComposite in2="SourceAlpha" operator="in" result="effect1_backgroundBlur_1229_528"></feComposite><feBlend mode="normal" in="SourceGraphic" in2="effect1_backgroundBlur_1229_528" result="shape"></feBlend></filter><filter id="filter7_b_1229_528" x="236" y="170" width="88" height="82" filterUnits="userSpaceOnUse" color-interpolation-filters="sRGB"><feFlood flood-opacity="0" result="BackgroundImageFix"></feFlood><feGaussianBlur in="BackgroundImageFix" stdDeviation="10"></feGaussianBlur><feComposite in2="SourceAlpha" operator="in" result="effect1_backgroundBlur_1229_528"></feComposite><feBlend mode="normal" in="SourceGraphic" in2="effect1_backgroundBlur_1229_528" result="shape"></feBlend></filter><filter id="filter8_b_1229_528" x="227" y="256" width="68" height="43" filterUnits="userSpaceOnUse" color-interpolation-filters="sRGB"><feFlood flood-opacity="0" result="BackgroundImageFix"></feFlood><feGaussianBlur in="BackgroundImageFix" stdDeviation="10"></feGaussianBlur><feComposite in2="SourceAlpha" operator="in" result="effect1_backgroundBlur_1229_528"></feComposite><feBlend mode="normal" in="SourceGraphic" in2="effect1_backgroundBlur_1229_528" result="shape"></feBlend></filter><filter id="filter9_b_1229_528" x="227" y="264" width="78" height="43" filterUnits="userSpaceOnUse" color-interpolation-filters="sRGB"><feFlood flood-opacity="0" result="BackgroundImageFix"></feFlood><feGaussianBlur in="BackgroundImageFix" stdDeviation="10"></feGaussianBlur><feComposite in2="SourceAlpha" operator="in" result="effect1_backgroundBlur_1229_528"></feComposite><feBlend mode="normal" in="SourceGraphic" in2="effect1_backgroundBlur_1229_528" result="shape"></feBlend></filter><filter id="filter10_b_1229_528" x="227" y="272" width="69" height="43" filterUnits="userSpaceOnUse" color-interpolation-filters="sRGB"><feFlood flood-opacity="0" result="BackgroundImageFix"></feFlood><feGaussianBlur in="BackgroundImageFix" stdDeviation="10"></feGaussianBlur><feComposite in2="SourceAlpha" operator="in" result="effect1_backgroundBlur_1229_528"></feComposite><feBlend mode="normal" in="SourceGraphic" in2="effect1_backgroundBlur_1229_528" result="shape"></feBlend></filter><filter id="filter11_b_1229_528" x="316" y="131" width="133" height="202" filterUnits="userSpaceOnUse" color-interpolation-filters="sRGB"><feFlood flood-opacity="0" result="BackgroundImageFix"></feFlood><feGaussianBlur in="BackgroundImageFix" stdDeviation="10"></feGaussianBlur><feComposite in2="SourceAlpha" operator="in" result="effect1_backgroundBlur_1229_528"></feComposite><feBlend mode="normal" in="SourceGraphic" in2="effect1_backgroundBlur_1229_528" result="shape"></feBlend></filter><filter id="filter12_b_1229_528" x="339" y="170" width="88" height="82" filterUnits="userSpaceOnUse" color-interpolation-filters="sRGB"><feFlood flood-opacity="0" result="BackgroundImageFix"></feFlood><feGaussianBlur in="BackgroundImageFix" stdDeviation="10"></feGaussianBlur><feComposite in2="SourceAlpha" operator="in" result="effect1_backgroundBlur_1229_528"></feComposite><feBlend mode="normal" in="SourceGraphic" in2="effect1_backgroundBlur_1229_528" result="shape"></feBlend></filter><filter id="filter13_b_1229_528" x="330" y="256" width="68" height="43" filterUnits="userSpaceOnUse" color-interpolation-filters="sRGB"><feFlood flood-opacity="0" result="BackgroundImageFix"></feFlood><feGaussianBlur in="BackgroundImageFix" stdDeviation="10"></feGaussianBlur><feComposite in2="SourceAlpha" operator="in" result="effect1_backgroundBlur_1229_528"></feComposite><feBlend mode="normal" in="SourceGraphic" in2="effect1_backgroundBlur_1229_528" result="shape"></feBlend></filter><filter id="filter14_b_1229_528" x="330" y="264" width="78" height="43" filterUnits="userSpaceOnUse" color-interpolation-filters="sRGB"><feFlood flood-opacity="0" result="BackgroundImageFix"></feFlood><feGaussianBlur in="BackgroundImageFix" stdDeviation="10"></feGaussianBlur><feComposite in2="SourceAlpha" operator="in" result="effect1_backgroundBlur_1229_528"></feComposite><feBlend mode="normal" in="SourceGraphic" in2="effect1_backgroundBlur_1229_528" result="shape"></feBlend></filter><filter id="filter15_b_1229_528" x="330" y="272" width="69" height="43" filterUnits="userSpaceOnUse" color-interpolation-filters="sRGB"><feFlood flood-opacity="0" result="BackgroundImageFix"></feFlood><feGaussianBlur in="BackgroundImageFix" stdDeviation="10"></feGaussianBlur><feComposite in2="SourceAlpha" operator="in" result="effect1_backgroundBlur_1229_528"></feComposite><feBlend mode="normal" in="SourceGraphic" in2="effect1_backgroundBlur_1229_528" result="shape"></feBlend></filter><filter id="filter16_b_1229_528" x="359" y="182" width="148" height="225" filterUnits="userSpaceOnUse" color-interpolation-filters="sRGB"><feFlood flood-opacity="0" result="BackgroundImageFix"></feFlood><feGaussianBlur in="BackgroundImageFix" stdDeviation="10"></feGaussianBlur><feComposite in2="SourceAlpha" operator="in" result="effect1_backgroundBlur_1229_528"></feComposite><feBlend mode="normal" in="SourceGraphic" in2="effect1_backgroundBlur_1229_528" result="shape"></feBlend></filter><filter id="filter17_b_1229_528" x="374.113" y="235.694" width="117.762" height="117.612" filterUnits="userSpaceOnUse" color-interpolation-filters="sRGB"><feFlood flood-opacity="0" result="BackgroundImageFix"></feFlood><feGaussianBlur in="BackgroundImageFix" stdDeviation="10"></feGaussianBlur><feComposite in2="SourceAlpha" operator="in" result="effect1_backgroundBlur_1229_528"></feComposite><feBlend mode="normal" in="SourceGraphic" in2="effect1_backgroundBlur_1229_528" result="shape"></feBlend></filter><filter id="filter18_b_1229_528" x="74" y="148" width="114" height="114" filterUnits="userSpaceOnUse" color-interpolation-filters="sRGB"><feFlood flood-opacity="0" result="BackgroundImageFix"></feFlood><feGaussianBlur in="BackgroundImageFix" stdDeviation="10"></feGaussianBlur><feComposite in2="SourceAlpha" operator="in" result="effect1_backgroundBlur_1229_528"></feComposite><feBlend mode="normal" in="SourceGraphic" in2="effect1_backgroundBlur_1229_528" result="shape"></feBlend></filter><filter id="filter19_f_1229_528" x="11" y="-35" width="355" height="355" filterUnits="userSpaceOnUse" color-interpolation-filters="sRGB"><feFlood flood-opacity="0" result="BackgroundImageFix"></feFlood><feBlend mode="normal" in="SourceGraphic" in2="BackgroundImageFix" result="shape"></feBlend><feGaussianBlur stdDeviation="50" result="effect1_foregroundBlur_1229_528"></feGaussianBlur></filter><linearGradient id="paint0_linear_1229_528" x1="491.685" y1="183.234" x2="310.702" y2="293.913" gradientUnits="userSpaceOnUse"><stop stop-color="#02AF5F"></stop><stop offset="1" stop-color="#014928" stop-opacity="0"></stop></linearGradient><linearGradient id="paint1_linear_1229_528" x1="475.248" y1="247.821" x2="390.054" y2="337.239" gradientUnits="userSpaceOnUse"><stop stop-color="#02AF5F"></stop><stop offset="1" stop-color="#014928" stop-opacity="0"></stop></linearGradient><linearGradient id="paint2_linear_1229_528" x1="171.21" y1="160.494" x2="89.9729" y2="245.593" gradientUnits="userSpaceOnUse"><stop stop-color="#02AF5F"></stop><stop offset="1" stop-color="#014928" stop-opacity="0"></stop></linearGradient><clipPath id="clip0_1229_528"><rect width="560" height="480" fill="white"></rect></clipPath><clipPath id="clip1_1229_528"><rect width="108" height="185" fill="white" transform="translate(379 202)"></rect></clipPath></defs></svg> 