<?xml version="1.0" encoding="UTF-8"?> <svg xmlns="http://www.w3.org/2000/svg" width="80" height="80" viewBox="0 0 80 80" fill="none"><rect width="80" height="80" rx="16" fill="#28252C"></rect><g opacity="0.9" filter="url(#filter0_b_1202_2316)"><circle cx="40" cy="40" r="10" fill="url(#paint0_linear_1202_2316)"></circle></g><g opacity="0.9" filter="url(#filter1_b_1202_2316)"><path d="M41.5418 60.9895C41.499 60.9824 41.4556 60.9788 41.4123 60.9788H38.5414C37.9681 60.9985 37.3967 60.9048 36.8599 60.7029C36.323 60.5009 35.8314 60.1947 35.4132 59.802C34.9951 59.4093 34.6587 58.9379 34.4234 58.4147C34.1882 57.8915 34.0586 57.3269 34.0423 56.7534V56.6478C33.999 55.6201 33.5629 54.6482 32.824 53.9327C32.085 53.2172 31.0996 52.8127 30.0712 52.8028C29.4042 52.7805 28.7447 52.9491 28.1702 53.2888C27.4759 53.7086 26.679 53.9279 25.8677 53.9225C25.1031 53.9261 24.3504 53.7339 23.6811 53.3641C23.0119 52.9942 22.4485 52.4592 22.0445 51.8099L20.566 49.2746C20.1952 48.6323 20 47.9036 20 47.1619C20 46.4202 20.1952 45.6916 20.566 45.0493C20.9803 44.3526 21.5703 43.7771 22.2769 43.3803C22.8512 43.0658 23.3265 42.5976 23.6499 42.0282C24.158 41.1611 24.3023 40.1281 24.0512 39.1549C23.9253 38.6522 23.6996 38.1799 23.3875 37.7662C23.0754 37.3524 22.6834 37.0056 22.2347 36.7465C21.7322 36.4779 21.2892 36.1104 20.9324 35.6661C20.5755 35.2219 20.3122 34.71 20.1583 34.1613C20.0044 33.6127 19.9631 33.0385 20.0367 32.4734C20.1081 31.9259 20.2861 31.3978 20.5604 30.919C20.5777 30.8889 20.5871 30.8549 20.5871 30.8202C20.5871 30.7857 20.5962 30.7519 20.6136 30.7221L22.0445 28.2746C22.6438 27.2607 23.6182 26.5238 24.7568 26.2233C25.8954 25.9227 27.1065 26.0828 28.1279 26.669C28.7119 26.9849 29.3649 27.1519 30.0289 27.1549C30.7286 27.1467 31.4153 26.9648 32.0273 26.6256C32.6394 26.2863 33.1575 25.8003 33.5353 25.2113C33.8906 24.6581 34.0676 24.0091 34.0423 23.3521C34.0023 22.5594 34.2169 21.7746 34.6548 21.1127C35.0668 20.4758 35.6291 19.9499 36.2921 19.5815C36.9551 19.2131 37.6986 19.0134 38.4569 19H41.4775C42.2437 19.0027 42.9971 19.1975 43.6687 19.5665C44.3403 19.9356 44.9087 20.4672 45.3218 21.1127C45.7383 21.7825 45.9375 22.5647 45.8921 23.3521C45.8668 24.0091 46.0437 24.6581 46.399 25.2113C46.7788 25.8033 47.3003 26.2911 47.9163 26.6305C48.5323 26.9699 49.2233 27.1502 49.9265 27.1549C50.5906 27.1519 51.2435 26.9849 51.8276 26.669C52.8458 26.0839 54.0537 25.9243 55.1888 26.225C56.3239 26.5256 57.2946 27.2622 57.8898 28.2746L59.3262 30.7676C59.6284 31.2452 59.8318 31.7786 59.9242 32.3362C60.0166 32.8938 59.9963 33.4643 59.8643 34.0139C59.7323 34.5636 59.4915 35.0812 59.1559 35.536C58.8373 35.9679 58.4395 36.335 57.984 36.6177C57.9365 36.6472 57.8814 36.662 57.8255 36.662C57.7708 36.662 57.7169 36.6762 57.6701 36.7046C57.2513 36.9586 56.8844 37.2901 56.5891 37.6816C56.277 38.0953 56.0513 38.5676 55.9254 39.0704C55.6806 40.0463 55.8326 41.0796 56.3479 41.9437C56.657 42.5166 57.1269 42.9865 57.6997 43.2957C58.4139 43.6974 59.0165 44.2712 59.4529 44.9648C59.8117 45.6111 60 46.3382 60 47.0775C60 47.8168 59.8117 48.5438 59.4529 49.1902L57.9321 51.7253C57.6396 52.229 57.2503 52.6699 56.7867 53.0225C56.323 53.3751 55.7943 53.6325 55.2308 53.7798C54.6673 53.9271 54.0801 53.9614 53.5033 53.8808C52.9265 53.8001 52.3714 53.606 51.8699 53.3098C51.2944 52.9723 50.6355 52.8039 49.9688 52.8239C48.9367 52.8284 47.946 53.2305 47.2025 53.9465C46.4591 54.6626 46.0201 55.6376 45.9766 56.669C45.9738 57.2405 45.8585 57.806 45.6373 58.3329C45.416 58.8599 45.0932 59.3381 44.6872 59.7403C44.2812 60.1424 43.8 60.4607 43.271 60.6768C42.7615 60.885 42.2174 60.9945 41.6675 60.9998C41.6254 61.0002 41.5833 60.9965 41.5418 60.9895ZM40.02 33.8944C38.4158 33.8775 36.8703 34.4972 35.7221 35.6179C34.5739 36.7386 33.9167 38.2687 33.8944 39.8732C33.8934 40.6622 34.052 41.4432 34.3605 42.1694C34.6691 42.8955 35.1213 43.5517 35.6898 44.0985C36.8497 45.2225 38.4051 45.8448 40.02 45.8309C41.2018 45.836 42.3583 45.4893 43.3425 44.835C44.3267 44.1807 45.0941 43.2483 45.547 42.1566C46 41.0648 46.118 39.863 45.886 38.704C45.6541 37.545 45.0827 36.4811 44.2445 35.6478C43.1076 34.5257 41.575 33.896 39.9778 33.8944H40.02Z" fill="url(#paint1_linear_1202_2316)"></path></g><defs><filter id="filter0_b_1202_2316" x="10" y="10" width="60" height="60" filterUnits="userSpaceOnUse" color-interpolation-filters="sRGB"><feFlood flood-opacity="0" result="BackgroundImageFix"></feFlood><feGaussianBlur in="BackgroundImageFix" stdDeviation="10"></feGaussianBlur><feComposite in2="SourceAlpha" operator="in" result="effect1_backgroundBlur_1202_2316"></feComposite><feBlend mode="normal" in="SourceGraphic" in2="effect1_backgroundBlur_1202_2316" result="shape"></feBlend></filter><filter id="filter1_b_1202_2316" x="0" y="-1" width="80" height="81.9999" filterUnits="userSpaceOnUse" color-interpolation-filters="sRGB"><feFlood flood-opacity="0" result="BackgroundImageFix"></feFlood><feGaussianBlur in="BackgroundImageFix" stdDeviation="10"></feGaussianBlur><feComposite in2="SourceAlpha" operator="in" result="effect1_backgroundBlur_1202_2316"></feComposite><feBlend mode="normal" in="SourceGraphic" in2="effect1_backgroundBlur_1202_2316" result="shape"></feBlend></filter><linearGradient id="paint0_linear_1202_2316" x1="50.8676" y1="27.9712" x2="28.9116" y2="50.9712" gradientUnits="userSpaceOnUse"><stop stop-color="#02AF5F" stop-opacity="0.9"></stop><stop offset="1" stop-color="#014928" stop-opacity="0"></stop></linearGradient><linearGradient id="paint1_linear_1202_2316" x1="61.7352" y1="14.7396" x2="15.578" y2="60.7891" gradientUnits="userSpaceOnUse"><stop stop-color="#02AF5F"></stop><stop offset="1" stop-color="#014928" stop-opacity="0"></stop></linearGradient></defs></svg> 