<?xml version="1.0" encoding="UTF-8"?> <svg xmlns="http://www.w3.org/2000/svg" width="140" height="140" viewBox="0 0 140 140" fill="none"><g clip-path="url(#clip0_1237_1796)"><g opacity="0.7" filter="url(#filter0_b_1237_1796)"><path d="M99.7309 72.1355C99.7309 73.7624 100.072 75.2072 100.753 76.4699C101.434 77.7326 102.371 78.7282 103.564 79.4566C104.756 80.1851 106.143 80.5493 107.725 80.5493C109.307 80.5493 110.694 80.1851 111.887 79.4566C113.079 78.7282 114.004 77.7326 114.661 76.4699C115.343 75.2072 115.683 73.7624 115.683 72.1355C115.683 70.5086 115.355 69.0638 114.698 67.8012C114.041 66.5385 113.116 65.5429 111.923 64.8144C110.731 64.086 109.332 63.7217 107.725 63.7217C106.143 63.7217 104.756 64.086 103.564 64.8144C102.371 65.5429 101.434 66.5385 100.753 67.8012C100.072 69.0638 99.7309 70.5086 99.7309 72.1355ZM94.2188 72.1355C94.2188 70.193 94.5595 68.4204 95.2409 66.8177C95.9223 65.1908 96.8714 63.7825 98.0882 62.5926C99.305 61.4028 100.729 60.4922 102.359 59.8609C104.014 59.2053 105.803 58.8774 107.725 58.8774C109.672 58.8774 111.461 59.2053 113.091 59.8609C114.722 60.4922 116.146 61.4028 117.362 62.5926C118.604 63.7825 119.553 65.1908 120.21 66.8177C120.891 68.4204 121.232 70.193 121.232 72.1355C121.232 74.0538 120.891 75.8386 120.21 77.4898C119.553 79.1167 118.616 80.5372 117.399 81.7513C116.206 82.9654 114.783 83.9124 113.128 84.5923C111.497 85.2479 109.697 85.5757 107.725 85.5757C105.754 85.5757 103.941 85.2479 102.286 84.5923C100.656 83.9124 99.232 82.9654 98.0152 81.7513C96.7984 80.5372 95.8614 79.1167 95.2044 77.4898C94.5473 75.8386 94.2188 74.0538 94.2188 72.1355Z" fill="url(#paint0_linear_1237_1796)"></path></g><g opacity="0.7" filter="url(#filter1_b_1237_1796)"><path d="M78.8228 75.4136V71.2614H91.4168C91.4898 73.204 91.2586 75.0373 90.7232 76.7613C90.2121 78.4853 89.3969 80.0151 88.2774 81.3506C87.1823 82.6619 85.8194 83.6939 84.1889 84.4466C82.5584 85.1994 80.6967 85.5757 78.6038 85.5757C76.6325 85.5757 74.8073 85.2479 73.1281 84.5923C71.4733 83.9367 70.0253 83.014 68.7841 81.8241C67.5673 80.6343 66.6182 79.2138 65.9368 77.5626C65.2797 75.9114 64.9512 74.1024 64.9512 72.1355C64.9512 70.1687 65.2919 68.3718 65.9733 66.7449C66.679 65.0937 67.6525 63.6853 68.8936 62.5198C70.1348 61.3542 71.5949 60.4558 73.2741 59.8244C74.9533 59.1931 76.7786 58.8774 78.7498 58.8774C80.502 58.8774 82.0717 59.1203 83.4588 59.6059C84.8703 60.0916 86.1115 60.7715 87.1823 61.6456C88.2774 62.4955 89.2143 63.5153 89.9931 64.7052L85.5396 67.2912C84.9068 66.1743 84.0186 65.2758 82.8748 64.5959C81.7553 63.8917 80.3803 63.5396 78.7498 63.5396C77.2166 63.5396 75.8173 63.8917 74.5518 64.5959C73.2863 65.2758 72.2764 66.2592 71.5219 67.5462C70.7919 68.8332 70.4268 70.3629 70.4268 72.1355C70.4268 73.8839 70.7919 75.4258 71.5219 76.7613C72.252 78.0725 73.2376 79.0924 74.4788 79.8209C75.7443 80.5493 77.1679 80.9136 78.7498 80.9136C79.7962 80.9136 80.7332 80.78 81.5606 80.5129C82.388 80.2215 83.0938 79.8209 83.6779 79.3109C84.2863 78.801 84.7973 78.2182 85.211 77.5626C85.6247 76.907 85.9411 76.1907 86.1601 75.4136H78.8228Z" fill="url(#paint1_linear_1237_1796)"></path></g><g opacity="0.7" filter="url(#filter2_b_1237_1796)"><path d="M40.8754 72.1355C40.8754 73.7624 41.2161 75.2072 41.8975 76.4699C42.579 77.7326 43.5159 78.7282 44.7084 79.4566C45.9008 80.1851 47.288 80.5493 48.8699 80.5493C50.4517 80.5493 51.8389 80.1851 53.0313 79.4566C54.2238 78.7282 55.1486 77.7326 55.8057 76.4699C56.4871 75.2072 56.8278 73.7624 56.8278 72.1355C56.8278 70.5086 56.4992 69.0638 55.8422 67.8012C55.1851 66.5385 54.2603 65.5429 53.0678 64.8144C51.8754 64.086 50.476 63.7217 48.8699 63.7217C47.288 63.7217 45.9008 64.086 44.7084 64.8144C43.5159 65.5429 42.579 66.5385 41.8975 67.8012C41.2161 69.0638 40.8754 70.5086 40.8754 72.1355ZM35.3633 72.1355C35.3633 70.193 35.704 68.4204 36.3854 66.8177C37.0668 65.1908 38.0159 63.7825 39.2327 62.5926C40.4495 61.4028 41.8732 60.4922 43.5037 59.8609C45.1586 59.2053 46.9473 58.8774 48.8699 58.8774C50.8168 58.8774 52.6055 59.2053 54.236 59.8609C55.8665 60.4922 57.2902 61.4028 58.507 62.5926C59.7481 63.7825 60.6972 65.1908 61.3543 66.8177C62.0357 68.4204 62.3764 70.193 62.3764 72.1355C62.3764 74.0538 62.0357 75.8386 61.3543 77.4898C60.6972 79.1167 59.7603 80.5372 58.5435 81.7513C57.351 82.9654 55.9273 83.9124 54.2725 84.5923C52.642 85.2479 50.8411 85.5757 48.8699 85.5757C46.8986 85.5757 45.0856 85.2479 43.4307 84.5923C41.8002 83.9124 40.3765 82.9654 39.1597 81.7513C37.9429 80.5372 37.006 79.1167 36.3489 77.4898C35.6918 75.8386 35.3633 74.0538 35.3633 72.1355Z" fill="url(#paint2_linear_1237_1796)"></path></g><g opacity="0.7" filter="url(#filter3_b_1237_1796)"><path d="M19.5332 59.3873H24.7533V80.3308H34.938V84.8837H19.5332V59.3873Z" fill="url(#paint3_linear_1237_1796)"></path></g><path fill-rule="evenodd" clip-rule="evenodd" d="M-21.0474 85.5342H-21.6992V84.8838H-21.0474C-20.8674 84.8838 -20.7214 85.0294 -20.7214 85.209C-20.7214 85.3886 -20.8674 85.5342 -21.0474 85.5342ZM-20.0696 85.209C-20.0696 85.0294 -19.9236 84.8838 -19.7436 84.8838H-18.4399C-18.2599 84.8838 -18.114 85.0294 -18.114 85.209C-18.114 85.3886 -18.2599 85.5342 -18.4399 85.5342H-19.7436C-19.9236 85.5342 -20.0696 85.3886 -20.0696 85.209ZM-17.4621 85.209C-17.4621 85.0294 -17.3162 84.8838 -17.1362 84.8838H-15.8325C-15.6525 84.8838 -15.5065 85.0294 -15.5065 85.209C-15.5065 85.3886 -15.6525 85.5342 -15.8325 85.5342H-17.1362C-17.3162 85.5342 -17.4621 85.3886 -17.4621 85.209ZM-14.8547 85.209C-14.8547 85.0294 -14.7087 84.8838 -14.5287 84.8838H-13.225C-13.045 84.8838 -12.8991 85.0294 -12.8991 85.209C-12.8991 85.3886 -13.045 85.5342 -13.225 85.5342H-14.5287C-14.7087 85.5342 -14.8547 85.3886 -14.8547 85.209ZM-12.2472 85.209C-12.2472 85.0294 -12.1013 84.8838 -11.9213 84.8838H-10.6176C-10.4376 84.8838 -10.2916 85.0294 -10.2916 85.209C-10.2916 85.3886 -10.4376 85.5342 -10.6176 85.5342H-11.9213C-12.1013 85.5342 -12.2472 85.3886 -12.2472 85.209ZM-9.63978 85.209C-9.63978 85.0294 -9.49385 84.8838 -9.31385 84.8838H-8.01012C-7.83012 84.8838 -7.68419 85.0294 -7.68419 85.209C-7.68419 85.3886 -7.83012 85.5342 -8.01012 85.5342H-9.31385C-9.49385 85.5342 -9.63978 85.3886 -9.63978 85.209ZM-7.03233 85.209C-7.03233 85.0294 -6.88641 84.8838 -6.7064 84.8838H-5.40268C-5.22267 84.8838 -5.07674 85.0294 -5.07674 85.209C-5.07674 85.3886 -5.22267 85.5342 -5.40268 85.5342H-6.7064C-6.88641 85.5342 -7.03233 85.3886 -7.03233 85.209ZM-4.42488 85.209C-4.42488 85.0294 -4.27896 84.8838 -4.09895 84.8838H-2.79523C-2.61522 84.8838 -2.4693 85.0294 -2.4693 85.209C-2.4693 85.3886 -2.61522 85.5342 -2.79523 85.5342H-4.09895C-4.27896 85.5342 -4.42488 85.3886 -4.42488 85.209ZM-1.81744 85.209C-1.81744 85.0294 -1.67151 84.8838 -1.49151 84.8838H-0.187784C-0.00777817 84.8838 0.138147 85.0294 0.138147 85.209C0.138147 85.3886 -0.00777817 85.5342 -0.187784 85.5342H-1.49151C-1.67151 85.5342 -1.81744 85.3886 -1.81744 85.209ZM0.790009 85.209C0.790009 85.0294 0.935934 84.8838 1.11594 84.8838H2.41966C2.59967 84.8838 2.74559 85.0294 2.74559 85.209C2.74559 85.3886 2.59967 85.5342 2.41966 85.5342H1.11594C0.935934 85.5342 0.790009 85.3886 0.790009 85.209ZM3.39746 85.209C3.39746 85.0294 3.54338 84.8838 3.72339 84.8838H5.02711C5.20712 84.8838 5.35304 85.0294 5.35304 85.209C5.35304 85.3886 5.20712 85.5342 5.02711 85.5342H3.72339C3.54338 85.5342 3.39746 85.3886 3.39746 85.209ZM6.0049 85.209C6.0049 85.0294 6.15083 84.8838 6.33083 84.8838H7.63456C7.81456 84.8838 7.96049 85.0294 7.96049 85.209C7.96049 85.3886 7.81456 85.5342 7.63456 85.5342H6.33083C6.15083 85.5342 6.0049 85.3886 6.0049 85.209ZM8.61235 85.209C8.61235 85.0294 8.75827 84.8838 8.93828 84.8838H10.242C10.422 84.8838 10.5679 85.0294 10.5679 85.209C10.5679 85.3886 10.422 85.5342 10.242 85.5342H8.93828C8.75827 85.5342 8.61235 85.3886 8.61235 85.209ZM11.2198 85.209C11.2198 85.0294 11.3657 84.8838 11.5457 84.8838H12.8494C13.0295 84.8838 13.1754 85.0294 13.1754 85.209C13.1754 85.3886 13.0295 85.5342 12.8494 85.5342H11.5457C11.3657 85.5342 11.2198 85.3886 11.2198 85.209ZM13.8272 85.209C13.8272 85.0294 13.9732 84.8838 14.1532 84.8838H15.4569C15.6369 84.8838 15.7828 85.0294 15.7828 85.209C15.7828 85.3886 15.6369 85.5342 15.4569 85.5342H14.1532C13.9732 85.5342 13.8272 85.3886 13.8272 85.209ZM16.4347 85.209C16.4347 85.0294 16.5806 84.8838 16.7606 84.8838H18.0643C18.2444 84.8838 18.3903 85.0294 18.3903 85.209C18.3903 85.3886 18.2444 85.5342 18.0643 85.5342H16.7606C16.5806 85.5342 16.4347 85.3886 16.4347 85.209ZM19.0421 85.209C19.0421 85.0294 19.1881 84.8838 19.3681 84.8838H20.6718C20.8518 84.8838 20.9977 85.0294 20.9977 85.209C20.9977 85.3886 20.8518 85.5342 20.6718 85.5342H19.3681C19.1881 85.5342 19.0421 85.3886 19.0421 85.209ZM21.6496 85.209C21.6496 85.0294 21.7955 84.8838 21.9755 84.8838H23.2792C23.4592 84.8838 23.6052 85.0294 23.6052 85.209C23.6052 85.3886 23.4592 85.5342 23.2792 85.5342H21.9755C21.7955 85.5342 21.6496 85.3886 21.6496 85.209ZM24.257 85.209C24.257 85.0294 24.403 84.8838 24.583 84.8838H25.8867C26.0667 84.8838 26.2126 85.0294 26.2126 85.209C26.2126 85.3886 26.0667 85.5342 25.8867 85.5342H24.583C24.403 85.5342 24.257 85.3886 24.257 85.209ZM26.8645 85.209C26.8645 85.0294 27.0104 84.8838 27.1904 84.8838H28.4941C28.6741 84.8838 28.8201 85.0294 28.8201 85.209C28.8201 85.3886 28.6741 85.5342 28.4941 85.5342H27.1904C27.0104 85.5342 26.8645 85.3886 26.8645 85.209ZM29.4719 85.209C29.4719 85.0294 29.6178 84.8838 29.7979 84.8838H31.1016C31.2816 84.8838 31.4275 85.0294 31.4275 85.209C31.4275 85.3886 31.2816 85.5342 31.1016 85.5342H29.7979C29.6178 85.5342 29.4719 85.3886 29.4719 85.209ZM32.0794 85.209C32.0794 85.0294 32.2253 84.8838 32.4053 84.8838H33.709C33.889 84.8838 34.035 85.0294 34.035 85.209C34.035 85.3886 33.889 85.5342 33.709 85.5342H32.4053C32.2253 85.5342 32.0794 85.3886 32.0794 85.209ZM34.6868 85.209C34.6868 85.0294 34.8327 84.8838 35.0127 84.8838H36.3165C36.4965 84.8838 36.6424 85.0294 36.6424 85.209C36.6424 85.3886 36.4965 85.5342 36.3165 85.5342H35.0127C34.8327 85.5342 34.6868 85.3886 34.6868 85.209ZM37.2943 85.209C37.2943 85.0294 37.4402 84.8838 37.6202 84.8838H38.9239C39.1039 84.8838 39.2498 85.0294 39.2498 85.209C39.2498 85.3886 39.1039 85.5342 38.9239 85.5342H37.6202C37.4402 85.5342 37.2943 85.3886 37.2943 85.209ZM39.9017 85.209C39.9017 85.0294 40.0476 84.8838 40.2276 84.8838H41.5314C41.7114 84.8838 41.8573 85.0294 41.8573 85.209C41.8573 85.3886 41.7114 85.5342 41.5314 85.5342H40.2276C40.0476 85.5342 39.9017 85.3886 39.9017 85.209ZM42.5092 85.209C42.5092 85.0294 42.6551 84.8838 42.8351 84.8838H44.1388C44.3188 84.8838 44.4647 85.0294 44.4647 85.209C44.4647 85.3886 44.3188 85.5342 44.1388 85.5342H42.8351C42.6551 85.5342 42.5092 85.3886 42.5092 85.209ZM45.1166 85.209C45.1166 85.0294 45.2625 84.8838 45.4425 84.8838H46.7463C46.9263 84.8838 47.0722 85.0294 47.0722 85.209C47.0722 85.3886 46.9263 85.5342 46.7463 85.5342H45.4425C45.2625 85.5342 45.1166 85.3886 45.1166 85.209ZM47.7241 85.209C47.7241 85.0294 47.87 84.8838 48.05 84.8838H49.3537C49.5337 84.8838 49.6796 85.0294 49.6796 85.209C49.6796 85.3886 49.5337 85.5342 49.3537 85.5342H48.05C47.87 85.5342 47.7241 85.3886 47.7241 85.209ZM50.3315 85.209C50.3315 85.0294 50.4774 84.8838 50.6574 84.8838H51.9612C52.1412 84.8838 52.2871 85.0294 52.2871 85.209C52.2871 85.3886 52.1412 85.5342 51.9612 85.5342H50.6574C50.4774 85.5342 50.3315 85.3886 50.3315 85.209ZM52.9389 85.209C52.9389 85.0294 53.0849 84.8838 53.2649 84.8838H54.5686C54.7486 84.8838 54.8945 85.0294 54.8945 85.209C54.8945 85.3886 54.7486 85.5342 54.5686 85.5342H53.2649C53.0849 85.5342 52.9389 85.3886 52.9389 85.209ZM55.5464 85.209C55.5464 85.0294 55.6923 84.8838 55.8723 84.8838H57.176C57.356 84.8838 57.502 85.0294 57.502 85.209C57.502 85.3886 57.356 85.5342 57.176 85.5342H55.8723C55.6923 85.5342 55.5464 85.3886 55.5464 85.209ZM58.1538 85.209C58.1538 85.0294 58.2998 84.8838 58.4798 84.8838H59.7835C59.9635 84.8838 60.1094 85.0294 60.1094 85.209C60.1094 85.3886 59.9635 85.5342 59.7835 85.5342H58.4798C58.2998 85.5342 58.1538 85.3886 58.1538 85.209ZM60.7613 85.209C60.7613 85.0294 60.9072 84.8838 61.0872 84.8838H62.3909C62.5709 84.8838 62.7169 85.0294 62.7169 85.209C62.7169 85.3886 62.5709 85.5342 62.3909 85.5342H61.0872C60.9072 85.5342 60.7613 85.3886 60.7613 85.209ZM63.3687 85.209C63.3687 85.0294 63.5147 84.8838 63.6947 84.8838H64.9984C65.1784 84.8838 65.3243 85.0294 65.3243 85.209C65.3243 85.3886 65.1784 85.5342 64.9984 85.5342H63.6947C63.5147 85.5342 63.3687 85.3886 63.3687 85.209ZM65.9762 85.209C65.9762 85.0294 66.1221 84.8838 66.3021 84.8838H67.6058C67.7858 84.8838 67.9318 85.0294 67.9318 85.209C67.9318 85.3886 67.7858 85.5342 67.6058 85.5342H66.3021C66.1221 85.5342 65.9762 85.3886 65.9762 85.209ZM68.5836 85.209C68.5836 85.0294 68.7295 84.8838 68.9096 84.8838H70.2133C70.3933 84.8838 70.5392 85.0294 70.5392 85.209C70.5392 85.3886 70.3933 85.5342 70.2133 85.5342H68.9096C68.7295 85.5342 68.5836 85.3886 68.5836 85.209ZM71.1911 85.209C71.1911 85.0294 71.337 84.8838 71.517 84.8838H72.8207C73.0007 84.8838 73.1467 85.0294 73.1467 85.209C73.1467 85.3886 73.0007 85.5342 72.8207 85.5342H71.517C71.337 85.5342 71.1911 85.3886 71.1911 85.209ZM73.7985 85.209C73.7985 85.0294 73.9444 84.8838 74.1244 84.8838H75.4282C75.6082 84.8838 75.7541 85.0294 75.7541 85.209C75.7541 85.3886 75.6082 85.5342 75.4282 85.5342H74.1244C73.9444 85.5342 73.7985 85.3886 73.7985 85.209ZM76.406 85.209C76.406 85.0294 76.5519 84.8838 76.7319 84.8838H78.0356C78.2156 84.8838 78.3615 85.0294 78.3615 85.209C78.3615 85.3886 78.2156 85.5342 78.0356 85.5342H76.7319C76.5519 85.5342 76.406 85.3886 76.406 85.209ZM79.0134 85.209C79.0134 85.0294 79.1593 84.8838 79.3393 84.8838H80.6431C80.8231 84.8838 80.969 85.0294 80.969 85.209C80.969 85.3886 80.8231 85.5342 80.6431 85.5342H79.3393C79.1593 85.5342 79.0134 85.3886 79.0134 85.209ZM81.6209 85.209C81.6209 85.0294 81.7668 84.8838 81.9468 84.8838H83.2505C83.4305 84.8838 83.5764 85.0294 83.5764 85.209C83.5764 85.3886 83.4305 85.5342 83.2505 85.5342H81.9468C81.7668 85.5342 81.6209 85.3886 81.6209 85.209ZM84.2283 85.209C84.2283 85.0294 84.3742 84.8838 84.5542 84.8838H85.858C86.038 84.8838 86.1839 85.0294 86.1839 85.209C86.1839 85.3886 86.038 85.5342 85.858 85.5342H84.5542C84.3742 85.5342 84.2283 85.3886 84.2283 85.209ZM86.8357 85.209C86.8357 85.0294 86.9817 84.8838 87.1617 84.8838H88.4654C88.6454 84.8838 88.7913 85.0294 88.7913 85.209C88.7913 85.3886 88.6454 85.5342 88.4654 85.5342H87.1617C86.9817 85.5342 86.8357 85.3886 86.8357 85.209ZM89.4432 85.209C89.4432 85.0294 89.5891 84.8838 89.7691 84.8838H91.0729C91.2529 84.8838 91.3988 85.0294 91.3988 85.209C91.3988 85.3886 91.2529 85.5342 91.0729 85.5342H89.7691C89.5891 85.5342 89.4432 85.3886 89.4432 85.209ZM92.0506 85.209C92.0506 85.0294 92.1966 84.8838 92.3766 84.8838H93.6803C93.8603 84.8838 94.0062 85.0294 94.0062 85.209C94.0062 85.3886 93.8603 85.5342 93.6803 85.5342H92.3766C92.1966 85.5342 92.0506 85.3886 92.0506 85.209ZM94.6581 85.209C94.6581 85.0294 94.804 84.8838 94.984 84.8838H96.2878C96.4678 84.8838 96.6137 85.0294 96.6137 85.209C96.6137 85.3886 96.4678 85.5342 96.2878 85.5342H94.984C94.804 85.5342 94.6581 85.3886 94.6581 85.209ZM97.2655 85.209C97.2655 85.0294 97.4115 84.8838 97.5915 84.8838H98.8952C99.0752 84.8838 99.2211 85.0294 99.2211 85.209C99.2211 85.3886 99.0752 85.5342 98.8952 85.5342H97.5915C97.4115 85.5342 97.2655 85.3886 97.2655 85.209ZM99.873 85.209C99.873 85.0294 100.019 84.8838 100.199 84.8838H101.503C101.683 84.8838 101.829 85.0294 101.829 85.209C101.829 85.3886 101.683 85.5342 101.503 85.5342H100.199C100.019 85.5342 99.873 85.3886 99.873 85.209ZM102.48 85.209C102.48 85.0294 102.626 84.8838 102.806 84.8838H104.11C104.29 84.8838 104.436 85.0294 104.436 85.209C104.436 85.3886 104.29 85.5342 104.11 85.5342H102.806C102.626 85.5342 102.48 85.3886 102.48 85.209ZM105.088 85.209C105.088 85.0294 105.234 84.8838 105.414 84.8838H106.718C106.898 84.8838 107.043 85.0294 107.043 85.209C107.043 85.3886 106.898 85.5342 106.718 85.5342H105.414C105.234 85.5342 105.088 85.3886 105.088 85.209ZM107.695 85.209C107.695 85.0294 107.841 84.8838 108.021 84.8838H109.325C109.505 84.8838 109.651 85.0294 109.651 85.209C109.651 85.3886 109.505 85.5342 109.325 85.5342H108.021C107.841 85.5342 107.695 85.3886 107.695 85.209ZM110.303 85.209C110.303 85.0294 110.449 84.8838 110.629 84.8838H111.932C112.112 84.8838 112.258 85.0294 112.258 85.209C112.258 85.3886 112.112 85.5342 111.932 85.5342H110.629C110.449 85.5342 110.303 85.3886 110.303 85.209ZM112.91 85.209C112.91 85.0294 113.056 84.8838 113.236 84.8838H114.54C114.72 84.8838 114.866 85.0294 114.866 85.209C114.866 85.3886 114.72 85.5342 114.54 85.5342H113.236C113.056 85.5342 112.91 85.3886 112.91 85.209ZM115.518 85.209C115.518 85.0294 115.664 84.8838 115.844 84.8838H117.147C117.327 84.8838 117.473 85.0294 117.473 85.209C117.473 85.3886 117.327 85.5342 117.147 85.5342H115.844C115.664 85.5342 115.518 85.3886 115.518 85.209ZM118.125 85.209C118.125 85.0294 118.271 84.8838 118.451 84.8838H119.755C119.935 84.8838 120.081 85.0294 120.081 85.209C120.081 85.3886 119.935 85.5342 119.755 85.5342H118.451C118.271 85.5342 118.125 85.3886 118.125 85.209ZM120.733 85.209C120.733 85.0294 120.878 84.8838 121.059 84.8838H122.362C122.542 84.8838 122.688 85.0294 122.688 85.209C122.688 85.3886 122.542 85.5342 122.362 85.5342H121.059C120.878 85.5342 120.733 85.3886 120.733 85.209ZM123.34 85.209C123.34 85.0294 123.486 84.8838 123.666 84.8838H124.97C125.15 84.8838 125.296 85.0294 125.296 85.209C125.296 85.3886 125.15 85.5342 124.97 85.5342H123.666C123.486 85.5342 123.34 85.3886 123.34 85.209ZM125.947 85.209C125.947 85.0294 126.093 84.8838 126.273 84.8838H127.577C127.757 84.8838 127.903 85.0294 127.903 85.209C127.903 85.3886 127.757 85.5342 127.577 85.5342H126.273C126.093 85.5342 125.947 85.3886 125.947 85.209ZM128.555 85.209C128.555 85.0294 128.701 84.8838 128.881 84.8838H130.185C130.365 84.8838 130.51 85.0294 130.51 85.209C130.51 85.3886 130.365 85.5342 130.185 85.5342H128.881C128.701 85.5342 128.555 85.3886 128.555 85.209ZM131.162 85.209C131.162 85.0294 131.308 84.8838 131.488 84.8838H132.792C132.972 84.8838 133.118 85.0294 133.118 85.209C133.118 85.3886 132.972 85.5342 132.792 85.5342H131.488C131.308 85.5342 131.162 85.3886 131.162 85.209ZM133.77 85.209C133.77 85.0294 133.916 84.8838 134.096 84.8838H135.399C135.579 84.8838 135.725 85.0294 135.725 85.209C135.725 85.3886 135.579 85.5342 135.399 85.5342H134.096C133.916 85.5342 133.77 85.3886 133.77 85.209ZM136.377 85.209C136.377 85.0294 136.523 84.8838 136.703 84.8838H138.007C138.187 84.8838 138.333 85.0294 138.333 85.209C138.333 85.3886 138.187 85.5342 138.007 85.5342H136.703C136.523 85.5342 136.377 85.3886 136.377 85.209ZM138.985 85.209C138.985 85.0294 139.131 84.8838 139.311 84.8838H140.614C140.794 84.8838 140.94 85.0294 140.94 85.209C140.94 85.3886 140.794 85.5342 140.614 85.5342H139.311C139.131 85.5342 138.985 85.3886 138.985 85.209ZM141.592 85.209C141.592 85.0294 141.738 84.8838 141.918 84.8838H143.222C143.402 84.8838 143.548 85.0294 143.548 85.209C143.548 85.3886 143.402 85.5342 143.222 85.5342H141.918C141.738 85.5342 141.592 85.3886 141.592 85.209ZM144.2 85.209C144.2 85.0294 144.346 84.8838 144.526 84.8838H145.829C146.009 84.8838 146.155 85.0294 146.155 85.209C146.155 85.3886 146.009 85.5342 145.829 85.5342H144.526C144.346 85.5342 144.2 85.3886 144.2 85.209ZM146.807 85.209C146.807 85.0294 146.953 84.8838 147.133 84.8838H148.437C148.617 84.8838 148.763 85.0294 148.763 85.209C148.763 85.3886 148.617 85.5342 148.437 85.5342H147.133C146.953 85.5342 146.807 85.3886 146.807 85.209ZM149.414 85.209C149.414 85.0294 149.56 84.8838 149.74 84.8838H151.044C151.224 84.8838 151.37 85.0294 151.37 85.209C151.37 85.3886 151.224 85.5342 151.044 85.5342H149.74C149.56 85.5342 149.414 85.3886 149.414 85.209ZM152.022 85.209C152.022 85.0294 152.168 84.8838 152.348 84.8838H153.652C153.832 84.8838 153.977 85.0294 153.977 85.209C153.977 85.3886 153.832 85.5342 153.652 85.5342H152.348C152.168 85.5342 152.022 85.3886 152.022 85.209ZM154.629 85.209C154.629 85.0294 154.775 84.8838 154.955 84.8838H156.259C156.439 84.8838 156.585 85.0294 156.585 85.209C156.585 85.3886 156.439 85.5342 156.259 85.5342H154.955C154.775 85.5342 154.629 85.3886 154.629 85.209ZM157.237 85.209C157.237 85.0294 157.383 84.8838 157.563 84.8838H158.866C159.046 84.8838 159.192 85.0294 159.192 85.209C159.192 85.3886 159.046 85.5342 158.866 85.5342H157.563C157.383 85.5342 157.237 85.3886 157.237 85.209ZM159.844 85.209C159.844 85.0294 159.99 84.8838 160.17 84.8838H160.822V85.5342H160.17C159.99 85.5342 159.844 85.3886 159.844 85.209Z" fill="url(#paint4_linear_1237_1796)"></path><path fill-rule="evenodd" clip-rule="evenodd" d="M20.019 106.676V107.323H19.3672V106.676C19.3672 106.496 19.5131 106.35 19.6931 106.35C19.8731 106.35 20.019 106.496 20.019 106.676ZM19.6931 105.705C19.5131 105.705 19.3672 105.56 19.3672 105.38V104.085C19.3672 103.905 19.5131 103.76 19.6931 103.76C19.8731 103.76 20.019 103.905 20.019 104.085V105.38C20.019 105.56 19.8731 105.705 19.6931 105.705ZM19.6931 103.115C19.5131 103.115 19.3672 102.969 19.3672 102.79V101.495C19.3672 101.315 19.5131 101.169 19.6931 101.169C19.8731 101.169 20.019 101.315 20.019 101.495V102.79C20.019 102.969 19.8731 103.115 19.6931 103.115ZM19.6931 100.525C19.5131 100.525 19.3672 100.379 19.3672 100.199V98.9042C19.3672 98.7245 19.5131 98.5789 19.6931 98.5789C19.8731 98.5789 20.019 98.7245 20.019 98.9042V100.199C20.019 100.379 19.8731 100.525 19.6931 100.525ZM19.6931 97.9341C19.5131 97.9341 19.3672 97.7885 19.3672 97.6089V96.3137C19.3672 96.1341 19.5131 95.9885 19.6931 95.9885C19.8731 95.9885 20.019 96.1341 20.019 96.3137V97.6089C20.019 97.7885 19.8731 97.9341 19.6931 97.9341ZM19.6931 95.3437C19.5131 95.3437 19.3672 95.1981 19.3672 95.0185V93.7232C19.3672 93.5436 19.5131 93.398 19.6931 93.398C19.8731 93.398 20.019 93.5436 20.019 93.7232V95.0185C20.019 95.1981 19.8731 95.3437 19.6931 95.3437ZM19.6931 92.7532C19.5131 92.7532 19.3672 92.6076 19.3672 92.428V91.1328C19.3672 90.9532 19.5131 90.8076 19.6931 90.8076C19.8731 90.8076 20.019 90.9532 20.019 91.1328V92.428C20.019 92.6076 19.8731 92.7532 19.6931 92.7532ZM19.6931 90.1628C19.5131 90.1628 19.3672 90.0172 19.3672 89.8376V88.5423C19.3672 88.3627 19.5131 88.2171 19.6931 88.2171C19.8731 88.2171 20.019 88.3627 20.019 88.5423V89.8376C20.019 90.0172 19.8731 90.1628 19.6931 90.1628ZM19.6931 87.5723C19.5131 87.5723 19.3672 87.4267 19.3672 87.2471V85.9519C19.3672 85.7723 19.5131 85.6267 19.6931 85.6267C19.8731 85.6267 20.019 85.7723 20.019 85.9519V87.2471C20.019 87.4267 19.8731 87.5723 19.6931 87.5723ZM19.6931 84.9819C19.5131 84.9819 19.3672 84.8363 19.3672 84.6567V83.3614C19.3672 83.1818 19.5131 83.0362 19.6931 83.0362C19.8731 83.0362 20.019 83.1818 20.019 83.3614V84.6567C20.019 84.8363 19.8731 84.9819 19.6931 84.9819ZM19.6931 82.3914C19.5131 82.3914 19.3672 82.2458 19.3672 82.0662V80.771C19.3672 80.5914 19.5131 80.4458 19.6931 80.4458C19.8731 80.4458 20.019 80.5914 20.019 80.771V82.0662C20.019 82.2458 19.8731 82.3914 19.6931 82.3914ZM19.6931 79.801C19.5131 79.801 19.3672 79.6554 19.3672 79.4758L19.3672 78.1805C19.3672 78.0009 19.5131 77.8553 19.6931 77.8553C19.8731 77.8553 20.019 78.0009 20.019 78.1805V79.4758C20.019 79.6554 19.8731 79.801 19.6931 79.801ZM19.6931 77.2105C19.5131 77.2105 19.3672 77.0649 19.3672 76.8853V75.5901C19.3672 75.4105 19.5131 75.2649 19.6931 75.2649C19.8731 75.2649 20.019 75.4105 20.019 75.5901V76.8853C20.019 77.0649 19.8731 77.2105 19.6931 77.2105ZM19.6931 74.6201C19.5131 74.6201 19.3672 74.4745 19.3672 74.2949V72.9996C19.3672 72.82 19.5131 72.6744 19.6931 72.6744C19.8731 72.6744 20.019 72.82 20.019 72.9996V74.2949C20.019 74.4745 19.8731 74.6201 19.6931 74.6201ZM19.6931 72.0296C19.5131 72.0296 19.3672 71.884 19.3672 71.7044V70.4092C19.3672 70.2296 19.5131 70.084 19.6931 70.084C19.8731 70.084 20.019 70.2296 20.019 70.4092V71.7044C20.019 71.884 19.8731 72.0296 19.6931 72.0296ZM19.6931 69.4392C19.5131 69.4392 19.3672 69.2936 19.3672 69.114V67.8187C19.3672 67.6391 19.5131 67.4935 19.6931 67.4935C19.8731 67.4935 20.019 67.6391 20.019 67.8187V69.114C20.019 69.2936 19.8731 69.4392 19.6931 69.4392ZM19.6931 66.8487C19.5131 66.8487 19.3672 66.7031 19.3672 66.5235V65.2283C19.3672 65.0487 19.5131 64.9031 19.6931 64.9031C19.8731 64.9031 20.019 65.0487 20.019 65.2283V66.5235C20.019 66.7031 19.8731 66.8487 19.6931 66.8487ZM19.6931 64.2583C19.5131 64.2583 19.3672 64.1127 19.3672 63.933V62.6378C19.3672 62.4582 19.5131 62.3126 19.6931 62.3126C19.8731 62.3126 20.019 62.4582 20.019 62.6378V63.933C20.019 64.1127 19.8731 64.2583 19.6931 64.2583ZM19.6931 61.6678C19.5131 61.6678 19.3672 61.5222 19.3672 61.3426V60.0474C19.3672 59.8678 19.5131 59.7222 19.6931 59.7222C19.8731 59.7222 20.019 59.8678 20.019 60.0474V61.3426C20.019 61.5222 19.8731 61.6678 19.6931 61.6678ZM19.6931 59.0774C19.5131 59.0774 19.3672 58.9318 19.3672 58.7521V57.4569C19.3672 57.2773 19.5131 57.1317 19.6931 57.1317C19.8731 57.1317 20.019 57.2773 20.019 57.4569V58.7521C20.019 58.9318 19.8731 59.0774 19.6931 59.0774ZM19.6931 56.4869C19.5131 56.4869 19.3672 56.3413 19.3672 56.1617V54.8665C19.3672 54.6869 19.5131 54.5413 19.6931 54.5413C19.8731 54.5413 20.019 54.6869 20.019 54.8665V56.1617C20.019 56.3413 19.8731 56.4869 19.6931 56.4869ZM19.6931 53.8964C19.5131 53.8964 19.3672 53.7508 19.3672 53.5712V52.276C19.3672 52.0964 19.5131 51.9508 19.6931 51.9508C19.8731 51.9508 20.019 52.0964 20.019 52.276V53.5712C20.019 53.7508 19.8731 53.8964 19.6931 53.8964ZM19.6931 51.306C19.5131 51.306 19.3672 51.1604 19.3672 50.9808V49.6856C19.3672 49.506 19.5131 49.3604 19.6931 49.3604C19.8731 49.3604 20.019 49.506 20.019 49.6856V50.9808C20.019 51.1604 19.8731 51.306 19.6931 51.306ZM19.6931 48.7155C19.5131 48.7155 19.3672 48.5699 19.3672 48.3903V47.0951C19.3672 46.9155 19.5131 46.7699 19.6931 46.7699C19.8731 46.7699 20.019 46.9155 20.019 47.0951V48.3903C20.019 48.5699 19.8731 48.7155 19.6931 48.7155ZM19.6931 46.1251C19.5131 46.1251 19.3672 45.9795 19.3672 45.7999V44.5047C19.3672 44.3251 19.5131 44.1794 19.6931 44.1794C19.8731 44.1794 20.019 44.3251 20.019 44.5047V45.7999C20.019 45.9795 19.8731 46.1251 19.6931 46.1251ZM19.6931 43.5346C19.5131 43.5346 19.3672 43.389 19.3672 43.2094V41.9142C19.3672 41.7346 19.5131 41.589 19.6931 41.589C19.8731 41.589 20.019 41.7346 20.019 41.9142V43.2094C20.019 43.389 19.8731 43.5346 19.6931 43.5346ZM19.6931 40.9442C19.5131 40.9442 19.3672 40.7986 19.3672 40.619V39.3238C19.3672 39.1441 19.5131 38.9986 19.6931 38.9986C19.8731 38.9986 20.019 39.1441 20.019 39.3238V40.619C20.019 40.7986 19.8731 40.9442 19.6931 40.9442ZM19.6931 38.3537C19.5131 38.3537 19.3672 38.2081 19.3672 38.0285V36.7333C19.3672 36.5537 19.5131 36.4081 19.6931 36.4081C19.8731 36.4081 20.019 36.5537 20.019 36.7333V38.0285C20.019 38.2081 19.8731 38.3537 19.6931 38.3537ZM19.6931 35.7633C19.5131 35.7633 19.3672 35.6177 19.3672 35.4381V34.1429C19.3672 33.9632 19.5131 33.8176 19.6931 33.8176C19.8731 33.8176 20.019 33.9632 20.019 34.1429V35.4381C20.019 35.6177 19.8731 35.7633 19.6931 35.7633ZM19.6931 33.1728C19.5131 33.1728 19.3672 33.0272 19.3672 32.8476V32.2H20.019V32.8476C20.019 33.0272 19.8731 33.1728 19.6931 33.1728Z" fill="url(#paint5_linear_1237_1796)"></path><path fill-rule="evenodd" clip-rule="evenodd" d="M121.382 106.676V107.323H120.73V106.676C120.73 106.496 120.876 106.35 121.056 106.35C121.236 106.35 121.382 106.496 121.382 106.676ZM121.056 105.705C120.876 105.705 120.73 105.56 120.73 105.38V104.085C120.73 103.905 120.876 103.76 121.056 103.76C121.236 103.76 121.382 103.905 121.382 104.085V105.38C121.382 105.56 121.236 105.705 121.056 105.705ZM121.056 103.115C120.876 103.115 120.73 102.969 120.73 102.79V101.495C120.73 101.315 120.876 101.169 121.056 101.169C121.236 101.169 121.382 101.315 121.382 101.495V102.79C121.382 102.969 121.236 103.115 121.056 103.115ZM121.056 100.525C120.876 100.525 120.73 100.379 120.73 100.199V98.9042C120.73 98.7245 120.876 98.5789 121.056 98.5789C121.236 98.5789 121.382 98.7245 121.382 98.9042V100.199C121.382 100.379 121.236 100.525 121.056 100.525ZM121.056 97.9341C120.876 97.9341 120.73 97.7885 120.73 97.6089V96.3137C120.73 96.1341 120.876 95.9885 121.056 95.9885C121.236 95.9885 121.382 96.1341 121.382 96.3137V97.6089C121.382 97.7885 121.236 97.9341 121.056 97.9341ZM121.056 95.3437C120.876 95.3437 120.73 95.1981 120.73 95.0185V93.7232C120.73 93.5436 120.876 93.398 121.056 93.398C121.236 93.398 121.382 93.5436 121.382 93.7232V95.0185C121.382 95.1981 121.236 95.3437 121.056 95.3437ZM121.056 92.7532C120.876 92.7532 120.73 92.6076 120.73 92.428V91.1328C120.73 90.9532 120.876 90.8076 121.056 90.8076C121.236 90.8076 121.382 90.9532 121.382 91.1328V92.428C121.382 92.6076 121.236 92.7532 121.056 92.7532ZM121.056 90.1628C120.876 90.1628 120.73 90.0172 120.73 89.8376V88.5423C120.73 88.3627 120.876 88.2171 121.056 88.2171C121.236 88.2171 121.382 88.3627 121.382 88.5423V89.8376C121.382 90.0172 121.236 90.1628 121.056 90.1628ZM121.056 87.5723C120.876 87.5723 120.73 87.4267 120.73 87.2471V85.9519C120.73 85.7723 120.876 85.6267 121.056 85.6267C121.236 85.6267 121.382 85.7723 121.382 85.9519V87.2471C121.382 87.4267 121.236 87.5723 121.056 87.5723ZM121.056 84.9819C120.876 84.9819 120.73 84.8363 120.73 84.6567V83.3614C120.73 83.1818 120.876 83.0362 121.056 83.0362C121.236 83.0362 121.382 83.1818 121.382 83.3614V84.6567C121.382 84.8363 121.236 84.9819 121.056 84.9819ZM121.056 82.3914C120.876 82.3914 120.73 82.2458 120.73 82.0662V80.771C120.73 80.5914 120.876 80.4458 121.056 80.4458C121.236 80.4458 121.382 80.5914 121.382 80.771V82.0662C121.382 82.2458 121.236 82.3914 121.056 82.3914ZM121.056 79.801C120.876 79.801 120.73 79.6554 120.73 79.4758V78.1805C120.73 78.0009 120.876 77.8553 121.056 77.8553C121.236 77.8553 121.382 78.0009 121.382 78.1805V79.4758C121.382 79.6554 121.236 79.801 121.056 79.801ZM121.056 77.2105C120.876 77.2105 120.73 77.0649 120.73 76.8853V75.5901C120.73 75.4105 120.876 75.2649 121.056 75.2649C121.236 75.2649 121.382 75.4105 121.382 75.5901V76.8853C121.382 77.0649 121.236 77.2105 121.056 77.2105ZM121.056 74.6201C120.876 74.6201 120.73 74.4745 120.73 74.2949V72.9996C120.73 72.82 120.876 72.6744 121.056 72.6744C121.236 72.6744 121.382 72.82 121.382 72.9996V74.2949C121.382 74.4745 121.236 74.6201 121.056 74.6201ZM121.056 72.0296C120.876 72.0296 120.73 71.884 120.73 71.7044V70.4092C120.73 70.2296 120.876 70.084 121.056 70.084C121.236 70.084 121.382 70.2296 121.382 70.4092V71.7044C121.382 71.884 121.236 72.0296 121.056 72.0296ZM121.056 69.4392C120.876 69.4392 120.73 69.2936 120.73 69.114V67.8187C120.73 67.6391 120.876 67.4935 121.056 67.4935C121.236 67.4935 121.382 67.6391 121.382 67.8187V69.114C121.382 69.2936 121.236 69.4392 121.056 69.4392ZM121.056 66.8487C120.876 66.8487 120.73 66.7031 120.73 66.5235V65.2283C120.73 65.0487 120.876 64.9031 121.056 64.9031C121.236 64.9031 121.382 65.0487 121.382 65.2283V66.5235C121.382 66.7031 121.236 66.8487 121.056 66.8487ZM121.056 64.2583C120.876 64.2583 120.73 64.1127 120.73 63.933V62.6378C120.73 62.4582 120.876 62.3126 121.056 62.3126C121.236 62.3126 121.382 62.4582 121.382 62.6378V63.933C121.382 64.1127 121.236 64.2583 121.056 64.2583ZM121.056 61.6678C120.876 61.6678 120.73 61.5222 120.73 61.3426V60.0474C120.73 59.8678 120.876 59.7222 121.056 59.7222C121.236 59.7222 121.382 59.8678 121.382 60.0474V61.3426C121.382 61.5222 121.236 61.6678 121.056 61.6678ZM121.056 59.0774C120.876 59.0774 120.73 58.9318 120.73 58.7521V57.4569C120.73 57.2773 120.876 57.1317 121.056 57.1317C121.236 57.1317 121.382 57.2773 121.382 57.4569V58.7521C121.382 58.9318 121.236 59.0774 121.056 59.0774ZM121.056 56.4869C120.876 56.4869 120.73 56.3413 120.73 56.1617V54.8665C120.73 54.6869 120.876 54.5413 121.056 54.5413C121.236 54.5413 121.382 54.6869 121.382 54.8665V56.1617C121.382 56.3413 121.236 56.4869 121.056 56.4869ZM121.056 53.8964C120.876 53.8964 120.73 53.7508 120.73 53.5712V52.276C120.73 52.0964 120.876 51.9508 121.056 51.9508C121.236 51.9508 121.382 52.0964 121.382 52.276V53.5712C121.382 53.7508 121.236 53.8964 121.056 53.8964ZM121.056 51.306C120.876 51.306 120.73 51.1604 120.73 50.9808V49.6856C120.73 49.506 120.876 49.3604 121.056 49.3604C121.236 49.3604 121.382 49.506 121.382 49.6856V50.9808C121.382 51.1604 121.236 51.306 121.056 51.306ZM121.056 48.7155C120.876 48.7155 120.73 48.5699 120.73 48.3903V47.0951C120.73 46.9155 120.876 46.7699 121.056 46.7699C121.236 46.7699 121.382 46.9155 121.382 47.0951V48.3903C121.382 48.5699 121.236 48.7155 121.056 48.7155ZM121.056 46.1251C120.876 46.1251 120.73 45.9795 120.73 45.7999V44.5047C120.73 44.3251 120.876 44.1794 121.056 44.1794C121.236 44.1794 121.382 44.3251 121.382 44.5047V45.7999C121.382 45.9795 121.236 46.1251 121.056 46.1251ZM121.056 43.5346C120.876 43.5346 120.73 43.389 120.73 43.2094V41.9142C120.73 41.7346 120.876 41.589 121.056 41.589C121.236 41.589 121.382 41.7346 121.382 41.9142V43.2094C121.382 43.389 121.236 43.5346 121.056 43.5346ZM121.056 40.9442C120.876 40.9442 120.73 40.7986 120.73 40.619V39.3238C120.73 39.1441 120.876 38.9986 121.056 38.9986C121.236 38.9986 121.382 39.1441 121.382 39.3238V40.619C121.382 40.7986 121.236 40.9442 121.056 40.9442ZM121.056 38.3537C120.876 38.3537 120.73 38.2081 120.73 38.0285V36.7333C120.73 36.5537 120.876 36.4081 121.056 36.4081C121.236 36.4081 121.382 36.5537 121.382 36.7333V38.0285C121.382 38.2081 121.236 38.3537 121.056 38.3537ZM121.056 35.7633C120.876 35.7633 120.73 35.6177 120.73 35.4381V34.1429C120.73 33.9632 120.876 33.8176 121.056 33.8176C121.236 33.8176 121.382 33.9632 121.382 34.1429V35.4381C121.382 35.6177 121.236 35.7633 121.056 35.7633ZM121.056 33.1728C120.876 33.1728 120.73 33.0272 120.73 32.8476V32.2H121.382V32.8476C121.382 33.0272 121.236 33.1728 121.056 33.1728Z" fill="url(#paint6_linear_1237_1796)"></path><path fill-rule="evenodd" clip-rule="evenodd" d="M-20.7231 59.1923H-21.375V58.5419H-20.7231C-20.5431 58.5419 -20.3972 58.6875 -20.3972 58.8671C-20.3972 59.0467 -20.5431 59.1923 -20.7231 59.1923ZM-19.7453 58.8671C-19.7453 58.6875 -19.5994 58.5419 -19.4194 58.5419H-18.1157C-17.9357 58.5419 -17.7898 58.6875 -17.7898 58.8671C-17.7898 59.0467 -17.9357 59.1923 -18.1157 59.1923H-19.4194C-19.5994 59.1923 -19.7453 59.0467 -19.7453 58.8671ZM-17.1379 58.8671C-17.1379 58.6875 -16.992 58.5419 -16.812 58.5419H-15.5082C-15.3282 58.5419 -15.1823 58.6875 -15.1823 58.8671C-15.1823 59.0467 -15.3282 59.1923 -15.5082 59.1923H-16.812C-16.992 59.1923 -17.1379 59.0467 -17.1379 58.8671ZM-14.5305 58.8671C-14.5305 58.6875 -14.3845 58.5419 -14.2045 58.5419H-12.9008C-12.7208 58.5419 -12.5749 58.6875 -12.5749 58.8671C-12.5749 59.0467 -12.7208 59.1923 -12.9008 59.1923H-14.2045C-14.3845 59.1923 -14.5305 59.0467 -14.5305 58.8671ZM-11.923 58.8671C-11.923 58.6875 -11.7771 58.5419 -11.5971 58.5419H-10.2934C-10.1133 58.5419 -9.96742 58.6875 -9.96742 58.8671C-9.96742 59.0467 -10.1133 59.1923 -10.2934 59.1923H-11.5971C-11.7771 59.1923 -11.923 59.0467 -11.923 58.8671ZM-9.31556 58.8671C-9.31556 58.6875 -9.16963 58.5419 -8.98963 58.5419H-7.6859C-7.5059 58.5419 -7.35997 58.6875 -7.35997 58.8671C-7.35997 59.0467 -7.5059 59.1923 -7.6859 59.1923H-8.98963C-9.16963 59.1923 -9.31556 59.0467 -9.31556 58.8671ZM-6.70811 58.8671C-6.70811 58.6875 -6.56219 58.5419 -6.38218 58.5419H-5.07846C-4.89845 58.5419 -4.75253 58.6875 -4.75253 58.8671C-4.75253 59.0467 -4.89845 59.1923 -5.07846 59.1923H-6.38218C-6.56219 59.1923 -6.70811 59.0467 -6.70811 58.8671ZM-4.10066 58.8671C-4.10066 58.6875 -3.95474 58.5419 -3.77473 58.5419H-2.47101C-2.291 58.5419 -2.14508 58.6875 -2.14508 58.8671C-2.14508 59.0467 -2.291 59.1923 -2.47101 59.1923H-3.77473C-3.95474 59.1923 -4.10066 59.0467 -4.10066 58.8671ZM-1.49322 58.8671C-1.49322 58.6875 -1.34729 58.5419 -1.16729 58.5419H0.136435C0.316441 58.5419 0.462366 58.6875 0.462366 58.8671C0.462366 59.0467 0.316441 59.1923 0.136435 59.1923H-1.16729C-1.34729 59.1923 -1.49322 59.0467 -1.49322 58.8671ZM1.11423 58.8671C1.11423 58.6875 1.26015 58.5419 1.44016 58.5419H2.74388C2.92389 58.5419 3.06981 58.6875 3.06981 58.8671C3.06981 59.0467 2.92389 59.1923 2.74388 59.1923H1.44016C1.26015 59.1923 1.11423 59.0467 1.11423 58.8671ZM3.72167 58.8671C3.72167 58.6875 3.8676 58.5419 4.04761 58.5419H5.35133C5.53133 58.5419 5.67726 58.6875 5.67726 58.8671C5.67726 59.0467 5.53133 59.1923 5.35133 59.1923H4.04761C3.8676 59.1923 3.72167 59.0467 3.72167 58.8671ZM6.32912 58.8671C6.32912 58.6875 6.47505 58.5419 6.65505 58.5419H7.95877C8.13878 58.5419 8.28471 58.6875 8.28471 58.8671C8.28471 59.0467 8.13878 59.1923 7.95877 59.1923H6.65505C6.47505 59.1923 6.32912 59.0467 6.32912 58.8671ZM8.93657 58.8671C8.93657 58.6875 9.08249 58.5419 9.2625 58.5419H10.5662C10.7462 58.5419 10.8922 58.6875 10.8922 58.8671C10.8922 59.0467 10.7462 59.1923 10.5662 59.1923H9.2625C9.08249 59.1923 8.93657 59.0467 8.93657 58.8671ZM11.544 58.8671C11.544 58.6875 11.6899 58.5419 11.8699 58.5419H13.1737C13.3537 58.5419 13.4996 58.6875 13.4996 58.8671C13.4996 59.0467 13.3537 59.1923 13.1737 59.1923H11.8699C11.6899 59.1923 11.544 59.0467 11.544 58.8671ZM14.1515 58.8671C14.1515 58.6875 14.2974 58.5419 14.4774 58.5419H15.7811C15.9611 58.5419 16.107 58.6875 16.107 58.8671C16.107 59.0467 15.9611 59.1923 15.7811 59.1923H14.4774C14.2974 59.1923 14.1515 59.0467 14.1515 58.8671ZM16.7589 58.8671C16.7589 58.6875 16.9048 58.5419 17.0848 58.5419H18.3886C18.5686 58.5419 18.7145 58.6875 18.7145 58.8671C18.7145 59.0467 18.5686 59.1923 18.3886 59.1923H17.0848C16.9048 59.1923 16.7589 59.0467 16.7589 58.8671ZM19.3664 58.8671C19.3664 58.6875 19.5123 58.5419 19.6923 58.5419H20.996C21.176 58.5419 21.3219 58.6875 21.3219 58.8671C21.3219 59.0467 21.176 59.1923 20.996 59.1923H19.6923C19.5123 59.1923 19.3664 59.0467 19.3664 58.8671ZM21.9738 58.8671C21.9738 58.6875 22.1197 58.5419 22.2997 58.5419H23.6035C23.7835 58.5419 23.9294 58.6875 23.9294 58.8671C23.9294 59.0467 23.7835 59.1923 23.6035 59.1923H22.2997C22.1197 59.1923 21.9738 59.0467 21.9738 58.8671ZM24.5812 58.8671C24.5812 58.6875 24.7272 58.5419 24.9072 58.5419H26.2109C26.3909 58.5419 26.5368 58.6875 26.5368 58.8671C26.5368 59.0467 26.3909 59.1923 26.2109 59.1923H24.9072C24.7272 59.1923 24.5812 59.0467 24.5812 58.8671ZM27.1887 58.8671C27.1887 58.6875 27.3346 58.5419 27.5146 58.5419H28.8184C28.9984 58.5419 29.1443 58.6875 29.1443 58.8671C29.1443 59.0467 28.9984 59.1923 28.8184 59.1923H27.5146C27.3346 59.1923 27.1887 59.0467 27.1887 58.8671ZM29.7961 58.8671C29.7961 58.6875 29.9421 58.5419 30.1221 58.5419H31.4258C31.6058 58.5419 31.7517 58.6875 31.7517 58.8671C31.7517 59.0467 31.6058 59.1923 31.4258 59.1923H30.1221C29.9421 59.1923 29.7961 59.0467 29.7961 58.8671ZM32.4036 58.8671C32.4036 58.6875 32.5495 58.5419 32.7295 58.5419H34.0332C34.2132 58.5419 34.3592 58.6875 34.3592 58.8671C34.3592 59.0467 34.2132 59.1923 34.0332 59.1923H32.7295C32.5495 59.1923 32.4036 59.0467 32.4036 58.8671ZM35.011 58.8671C35.011 58.6875 35.157 58.5419 35.337 58.5419H36.6407C36.8207 58.5419 36.9666 58.6875 36.9666 58.8671C36.9666 59.0467 36.8207 59.1923 36.6407 59.1923H35.337C35.157 59.1923 35.011 59.0467 35.011 58.8671ZM37.6185 58.8671C37.6185 58.6875 37.7644 58.5419 37.9444 58.5419H39.2481C39.4281 58.5419 39.5741 58.6875 39.5741 58.8671C39.5741 59.0467 39.4281 59.1923 39.2481 59.1923H37.9444C37.7644 59.1923 37.6185 59.0467 37.6185 58.8671ZM40.2259 58.8671C40.2259 58.6875 40.3718 58.5419 40.5519 58.5419H41.8556C42.0356 58.5419 42.1815 58.6875 42.1815 58.8671C42.1815 59.0467 42.0356 59.1923 41.8556 59.1923H40.5519C40.3718 59.1923 40.2259 59.0467 40.2259 58.8671ZM42.8334 58.8671C42.8334 58.6875 42.9793 58.5419 43.1593 58.5419H44.463C44.643 58.5419 44.789 58.6875 44.789 58.8671C44.789 59.0467 44.643 59.1923 44.463 59.1923H43.1593C42.9793 59.1923 42.8334 59.0467 42.8334 58.8671ZM45.4408 58.8671C45.4408 58.6875 45.5867 58.5419 45.7668 58.5419H47.0705C47.2505 58.5419 47.3964 58.6875 47.3964 58.8671C47.3964 59.0467 47.2505 59.1923 47.0705 59.1923H45.7668C45.5867 59.1923 45.4408 59.0467 45.4408 58.8671ZM48.0483 58.8671C48.0483 58.6875 48.1942 58.5419 48.3742 58.5419H49.6779C49.8579 58.5419 50.0039 58.6875 50.0039 58.8671C50.0039 59.0467 49.8579 59.1923 49.6779 59.1923H48.3742C48.1942 59.1923 48.0483 59.0467 48.0483 58.8671ZM50.6557 58.8671C50.6557 58.6875 50.8016 58.5419 50.9817 58.5419H52.2854C52.4654 58.5419 52.6113 58.6875 52.6113 58.8671C52.6113 59.0467 52.4654 59.1923 52.2854 59.1923H50.9817C50.8016 59.1923 50.6557 59.0467 50.6557 58.8671ZM53.2632 58.8671C53.2632 58.6875 53.4091 58.5419 53.5891 58.5419H54.8928C55.0728 58.5419 55.2187 58.6875 55.2187 58.8671C55.2187 59.0467 55.0728 59.1923 54.8928 59.1923H53.5891C53.4091 59.1923 53.2632 59.0467 53.2632 58.8671ZM55.8706 58.8671C55.8706 58.6875 56.0165 58.5419 56.1965 58.5419H57.5003C57.6803 58.5419 57.8262 58.6875 57.8262 58.8671C57.8262 59.0467 57.6803 59.1923 57.5003 59.1923H56.1965C56.0165 59.1923 55.8706 59.0467 55.8706 58.8671ZM58.4781 58.8671C58.4781 58.6875 58.624 58.5419 58.804 58.5419H60.1077C60.2877 58.5419 60.4336 58.6875 60.4336 58.8671C60.4336 59.0467 60.2877 59.1923 60.1077 59.1923H58.804C58.624 59.1923 58.4781 59.0467 58.4781 58.8671ZM61.0855 58.8671C61.0855 58.6875 61.2314 58.5419 61.4114 58.5419H62.7152C62.8952 58.5419 63.0411 58.6875 63.0411 58.8671C63.0411 59.0467 62.8952 59.1923 62.7152 59.1923H61.4114C61.2314 59.1923 61.0855 59.0467 61.0855 58.8671ZM63.6929 58.8671C63.6929 58.6875 63.8389 58.5419 64.0189 58.5419H65.3226C65.5026 58.5419 65.6485 58.6875 65.6485 58.8671C65.6485 59.0467 65.5026 59.1923 65.3226 59.1923H64.0189C63.8389 59.1923 63.6929 59.0467 63.6929 58.8671ZM66.3004 58.8671C66.3004 58.6875 66.4463 58.5419 66.6263 58.5419H67.93C68.1101 58.5419 68.256 58.6875 68.256 58.8671C68.256 59.0467 68.1101 59.1923 67.93 59.1923H66.6263C66.4463 59.1923 66.3004 59.0467 66.3004 58.8671ZM68.9078 58.8671C68.9078 58.6875 69.0538 58.5419 69.2338 58.5419H70.5375C70.7175 58.5419 70.8634 58.6875 70.8634 58.8671C70.8634 59.0467 70.7175 59.1923 70.5375 59.1923H69.2338C69.0538 59.1923 68.9078 59.0467 68.9078 58.8671ZM71.5153 58.8671C71.5153 58.6875 71.6612 58.5419 71.8412 58.5419H73.1449C73.3249 58.5419 73.4709 58.6875 73.4709 58.8671C73.4709 59.0467 73.3249 59.1923 73.1449 59.1923H71.8412C71.6612 59.1923 71.5153 59.0467 71.5153 58.8671ZM74.1227 58.8671C74.1227 58.6875 74.2687 58.5419 74.4487 58.5419H75.7524C75.9324 58.5419 76.0783 58.6875 76.0783 58.8671C76.0783 59.0467 75.9324 59.1923 75.7524 59.1923H74.4487C74.2687 59.1923 74.1227 59.0467 74.1227 58.8671ZM76.7302 58.8671C76.7302 58.6875 76.8761 58.5419 77.0561 58.5419H78.3598C78.5398 58.5419 78.6858 58.6875 78.6858 58.8671C78.6858 59.0467 78.5398 59.1923 78.3598 59.1923H77.0561C76.8761 59.1923 76.7302 59.0467 76.7302 58.8671ZM79.3376 58.8671C79.3376 58.6875 79.4836 58.5419 79.6636 58.5419H80.9673C81.1473 58.5419 81.2932 58.6875 81.2932 58.8671C81.2932 59.0467 81.1473 59.1923 80.9673 59.1923H79.6636C79.4836 59.1923 79.3376 59.0467 79.3376 58.8671ZM81.9451 58.8671C81.9451 58.6875 82.091 58.5419 82.271 58.5419H83.5747C83.7547 58.5419 83.9007 58.6875 83.9007 58.8671C83.9007 59.0467 83.7547 59.1923 83.5747 59.1923H82.271C82.091 59.1923 81.9451 59.0467 81.9451 58.8671ZM84.5525 58.8671C84.5525 58.6875 84.6984 58.5419 84.8784 58.5419H86.1822C86.3622 58.5419 86.5081 58.6875 86.5081 58.8671C86.5081 59.0467 86.3622 59.1923 86.1822 59.1923H84.8784C84.6984 59.1923 84.5525 59.0467 84.5525 58.8671ZM87.16 58.8671C87.16 58.6875 87.3059 58.5419 87.4859 58.5419H88.7896C88.9696 58.5419 89.1156 58.6875 89.1156 58.8671C89.1156 59.0467 88.9696 59.1923 88.7896 59.1923H87.4859C87.3059 59.1923 87.16 59.0467 87.16 58.8671ZM89.7674 58.8671C89.7674 58.6875 89.9133 58.5419 90.0933 58.5419H91.3971C91.5771 58.5419 91.723 58.6875 91.723 58.8671C91.723 59.0467 91.5771 59.1923 91.3971 59.1923H90.0933C89.9133 59.1923 89.7674 59.0467 89.7674 58.8671ZM92.3749 58.8671C92.3749 58.6875 92.5208 58.5419 92.7008 58.5419H94.0045C94.1845 58.5419 94.3304 58.6875 94.3304 58.8671C94.3304 59.0467 94.1845 59.1923 94.0045 59.1923H92.7008C92.5208 59.1923 92.3749 59.0467 92.3749 58.8671ZM94.9823 58.8671C94.9823 58.6875 95.1282 58.5419 95.3083 58.5419H96.612C96.792 58.5419 96.9379 58.6875 96.9379 58.8671C96.9379 59.0467 96.792 59.1923 96.612 59.1923H95.3083C95.1282 59.1923 94.9823 59.0467 94.9823 58.8671ZM97.5898 58.8671C97.5898 58.6875 97.7357 58.5419 97.9157 58.5419H99.2194C99.3994 58.5419 99.5453 58.6875 99.5453 58.8671C99.5453 59.0467 99.3994 59.1923 99.2194 59.1923H97.9157C97.7357 59.1923 97.5898 59.0467 97.5898 58.8671ZM100.197 58.8671C100.197 58.6875 100.343 58.5419 100.523 58.5419H101.827C102.007 58.5419 102.153 58.6875 102.153 58.8671C102.153 59.0467 102.007 59.1923 101.827 59.1923H100.523C100.343 59.1923 100.197 59.0467 100.197 58.8671ZM102.805 58.8671C102.805 58.6875 102.951 58.5419 103.131 58.5419H104.434C104.614 58.5419 104.76 58.6875 104.76 58.8671C104.76 59.0467 104.614 59.1923 104.434 59.1923H103.131C102.951 59.1923 102.805 59.0467 102.805 58.8671ZM105.412 58.8671C105.412 58.6875 105.558 58.5419 105.738 58.5419H107.042C107.222 58.5419 107.368 58.6875 107.368 58.8671C107.368 59.0467 107.222 59.1923 107.042 59.1923H105.738C105.558 59.1923 105.412 59.0467 105.412 58.8671ZM108.02 58.8671C108.02 58.6875 108.165 58.5419 108.345 58.5419H109.649C109.829 58.5419 109.975 58.6875 109.975 58.8671C109.975 59.0467 109.829 59.1923 109.649 59.1923H108.345C108.165 59.1923 108.02 59.0467 108.02 58.8671ZM110.627 58.8671C110.627 58.6875 110.773 58.5419 110.953 58.5419H112.257C112.437 58.5419 112.583 58.6875 112.583 58.8671C112.583 59.0467 112.437 59.1923 112.257 59.1923H110.953C110.773 59.1923 110.627 59.0467 110.627 58.8671ZM113.234 58.8671C113.234 58.6875 113.38 58.5419 113.56 58.5419H114.864C115.044 58.5419 115.19 58.6875 115.19 58.8671C115.19 59.0467 115.044 59.1923 114.864 59.1923H113.56C113.38 59.1923 113.234 59.0467 113.234 58.8671ZM115.842 58.8671C115.842 58.6875 115.988 58.5419 116.168 58.5419H117.472C117.652 58.5419 117.797 58.6875 117.797 58.8671C117.797 59.0467 117.652 59.1923 117.472 59.1923H116.168C115.988 59.1923 115.842 59.0467 115.842 58.8671ZM118.449 58.8671C118.449 58.6875 118.595 58.5419 118.775 58.5419H120.079C120.259 58.5419 120.405 58.6875 120.405 58.8671C120.405 59.0467 120.259 59.1923 120.079 59.1923H118.775C118.595 59.1923 118.449 59.0467 118.449 58.8671ZM121.057 58.8671C121.057 58.6875 121.203 58.5419 121.383 58.5419H122.686C122.866 58.5419 123.012 58.6875 123.012 58.8671C123.012 59.0467 122.866 59.1923 122.686 59.1923H121.383C121.203 59.1923 121.057 59.0467 121.057 58.8671ZM123.664 58.8671C123.664 58.6875 123.81 58.5419 123.99 58.5419H125.294C125.474 58.5419 125.62 58.6875 125.62 58.8671C125.62 59.0467 125.474 59.1923 125.294 59.1923H123.99C123.81 59.1923 123.664 59.0467 123.664 58.8671ZM126.272 58.8671C126.272 58.6875 126.418 58.5419 126.598 58.5419H127.901C128.081 58.5419 128.227 58.6875 128.227 58.8671C128.227 59.0467 128.081 59.1923 127.901 59.1923H126.598C126.418 59.1923 126.272 59.0467 126.272 58.8671ZM128.879 58.8671C128.879 58.6875 129.025 58.5419 129.205 58.5419H130.509C130.689 58.5419 130.835 58.6875 130.835 58.8671C130.835 59.0467 130.689 59.1923 130.509 59.1923H129.205C129.025 59.1923 128.879 59.0467 128.879 58.8671ZM131.487 58.8671C131.487 58.6875 131.632 58.5419 131.812 58.5419H133.116C133.296 58.5419 133.442 58.6875 133.442 58.8671C133.442 59.0467 133.296 59.1923 133.116 59.1923H131.812C131.632 59.1923 131.487 59.0467 131.487 58.8671ZM134.094 58.8671C134.094 58.6875 134.24 58.5419 134.42 58.5419H135.724C135.904 58.5419 136.05 58.6875 136.05 58.8671C136.05 59.0467 135.904 59.1923 135.724 59.1923H134.42C134.24 59.1923 134.094 59.0467 134.094 58.8671ZM136.701 58.8671C136.701 58.6875 136.847 58.5419 137.027 58.5419H138.331C138.511 58.5419 138.657 58.6875 138.657 58.8671C138.657 59.0467 138.511 59.1923 138.331 59.1923H137.027C136.847 59.1923 136.701 59.0467 136.701 58.8671ZM139.309 58.8671C139.309 58.6875 139.455 58.5419 139.635 58.5419H140.939C141.119 58.5419 141.264 58.6875 141.264 58.8671C141.264 59.0467 141.119 59.1923 140.939 59.1923H139.635C139.455 59.1923 139.309 59.0467 139.309 58.8671ZM141.916 58.8671C141.916 58.6875 142.062 58.5419 142.242 58.5419H143.546C143.726 58.5419 143.872 58.6875 143.872 58.8671C143.872 59.0467 143.726 59.1923 143.546 59.1923H142.242C142.062 59.1923 141.916 59.0467 141.916 58.8671ZM144.524 58.8671C144.524 58.6875 144.67 58.5419 144.85 58.5419H146.153C146.333 58.5419 146.479 58.6875 146.479 58.8671C146.479 59.0467 146.333 59.1923 146.153 59.1923H144.85C144.67 59.1923 144.524 59.0467 144.524 58.8671ZM147.131 58.8671C147.131 58.6875 147.277 58.5419 147.457 58.5419H148.761C148.941 58.5419 149.087 58.6875 149.087 58.8671C149.087 59.0467 148.941 59.1923 148.761 59.1923H147.457C147.277 59.1923 147.131 59.0467 147.131 58.8671ZM149.739 58.8671C149.739 58.6875 149.885 58.5419 150.065 58.5419H151.368C151.548 58.5419 151.694 58.6875 151.694 58.8671C151.694 59.0467 151.548 59.1923 151.368 59.1923H150.065C149.885 59.1923 149.739 59.0467 149.739 58.8671ZM152.346 58.8671C152.346 58.6875 152.492 58.5419 152.672 58.5419H153.976C154.156 58.5419 154.302 58.6875 154.302 58.8671C154.302 59.0467 154.156 59.1923 153.976 59.1923H152.672C152.492 59.1923 152.346 59.0467 152.346 58.8671ZM154.954 58.8671C154.954 58.6875 155.1 58.5419 155.28 58.5419H156.583C156.763 58.5419 156.909 58.6875 156.909 58.8671C156.909 59.0467 156.763 59.1923 156.583 59.1923H155.28C155.1 59.1923 154.954 59.0467 154.954 58.8671ZM157.561 58.8671C157.561 58.6875 157.707 58.5419 157.887 58.5419H159.191C159.371 58.5419 159.517 58.6875 159.517 58.8671C159.517 59.0467 159.371 59.1923 159.191 59.1923H157.887C157.707 59.1923 157.561 59.0467 157.561 58.8671ZM160.168 58.8671C160.168 58.6875 160.314 58.5419 160.494 58.5419H161.146V59.1923H160.494C160.314 59.1923 160.168 59.0467 160.168 58.8671Z" fill="url(#paint7_linear_1237_1796)"></path></g><defs><filter id="filter0_b_1237_1796" x="74.2188" y="38.8774" width="67.0137" height="66.6984" filterUnits="userSpaceOnUse" color-interpolation-filters="sRGB"><feFlood flood-opacity="0" result="BackgroundImageFix"></feFlood><feGaussianBlur in="BackgroundImageFix" stdDeviation="10"></feGaussianBlur><feComposite in2="SourceAlpha" operator="in" result="effect1_backgroundBlur_1237_1796"></feComposite><feBlend mode="normal" in="SourceGraphic" in2="effect1_backgroundBlur_1237_1796" result="shape"></feBlend></filter><filter id="filter1_b_1237_1796" x="44.9512" y="38.8774" width="66.4785" height="66.6984" filterUnits="userSpaceOnUse" color-interpolation-filters="sRGB"><feFlood flood-opacity="0" result="BackgroundImageFix"></feFlood><feGaussianBlur in="BackgroundImageFix" stdDeviation="10"></feGaussianBlur><feComposite in2="SourceAlpha" operator="in" result="effect1_backgroundBlur_1237_1796"></feComposite><feBlend mode="normal" in="SourceGraphic" in2="effect1_backgroundBlur_1237_1796" result="shape"></feBlend></filter><filter id="filter2_b_1237_1796" x="15.3633" y="38.8774" width="67.0137" height="66.6984" filterUnits="userSpaceOnUse" color-interpolation-filters="sRGB"><feFlood flood-opacity="0" result="BackgroundImageFix"></feFlood><feGaussianBlur in="BackgroundImageFix" stdDeviation="10"></feGaussianBlur><feComposite in2="SourceAlpha" operator="in" result="effect1_backgroundBlur_1237_1796"></feComposite><feBlend mode="normal" in="SourceGraphic" in2="effect1_backgroundBlur_1237_1796" result="shape"></feBlend></filter><filter id="filter3_b_1237_1796" x="-0.466797" y="39.3873" width="55.4043" height="65.4963" filterUnits="userSpaceOnUse" color-interpolation-filters="sRGB"><feFlood flood-opacity="0" result="BackgroundImageFix"></feFlood><feGaussianBlur in="BackgroundImageFix" stdDeviation="10"></feGaussianBlur><feComposite in2="SourceAlpha" operator="in" result="effect1_backgroundBlur_1237_1796"></feComposite><feBlend mode="normal" in="SourceGraphic" in2="effect1_backgroundBlur_1237_1796" result="shape"></feBlend></filter><linearGradient id="paint0_linear_1237_1796" x1="127.282" y1="59.6826" x2="118.993" y2="103.875" gradientUnits="userSpaceOnUse"><stop stop-color="#02AF5F"></stop><stop offset="1" stop-color="#014928" stop-opacity="0.23"></stop></linearGradient><linearGradient id="paint1_linear_1237_1796" x1="127.282" y1="59.6826" x2="118.993" y2="103.875" gradientUnits="userSpaceOnUse"><stop stop-color="#02AF5F"></stop><stop offset="1" stop-color="#014928" stop-opacity="0.23"></stop></linearGradient><linearGradient id="paint2_linear_1237_1796" x1="127.282" y1="59.6826" x2="118.993" y2="103.875" gradientUnits="userSpaceOnUse"><stop stop-color="#02AF5F"></stop><stop offset="1" stop-color="#014928" stop-opacity="0.23"></stop></linearGradient><linearGradient id="paint3_linear_1237_1796" x1="127.281" y1="59.6826" x2="118.992" y2="103.875" gradientUnits="userSpaceOnUse"><stop stop-color="#02AF5F"></stop><stop offset="1" stop-color="#014928" stop-opacity="0.23"></stop></linearGradient><linearGradient id="paint4_linear_1237_1796" x1="-21.6992" y1="85.3716" x2="160.822" y2="85.3716" gradientUnits="userSpaceOnUse"><stop stop-opacity="0"></stop><stop offset="0.255" stop-color="#00FF93" stop-opacity="0.2"></stop><stop offset="0.78" stop-color="#17F493" stop-opacity="0.2"></stop><stop offset="0.94" stop-color="#161519" stop-opacity="0"></stop></linearGradient><linearGradient id="paint5_linear_1237_1796" x1="19.8561" y1="107.323" x2="19.8561" y2="32.2" gradientUnits="userSpaceOnUse"><stop stop-opacity="0"></stop><stop offset="0.28" stop-color="#00FF93" stop-opacity="0.2"></stop><stop offset="0.74" stop-color="#17F493" stop-opacity="0.2"></stop><stop offset="1" stop-color="#161519" stop-opacity="0"></stop></linearGradient><linearGradient id="paint6_linear_1237_1796" x1="121.219" y1="107.323" x2="121.219" y2="32.2" gradientUnits="userSpaceOnUse"><stop stop-opacity="0"></stop><stop offset="0.28" stop-color="#00FF93" stop-opacity="0.2"></stop><stop offset="0.74" stop-color="#17F493" stop-opacity="0.2"></stop><stop offset="1" stop-color="#161519" stop-opacity="0"></stop></linearGradient><linearGradient id="paint7_linear_1237_1796" x1="-21.375" y1="59.0297" x2="161.146" y2="59.0297" gradientUnits="userSpaceOnUse"><stop stop-opacity="0"></stop><stop offset="0.255" stop-color="#00FF93" stop-opacity="0.2"></stop><stop offset="0.78" stop-color="#17F493" stop-opacity="0.2"></stop><stop offset="0.94" stop-color="#161519" stop-opacity="0"></stop></linearGradient><clipPath id="clip0_1237_1796"><rect width="140" height="140" fill="white"></rect></clipPath></defs></svg> 