<?xml version="1.0" encoding="UTF-8"?> <svg xmlns="http://www.w3.org/2000/svg" width="560" height="480" viewBox="0 0 560 480" fill="none"><g clip-path="url(#clip0_1230_1010)"><g opacity="0.7" filter="url(#filter0_b_1230_1010)"><path d="M125.512 200.6H141.528V265H172.776V279H125.512V200.6ZM190.991 239.8C190.991 244.803 192.036 249.245 194.127 253.128C196.218 257.011 199.092 260.072 202.751 262.312C206.41 264.552 210.666 265.672 215.519 265.672C220.372 265.672 224.628 264.552 228.287 262.312C231.946 260.072 234.783 257.011 236.799 253.128C238.89 249.245 239.935 244.803 239.935 239.8C239.935 234.797 238.927 230.355 236.911 226.472C234.895 222.589 232.058 219.528 228.399 217.288C224.74 215.048 220.447 213.928 215.519 213.928C210.666 213.928 206.41 215.048 202.751 217.288C199.092 219.528 196.218 222.589 194.127 226.472C192.036 230.355 190.991 234.797 190.991 239.8ZM174.079 239.8C174.079 233.827 175.124 228.376 177.215 223.448C179.306 218.445 182.218 214.115 185.951 210.456C189.684 206.797 194.052 203.997 199.055 202.056C204.132 200.04 209.62 199.032 215.519 199.032C221.492 199.032 226.98 200.04 231.983 202.056C236.986 203.997 241.354 206.797 245.087 210.456C248.895 214.115 251.807 218.445 253.823 223.448C255.914 228.376 256.959 233.827 256.959 239.8C256.959 245.699 255.914 251.187 253.823 256.264C251.807 261.267 248.932 265.635 245.199 269.368C241.54 273.101 237.172 276.013 232.095 278.104C227.092 280.12 221.567 281.128 215.519 281.128C209.471 281.128 203.908 280.12 198.831 278.104C193.828 276.013 189.46 273.101 185.727 269.368C181.994 265.635 179.119 261.267 177.103 256.264C175.087 251.187 174.079 245.699 174.079 239.8ZM307.42 249.88V237.112H346.06C346.284 243.085 345.575 248.723 343.932 254.024C342.364 259.325 339.863 264.029 336.428 268.136C333.068 272.168 328.887 275.341 323.884 277.656C318.881 279.971 313.169 281.128 306.748 281.128C300.7 281.128 295.1 280.12 289.948 278.104C284.871 276.088 280.428 273.251 276.62 269.592C272.887 265.933 269.975 261.565 267.884 256.488C265.868 251.411 264.86 245.848 264.86 239.8C264.86 233.752 265.905 228.227 267.996 223.224C270.161 218.147 273.148 213.816 276.956 210.232C280.764 206.648 285.244 203.885 290.396 201.944C295.548 200.003 301.148 199.032 307.196 199.032C312.572 199.032 317.388 199.779 321.644 201.272C325.975 202.765 329.783 204.856 333.068 207.544C336.428 210.157 339.303 213.293 341.692 216.952L328.028 224.904C326.087 221.469 323.361 218.707 319.852 216.616C316.417 214.451 312.199 213.368 307.196 213.368C302.492 213.368 298.199 214.451 294.316 216.616C290.433 218.707 287.335 221.731 285.02 225.688C282.78 229.645 281.66 234.349 281.66 239.8C281.66 245.176 282.78 249.917 285.02 254.024C287.26 258.056 290.284 261.192 294.092 263.432C297.975 265.672 302.343 266.792 307.196 266.792C310.407 266.792 313.281 266.381 315.82 265.56C318.359 264.664 320.524 263.432 322.316 261.864C324.183 260.296 325.751 258.504 327.02 256.488C328.289 254.472 329.26 252.269 329.932 249.88H307.42ZM371.569 239.8C371.569 244.803 372.614 249.245 374.705 253.128C376.796 257.011 379.67 260.072 383.329 262.312C386.988 264.552 391.244 265.672 396.097 265.672C400.95 265.672 405.206 264.552 408.865 262.312C412.524 260.072 415.361 257.011 417.377 253.128C419.468 249.245 420.513 244.803 420.513 239.8C420.513 234.797 419.505 230.355 417.489 226.472C415.473 222.589 412.636 219.528 408.977 217.288C405.318 215.048 401.025 213.928 396.097 213.928C391.244 213.928 386.988 215.048 383.329 217.288C379.67 219.528 376.796 222.589 374.705 226.472C372.614 230.355 371.569 234.797 371.569 239.8ZM354.657 239.8C354.657 233.827 355.702 228.376 357.793 223.448C359.884 218.445 362.796 214.115 366.529 210.456C370.262 206.797 374.63 203.997 379.633 202.056C384.71 200.04 390.198 199.032 396.097 199.032C402.07 199.032 407.558 200.04 412.561 202.056C417.564 203.997 421.932 206.797 425.665 210.456C429.473 214.115 432.385 218.445 434.401 223.448C436.492 228.376 437.537 233.827 437.537 239.8C437.537 245.699 436.492 251.187 434.401 256.264C432.385 261.267 429.51 265.635 425.777 269.368C422.118 273.101 417.75 276.013 412.673 278.104C407.67 280.12 402.145 281.128 396.097 281.128C390.049 281.128 384.486 280.12 379.409 278.104C374.406 276.013 370.038 273.101 366.305 269.368C362.572 265.635 359.697 261.267 357.681 256.264C355.665 251.187 354.657 245.699 354.657 239.8Z" fill="url(#paint0_linear_1230_1010)"></path></g><g filter="url(#filter1_f_1230_1010)"><circle cx="333.5" cy="174.5" r="77.5" fill="#02AF5F" fill-opacity="0.2"></circle></g><path d="M-1 280H559" stroke="url(#paint1_linear_1230_1010)" stroke-width="2" stroke-dasharray="4 4"></path><path d="M126 348L126 117" stroke="url(#paint2_linear_1230_1010)" stroke-width="2" stroke-dasharray="4 4"></path><path d="M437 348V117" stroke="url(#paint3_linear_1230_1010)" stroke-width="2" stroke-dasharray="4 4"></path><path d="M0 199H560" stroke="url(#paint4_linear_1230_1010)" stroke-width="2" stroke-dasharray="4 4"></path></g><defs><filter id="filter0_b_1230_1010" x="105.512" y="179.032" width="352.023" height="122.096" filterUnits="userSpaceOnUse" color-interpolation-filters="sRGB"><feFlood flood-opacity="0" result="BackgroundImageFix"></feFlood><feGaussianBlur in="BackgroundImageFix" stdDeviation="10"></feGaussianBlur><feComposite in2="SourceAlpha" operator="in" result="effect1_backgroundBlur_1230_1010"></feComposite><feBlend mode="normal" in="SourceGraphic" in2="effect1_backgroundBlur_1230_1010" result="shape"></feBlend></filter><filter id="filter1_f_1230_1010" x="156" y="-3" width="355" height="355" filterUnits="userSpaceOnUse" color-interpolation-filters="sRGB"><feFlood flood-opacity="0" result="BackgroundImageFix"></feFlood><feBlend mode="normal" in="SourceGraphic" in2="BackgroundImageFix" result="shape"></feBlend><feGaussianBlur stdDeviation="50" result="effect1_foregroundBlur_1230_1010"></feGaussianBlur></filter><linearGradient id="paint0_linear_1230_1010" x1="456.098" y1="201.508" x2="430.557" y2="337.377" gradientUnits="userSpaceOnUse"><stop stop-color="#02AF5F"></stop><stop offset="1" stop-color="#014928" stop-opacity="0.23"></stop></linearGradient><linearGradient id="paint1_linear_1230_1010" x1="-1" y1="280.5" x2="559" y2="280.5" gradientUnits="userSpaceOnUse"><stop stop-opacity="0"></stop><stop offset="0.28" stop-color="#00FF93" stop-opacity="0.2"></stop><stop offset="0.74" stop-color="#17F493" stop-opacity="0.2"></stop><stop offset="1" stop-color="#161519" stop-opacity="0"></stop></linearGradient><linearGradient id="paint2_linear_1230_1010" x1="126.5" y1="348" x2="126.5" y2="117" gradientUnits="userSpaceOnUse"><stop stop-opacity="0"></stop><stop offset="0.28" stop-color="#00FF93" stop-opacity="0.2"></stop><stop offset="0.74" stop-color="#17F493" stop-opacity="0.2"></stop><stop offset="1" stop-color="#161519" stop-opacity="0"></stop></linearGradient><linearGradient id="paint3_linear_1230_1010" x1="437.5" y1="348" x2="437.5" y2="117" gradientUnits="userSpaceOnUse"><stop stop-opacity="0"></stop><stop offset="0.28" stop-color="#00FF93" stop-opacity="0.2"></stop><stop offset="0.74" stop-color="#17F493" stop-opacity="0.2"></stop><stop offset="1" stop-color="#161519" stop-opacity="0"></stop></linearGradient><linearGradient id="paint4_linear_1230_1010" x1="0" y1="199.5" x2="560" y2="199.5" gradientUnits="userSpaceOnUse"><stop stop-opacity="0"></stop><stop offset="0.28" stop-color="#00FF93" stop-opacity="0.2"></stop><stop offset="0.74" stop-color="#17F493" stop-opacity="0.2"></stop><stop offset="1" stop-color="#161519" stop-opacity="0"></stop></linearGradient><clipPath id="clip0_1230_1010"><rect width="560" height="480" fill="white"></rect></clipPath></defs></svg> 