<?xml version="1.0" encoding="UTF-8"?> <svg xmlns="http://www.w3.org/2000/svg" id="Group_55" data-name="Group 55" width="338.291" height="64.968" viewBox="0 0 338.291 64.968"><path id="Path_104" data-name="Path 104" d="M173.928,303.265h-9.337a1.727,1.727,0,0,1-1.727-1.727V241.071a1.728,1.728,0,0,1,1.727-1.729h23.858a24.97,24.97,0,0,1,6.775.915,25.358,25.358,0,0,1,6.084,2.585,25.8,25.8,0,0,1,11.77,15.312,25.491,25.491,0,0,1,.088,13.194,26.371,26.371,0,0,1-2.361,5.931,25.135,25.135,0,0,1-3.766,5.17,25.586,25.586,0,0,1-3.809,3.31,1.744,1.744,0,0,0-.628,2.1l5.512,13a1.728,1.728,0,0,1-1.59,2.4h-9.851a1.729,1.729,0,0,1-1.586-1.042l-4.667-10.792a1.728,1.728,0,0,0-1.6-1.042l-11.449.073a1.728,1.728,0,0,0-1.718,1.727v9.348A1.727,1.727,0,0,1,173.928,303.265Zm1.727-49.4v22.129a1.729,1.729,0,0,0,1.729,1.729h11.064a12.341,12.341,0,0,0,4.948-1,12.824,12.824,0,0,0,6.8-6.822,12.8,12.8,0,0,0,0-9.938,12.824,12.824,0,0,0-6.8-6.822,12.34,12.34,0,0,0-4.948-1H177.385A1.728,1.728,0,0,0,175.656,253.865Z" transform="translate(-162.864 -238.54)" fill="#fff"></path><path id="Path_105" data-name="Path 105" d="M270,303.265H198.413a2.3,2.3,0,0,1-2.3-2.3V241.648a2.3,2.3,0,0,1,2.3-2.306H270a2.3,2.3,0,0,1,2.3,2.306v8.184a2.3,2.3,0,0,1-2.3,2.306H211.206a2.3,2.3,0,0,0-2.306,2.3v8.182a2.306,2.306,0,0,0,2.306,2.306l45.3-.021a2.306,2.306,0,0,1,2.306,2.306V275.4a2.3,2.3,0,0,1-2.3,2.3l-45.308.02a2.3,2.3,0,0,0-2.3,2.3v8.143a2.306,2.306,0,0,0,2.306,2.306H270a2.3,2.3,0,0,1,2.3,2.3v8.184A2.3,2.3,0,0,1,270,303.265Z" transform="translate(-136.598 -238.54)" fill="#fff"></path><path id="Path_106" data-name="Path 106" d="M255.386,303.265H244.594a1,1,0,0,1-1-1V240.343a1,1,0,0,1,1-1h10.792a1,1,0,0,1,1,1v27.943a1,1,0,0,0,1.8.6l21.7-29.137a1,1,0,0,1,.8-.4h12.031a1,1,0,0,1,.8,1.6L274.914,265.8a1,1,0,0,0-.077,1.079l19.077,34.91a1,1,0,0,1-.879,1.48H280.785a1,1,0,0,1-.879-.523l-13.014-23.958a1,1,0,0,0-1.679-.122l-8.628,11.544a1,1,0,0,0-.2.6v11.46A1,1,0,0,1,255.386,303.265Z" transform="translate(-99.083 -238.54)" fill="#fff"></path><path id="Path_107" data-name="Path 107" d="M337.081,271.237a31.649,31.649,0,0,1-1.156,8.574,32.984,32.984,0,0,1-3.251,7.726,32.152,32.152,0,0,1-5.062,6.57,33.039,33.039,0,0,1-6.55,5.084,32.337,32.337,0,0,1-24.9,3.274,32.615,32.615,0,0,1-22.653-22.653,32.459,32.459,0,0,1,0-17.174,32,32,0,0,1,3.276-7.726,32.889,32.889,0,0,1,5.084-6.546,32.073,32.073,0,0,1,6.568-5.062,33.1,33.1,0,0,1,7.726-3.253,32.461,32.461,0,0,1,17.174,0,32.3,32.3,0,0,1,22.587,22.587A31.907,31.907,0,0,1,337.081,271.237Zm-12.437,0a19.379,19.379,0,0,0-1.572-7.749A19.847,19.847,0,0,0,312.487,252.9a19.934,19.934,0,0,0-15.516,0,20.389,20.389,0,0,0-6.328,4.255,19.9,19.9,0,0,0-4.278,6.328,19.379,19.379,0,0,0-1.572,7.749,19.041,19.041,0,0,0,1.572,7.7,20.172,20.172,0,0,0,10.606,10.585,19.935,19.935,0,0,0,15.516,0,19.9,19.9,0,0,0,6.328-4.276,20.492,20.492,0,0,0,4.257-6.308A19.042,19.042,0,0,0,324.643,271.237Z" transform="translate(-76.36 -238.894)" fill="#fff"></path><path id="Path_108" data-name="Path 108" d="M311.875,258.51a18.434,18.434,0,0,1,1.513-7.443A19.49,19.49,0,0,1,323.6,240.858a18.409,18.409,0,0,1,7.445-1.516h26.312a3.02,3.02,0,0,1,3.02,3.02v6.754a3.021,3.021,0,0,1-3.02,3.022H331.041a6.314,6.314,0,0,0-6.374,6.373,6.516,6.516,0,0,0,.489,2.519,6.293,6.293,0,0,0,5.886,3.9h12.794a18.827,18.827,0,0,1,7.466,1.493,19.071,19.071,0,0,1,10.209,10.209,19.362,19.362,0,0,1,0,14.911,19.294,19.294,0,0,1-4.1,6.084,19.5,19.5,0,0,1-6.108,4.123,18.568,18.568,0,0,1-7.466,1.516H318.461a3.019,3.019,0,0,1-3.02-3.02v-6.752a3.019,3.019,0,0,1,3.02-3.02h25.374a6.336,6.336,0,0,0,2.5-.492,6.325,6.325,0,0,0,3.387-3.387,6.355,6.355,0,0,0-5.884-8.872H331.041a18.438,18.438,0,0,1-7.445-1.514,19.427,19.427,0,0,1-10.209-10.232A18.588,18.588,0,0,1,311.875,258.51Z" transform="translate(-45.136 -238.54)" fill="#fff"></path><path id="Path_109" data-name="Path 109" d="M358.576,274.25a7.8,7.8,0,0,1-.58,3.007,7.365,7.365,0,0,1-1.606,2.431,7.761,7.761,0,0,1-2.4,1.627,7.669,7.669,0,0,1-5.954,0,7.971,7.971,0,0,1-2.451-1.627,7.5,7.5,0,0,1-1.651-2.431,7.581,7.581,0,0,1-.6-3.007,7.328,7.328,0,0,1,.6-2.943,7.58,7.58,0,0,1,1.651-2.408,8,8,0,0,1,2.451-1.627,7.667,7.667,0,0,1,5.954,0,7.792,7.792,0,0,1,2.4,1.627A7.435,7.435,0,0,1,358,271.307,7.534,7.534,0,0,1,358.576,274.25Z" transform="translate(-20.285 -216.949)" fill="#00af5f"></path></svg> 