<?xml version="1.0" encoding="UTF-8"?> <svg xmlns="http://www.w3.org/2000/svg" width="560" height="480" viewBox="0 0 560 480" fill="none"><g filter="url(#filter0_b_1229_509)"><rect x="109" y="116" width="342" height="248" rx="10" fill="#1C1A20"></rect></g><g opacity="0.9" filter="url(#filter1_b_1229_509)"><path d="M297.385 305.599C297.262 305.612 297.14 305.635 297.021 305.668L289.136 307.854C287.577 308.345 285.935 308.519 284.306 308.367C282.676 308.215 281.09 307.74 279.639 306.968C278.189 306.196 276.902 305.143 275.853 303.87C274.804 302.596 274.014 301.127 273.528 299.548L273.447 299.254C272.537 296.434 270.592 294.068 268.011 292.644C265.431 291.22 262.414 290.847 259.582 291.602C257.733 292.048 256.051 293.018 254.735 294.399C253.151 296.093 251.131 297.308 248.899 297.911C246.802 298.503 244.586 298.542 242.464 298.025C240.341 297.508 238.382 296.451 236.773 294.956L230.761 289.043C229.248 287.542 228.152 285.668 227.581 283.608C227.01 281.549 226.986 279.378 227.51 277.312C228.111 275.063 229.289 273.016 230.924 271.376C232.259 270.066 233.205 268.404 233.655 266.577C234.383 263.783 233.984 260.805 232.546 258.295C231.813 256.995 230.83 255.856 229.654 254.944C228.479 254.033 227.135 253.369 225.704 252.991C224.117 252.628 222.617 251.945 221.296 250.983C219.974 250.021 218.857 248.801 218.012 247.394C217.167 245.988 216.611 244.426 216.379 242.801C216.154 241.227 216.236 239.625 216.621 238.087C216.645 237.99 216.645 237.888 216.618 237.792C216.592 237.696 216.591 237.595 216.616 237.499L218.662 229.615C219.528 226.344 221.637 223.557 224.533 221.856C227.429 220.155 230.878 219.677 234.134 220.527C235.982 220.959 237.903 220.926 239.729 220.429C241.645 219.873 243.391 218.846 244.811 217.438C246.23 216.03 247.28 214.287 247.864 212.364C248.414 210.557 248.401 208.621 247.826 206.816C247.106 204.646 247.091 202.304 247.785 200.132C248.426 198.051 249.566 196.163 251.103 194.635C252.641 193.108 254.529 191.987 256.601 191.373L264.897 189.073C267.004 188.498 269.223 188.465 271.351 188.978C273.48 189.492 275.45 190.535 277.081 192.012C278.74 193.555 279.889 195.575 280.371 197.795C280.807 199.639 281.792 201.306 283.193 202.571C284.692 203.926 286.5 204.883 288.453 205.356C290.406 205.83 292.442 205.804 294.377 205.282C296.199 204.768 297.864 203.808 299.224 202.486C301.571 200.086 304.765 198.724 308.114 198.694C311.463 198.665 314.696 199.971 317.11 202.329L322.973 208.156C324.171 209.252 325.139 210.578 325.822 212.056C326.505 213.534 326.889 215.133 326.949 216.76C327.01 218.386 326.746 220.006 326.175 221.525C325.603 223.043 324.735 224.428 323.622 225.598C322.589 226.659 321.315 228.049 320.776 229.435C320.237 230.821 319.981 232.304 320.022 233.796C320.101 236.692 321.313 239.445 323.393 241.452C324.683 242.807 326.335 243.754 328.146 244.176C330.417 244.748 332.514 245.882 334.246 247.475C335.729 248.997 336.805 250.872 337.374 252.924C337.943 254.977 337.985 257.139 337.497 259.206L335.271 267.402C334.855 269.023 334.126 270.544 333.124 271.876C332.122 273.207 330.867 274.325 329.433 275.162C327.999 276 326.413 276.543 324.766 276.758C323.12 276.973 321.446 276.857 319.841 276.416C318.001 275.917 316.062 275.951 314.246 276.514C311.415 277.312 309.003 279.183 307.512 281.737C306.021 284.291 305.566 287.332 306.24 290.228C306.672 291.817 306.791 293.475 306.589 295.106C306.387 296.738 305.868 298.311 305.062 299.737C304.257 301.162 303.18 302.412 301.893 303.415C300.654 304.38 299.244 305.099 297.738 305.532C297.623 305.565 297.504 305.587 297.385 305.599ZM272.355 231.534C267.937 232.708 264.169 235.605 261.878 239.591C259.587 243.576 258.959 248.324 260.133 252.796C260.737 254.987 261.773 257.035 263.18 258.816C264.586 260.597 266.333 262.074 268.315 263.16C272.365 265.397 277.116 265.941 281.541 264.673C284.79 263.788 287.7 261.945 289.899 259.379C292.099 256.813 293.489 253.641 293.893 250.265C294.297 246.889 293.696 243.463 292.167 240.421C290.638 237.38 288.25 234.862 285.307 233.186C281.321 230.936 276.628 230.355 272.24 231.566L272.355 231.534Z" fill="url(#paint0_linear_1229_509)"></path></g><path d="M255.845 245.002L255.844 245.005C254.617 249.765 254.73 254.772 256.17 259.472C257.611 264.172 260.323 268.382 264.007 271.637C267.691 274.891 272.203 277.064 277.044 277.914C281.2 278.644 285.46 278.375 289.475 277.142L319.09 309.038C320.345 310.508 321.888 311.705 323.624 312.556C325.382 313.418 327.3 313.905 329.256 313.987C331.212 314.07 333.165 313.745 334.989 313.034C336.813 312.323 338.47 311.241 339.855 309.856C341.239 308.472 342.322 306.815 343.033 304.991C343.744 303.167 344.069 301.215 343.988 299.258C343.906 297.302 343.419 295.384 342.557 293.625C341.707 291.889 340.51 290.346 339.04 289.09L307.138 259.466C308.368 255.451 308.636 251.192 307.905 247.037C307.053 242.197 304.881 237.687 301.627 234.004C298.373 230.322 294.164 227.611 289.466 226.171C284.769 224.731 279.766 224.617 275.008 225.842C273.89 226.128 272.869 226.711 272.054 227.529L274.18 229.646L272.054 227.529C271.239 228.347 270.66 229.371 270.378 230.492C270.096 231.613 270.123 232.789 270.454 233.896C270.786 235.002 271.41 235.998 272.261 236.779C272.261 236.779 272.261 236.779 272.261 236.779C272.262 236.78 272.262 236.78 272.263 236.781L281.96 245.691L280.272 250.276L275.696 251.96L266.767 242.262L266.765 242.26C265.984 241.413 264.989 240.792 263.884 240.463C262.78 240.134 261.608 240.109 260.491 240.389C259.373 240.67 258.352 241.246 257.535 242.058L259.626 244.165L257.535 242.058C256.717 242.87 256.133 243.887 255.845 245.002Z" fill="#079554" stroke="#1C1A20" stroke-width="6"></path><circle cx="281.5" cy="251.5" r="29.5" fill="#1B1F22"></circle><path fill-rule="evenodd" clip-rule="evenodd" d="M275.753 228.748C279.976 227.66 284.418 227.761 288.587 229.039C292.756 230.317 296.491 232.723 299.379 235.991C302.267 239.259 304.195 243.262 304.95 247.557C305.706 251.852 305.259 256.273 303.66 260.33L337.047 291.333C338.226 292.329 339.185 293.559 339.863 294.945C340.542 296.33 340.926 297.842 340.99 299.384C341.055 300.925 340.799 302.463 340.238 303.901C339.678 305.339 338.825 306.644 337.734 307.735C336.643 308.826 335.337 309.679 333.899 310.239C332.462 310.799 330.924 311.055 329.382 310.99C327.841 310.925 326.33 310.541 324.944 309.862C323.559 309.183 322.329 308.224 321.334 307.045L290.338 273.663C286.281 275.265 281.86 275.714 277.563 274.959C273.266 274.205 269.262 272.277 265.993 269.388C262.724 266.5 260.317 262.764 259.039 258.593C257.76 254.422 257.66 249.978 258.749 245.754C258.903 245.16 259.213 244.619 259.648 244.187C260.083 243.755 260.627 243.448 261.221 243.299C261.816 243.15 262.44 243.163 263.027 243.338C263.615 243.513 264.144 243.844 264.56 244.294L274.848 255.468L282.608 252.613L285.47 244.842L274.29 234.57C273.837 234.154 273.505 233.624 273.328 233.035C273.152 232.445 273.138 231.82 273.287 231.223C273.437 230.627 273.746 230.082 274.18 229.646C274.614 229.21 275.157 228.9 275.753 228.748Z" fill="#079554"></path><g filter="url(#filter2_f_1229_509)"><circle cx="202.5" cy="278.5" r="77.5" fill="#02AF5F" fill-opacity="0.5"></circle></g><circle cx="129" cy="133" r="4" fill="#2E2E30"></circle><circle cx="141" cy="133" r="4" fill="#2E2E30"></circle><circle cx="153" cy="133" r="4" fill="#2E2E30"></circle><rect x="330" y="66" width="100" height="100" rx="16" fill="#121015" fill-opacity="0.9"></rect><g opacity="0.9" filter="url(#filter3_b_1229_509)"><path d="M402.394 123.547L387.958 99.8823C386.063 96.7771 383.165 95 380 95C376.835 95 373.937 96.7771 372.042 99.8775L357.606 123.547C355.687 126.69 355.477 130.043 357.033 132.745C358.586 135.449 361.618 137 365.349 137H394.651C398.382 137 401.414 135.449 402.967 132.747C404.523 130.045 404.313 126.693 402.394 123.547ZM380 128.712C377.915 128.712 376.215 127.043 376.215 124.992C376.215 122.939 377.912 121.268 380 121.268C382.088 121.268 383.785 122.939 383.785 124.992C383.785 127.043 382.085 128.712 380 128.712ZM383.987 110.884C383.961 110.958 380.574 119.194 380.567 119.212C380.566 119.213 380.566 119.212 380.566 119.213C380.473 119.438 380.249 119.587 380.002 119.587C379.756 119.587 379.531 119.438 379.438 119.212L376.042 110.956C375.837 110.456 375.73 109.922 375.727 109.383C375.727 107.065 377.644 105.18 380 105.18C380.692 105.182 381.373 105.349 381.985 105.666C382.597 105.984 383.122 106.443 383.514 107.004C383.906 107.564 384.154 108.21 384.237 108.886C384.319 109.562 384.234 110.247 383.987 110.884Z" fill="url(#paint1_linear_1229_509)"></path></g><defs><filter id="filter0_b_1229_509" x="89" y="96" width="382" height="288" filterUnits="userSpaceOnUse" color-interpolation-filters="sRGB"><feFlood flood-opacity="0" result="BackgroundImageFix"></feFlood><feGaussianBlur in="BackgroundImageFix" stdDeviation="10"></feGaussianBlur><feComposite in2="SourceAlpha" operator="in" result="effect1_backgroundBlur_1229_509"></feComposite><feBlend mode="normal" in="SourceGraphic" in2="effect1_backgroundBlur_1229_509" result="shape"></feBlend></filter><filter id="filter1_b_1229_509" x="196.254" y="168.616" width="161.582" height="159.805" filterUnits="userSpaceOnUse" color-interpolation-filters="sRGB"><feFlood flood-opacity="0" result="BackgroundImageFix"></feFlood><feGaussianBlur in="BackgroundImageFix" stdDeviation="10"></feGaussianBlur><feComposite in2="SourceAlpha" operator="in" result="effect1_backgroundBlur_1229_509"></feComposite><feBlend mode="normal" in="SourceGraphic" in2="effect1_backgroundBlur_1229_509" result="shape"></feBlend></filter><filter id="filter2_f_1229_509" x="25" y="101" width="355" height="355" filterUnits="userSpaceOnUse" color-interpolation-filters="sRGB"><feFlood flood-opacity="0" result="BackgroundImageFix"></feFlood><feBlend mode="normal" in="SourceGraphic" in2="BackgroundImageFix" result="shape"></feBlend><feGaussianBlur stdDeviation="50" result="effect1_foregroundBlur_1229_509"></feGaussianBlur></filter><filter id="filter3_b_1229_509" x="336" y="75" width="88" height="82" filterUnits="userSpaceOnUse" color-interpolation-filters="sRGB"><feFlood flood-opacity="0" result="BackgroundImageFix"></feFlood><feGaussianBlur in="BackgroundImageFix" stdDeviation="10"></feGaussianBlur><feComposite in2="SourceAlpha" operator="in" result="effect1_backgroundBlur_1229_509"></feComposite><feBlend mode="normal" in="SourceGraphic" in2="effect1_backgroundBlur_1229_509" result="shape"></feBlend></filter><linearGradient id="paint0_linear_1229_509" x1="317.255" y1="161.824" x2="224.172" y2="323.802" gradientUnits="userSpaceOnUse"><stop stop-color="#02AF5F"></stop><stop offset="1" stop-color="#014928" stop-opacity="0"></stop></linearGradient><linearGradient id="paint1_linear_1229_509" x1="406.082" y1="90.7396" x2="360.663" y2="145.116" gradientUnits="userSpaceOnUse"><stop stop-color="#02AF5F"></stop><stop offset="1" stop-color="#014928" stop-opacity="0"></stop></linearGradient></defs></svg> 