<?xml version="1.0" encoding="UTF-8"?> <svg xmlns="http://www.w3.org/2000/svg" width="100" height="100" viewBox="0 0 100 100" fill="none"><g clip-path="url(#clip0_1237_1717)"><rect width="100" height="100" rx="16" fill="#28252C"></rect><g opacity="0.7" filter="url(#filter0_b_1237_1717)"><path d="M50.186 56.64V46.4H73.994C74.3354 50.24 74.0367 53.824 73.098 57.152C72.202 60.48 70.73 63.4027 68.682 65.92C66.634 68.4373 64.0527 70.4 60.938 71.808C57.8234 73.216 54.2394 73.92 50.186 73.92C46.4313 73.92 42.9967 73.344 39.882 72.192C36.7673 71.04 34.058 69.3973 31.754 67.264C29.4927 65.1307 27.722 62.5707 26.442 59.584C25.2047 56.5973 24.586 53.2693 24.586 49.6C24.586 45.9307 25.2473 42.6453 26.57 39.744C27.8927 36.8 29.7273 34.304 32.074 32.256C34.4633 30.208 37.2367 28.6507 40.394 27.584C43.594 26.4747 47.0714 25.92 50.826 25.92C54.2394 25.92 57.2474 26.432 59.85 27.456C62.4953 28.48 64.7993 29.8453 66.762 31.552C68.7674 33.216 70.5167 35.0933 72.01 37.184L58.89 43.072C58.122 41.664 57.1194 40.4267 55.882 39.36C54.6447 38.2933 52.9593 37.76 50.826 37.76C48.7354 37.76 46.8154 38.208 45.066 39.104C43.3167 39.9573 41.9087 41.2587 40.842 43.008C39.818 44.7573 39.306 46.9547 39.306 49.6C39.306 52.2027 39.7753 54.4427 40.714 56.32C41.6953 58.1973 43.0393 59.6267 44.746 60.608C46.4953 61.5893 48.522 62.08 50.826 62.08C52.106 62.08 53.258 61.952 54.282 61.696C55.306 61.44 56.1807 61.0773 56.906 60.608C57.674 60.1387 58.3354 59.5627 58.89 58.88C59.4447 58.1973 59.914 57.4507 60.298 56.64H50.186Z" fill="url(#paint0_linear_1237_1717)"></path></g><path d="M-0.333984 75H99.666" stroke="url(#paint1_linear_1237_1717)" stroke-dasharray="3 3"></path><path d="M-0.333984 25H99.666" stroke="url(#paint2_linear_1237_1717)" stroke-dasharray="3 3"></path><path d="M74.666 100L74.666 1.66893e-06" stroke="url(#paint3_linear_1237_1717)" stroke-dasharray="3 3"></path><path d="M23.666 100L23.666 1.66893e-06" stroke="url(#paint4_linear_1237_1717)" stroke-dasharray="3 3"></path></g><defs><filter id="filter0_b_1237_1717" x="4.58594" y="5.91998" width="89.9199" height="88" filterUnits="userSpaceOnUse" color-interpolation-filters="sRGB"><feFlood flood-opacity="0" result="BackgroundImageFix"></feFlood><feGaussianBlur in="BackgroundImageFix" stdDeviation="10"></feGaussianBlur><feComposite in2="SourceAlpha" operator="in" result="effect1_backgroundBlur_1237_1717"></feComposite><feBlend mode="normal" in="SourceGraphic" in2="effect1_backgroundBlur_1237_1717" result="shape"></feBlend></filter><linearGradient id="paint0_linear_1237_1717" x1="79.0085" y1="11.5079" x2="9.20602" y2="73.2042" gradientUnits="userSpaceOnUse"><stop stop-color="#02AF5F"></stop><stop offset="1" stop-color="#014928" stop-opacity="0.23"></stop></linearGradient><linearGradient id="paint1_linear_1237_1717" x1="-0.333984" y1="75.5" x2="99.666" y2="75.5" gradientUnits="userSpaceOnUse"><stop stop-opacity="0"></stop><stop offset="0.28" stop-color="#00FF93" stop-opacity="0.2"></stop><stop offset="0.74" stop-color="#17F493" stop-opacity="0.2"></stop><stop offset="1" stop-color="#161519" stop-opacity="0"></stop></linearGradient><linearGradient id="paint2_linear_1237_1717" x1="-0.333984" y1="25.5" x2="99.666" y2="25.5" gradientUnits="userSpaceOnUse"><stop stop-opacity="0"></stop><stop offset="0.28" stop-color="#00FF93" stop-opacity="0.2"></stop><stop offset="0.74" stop-color="#17F493" stop-opacity="0.2"></stop><stop offset="1" stop-color="#161519" stop-opacity="0"></stop></linearGradient><linearGradient id="paint3_linear_1237_1717" x1="75.166" y1="100" x2="75.166" y2="-2.18557e-08" gradientUnits="userSpaceOnUse"><stop stop-opacity="0"></stop><stop offset="0.28" stop-color="#00FF93" stop-opacity="0.2"></stop><stop offset="0.74" stop-color="#17F493" stop-opacity="0.2"></stop><stop offset="1" stop-color="#161519" stop-opacity="0"></stop></linearGradient><linearGradient id="paint4_linear_1237_1717" x1="24.166" y1="100" x2="24.166" y2="-2.18557e-08" gradientUnits="userSpaceOnUse"><stop stop-opacity="0"></stop><stop offset="0.28" stop-color="#00FF93" stop-opacity="0.2"></stop><stop offset="0.74" stop-color="#17F493" stop-opacity="0.2"></stop><stop offset="1" stop-color="#161519" stop-opacity="0"></stop></linearGradient><clipPath id="clip0_1237_1717"><rect width="100" height="100" fill="white"></rect></clipPath></defs></svg> 