<?xml version="1.0" encoding="UTF-8"?> <svg xmlns="http://www.w3.org/2000/svg" width="100" height="100" viewBox="0 0 100 100" fill="none"><g clip-path="url(#clip0_1204_2974)"><rect x="0.333984" width="100" height="100" rx="16" fill="#28252C"></rect><g opacity="0.9" filter="url(#filter0_b_1204_2974)"><ellipse cx="50.334" cy="50.5" rx="12.5" ry="12.619" fill="url(#paint0_linear_1204_2974)"></ellipse></g><g opacity="0.9" filter="url(#filter1_b_1204_2974)"><path d="M52.2612 76.9868C52.2077 76.9778 52.1535 76.9732 52.0993 76.9732H48.5107C47.7942 76.9981 47.0799 76.8799 46.4088 76.625C45.7378 76.3702 45.1232 75.9838 44.6005 75.4883C44.0779 74.9927 43.6574 74.3978 43.3633 73.7376C43.0692 73.0774 42.9073 72.3649 42.8868 71.6413V71.508C42.8328 70.211 42.2876 68.9847 41.3639 68.0818C40.4403 67.1789 39.2085 66.6684 37.923 66.6559C37.0892 66.6277 36.2649 66.8406 35.5467 67.2691C34.6789 67.7989 33.6827 68.0757 32.6686 68.0689C31.7129 68.0735 30.772 67.8309 29.9354 67.3642C29.0988 66.8975 28.3946 66.2223 27.8896 65.4029L26.0414 62.2037C25.578 61.3931 25.334 60.4737 25.334 59.5377C25.334 58.6017 25.578 57.6823 26.0414 56.8717C26.5593 55.9926 27.2968 55.2664 28.1801 54.7656C28.8979 54.3687 29.4922 53.7779 29.8963 53.0593C30.5315 51.9652 30.7119 50.6617 30.398 49.4336C30.2406 48.7992 29.9585 48.2032 29.5684 47.6811C29.1783 47.159 28.6883 46.7214 28.1273 46.3944C27.4992 46.0554 26.9455 45.5917 26.4994 45.0311C26.0534 44.4705 25.7243 43.8245 25.5319 43.1322C25.3395 42.4398 25.2878 41.7152 25.3799 41.0022C25.4692 40.3113 25.6916 39.6449 26.0344 39.0408C26.056 39.0027 26.0678 38.9597 26.0678 38.9159C26.0678 38.8724 26.0793 38.8297 26.1011 38.7921L27.8896 35.7037C28.6387 34.4243 29.8568 33.4943 31.28 33.1151C32.7032 32.7358 34.2171 32.9379 35.4938 33.6775C36.2239 34.0762 37.0401 34.2869 37.8701 34.2907C38.7447 34.2804 39.6031 34.0508 40.3682 33.6227C41.1332 33.1946 41.7808 32.5814 42.2531 31.838C42.6972 31.14 42.9185 30.321 42.8868 29.4919C42.8368 28.4916 43.1051 27.5013 43.6525 26.666C44.1675 25.8623 44.8704 25.1987 45.6991 24.7338C46.5279 24.2689 47.4572 24.0169 48.4051 24H52.1808C53.1387 24.0034 54.0804 24.2492 54.9199 24.7149C55.7593 25.1806 56.4698 25.8515 56.9862 26.666C57.5068 27.5112 57.7558 28.4983 57.6991 29.4919C57.6675 30.321 57.8886 31.14 58.3328 31.838C58.8075 32.5851 59.4594 33.2007 60.2294 33.629C60.9994 34.0573 61.8631 34.2848 62.7422 34.2907C63.5722 34.2869 64.3884 34.0762 65.1185 33.6775C66.3912 32.9392 67.9011 32.7379 69.32 33.1173C70.7389 33.4966 71.9522 34.4261 72.6962 35.7037L74.4917 38.8495C74.8695 39.4522 75.1237 40.1253 75.2392 40.829C75.3548 41.5327 75.3293 42.2526 75.1644 42.9462C74.9994 43.6397 74.6983 44.2929 74.2789 44.8669C73.8806 45.412 73.3832 45.8752 72.8137 46.232C72.7545 46.2691 72.6857 46.2878 72.6159 46.2878C72.5475 46.2878 72.4802 46.3056 72.4218 46.3413C71.8983 46.662 71.4395 47.0803 71.0703 47.5744C70.6803 48.0965 70.3981 48.6925 70.2407 49.3269C69.9348 50.5584 70.1247 51.8623 70.7688 52.9528C71.1553 53.6757 71.7426 54.2687 72.4586 54.6589C73.3513 55.1658 74.1047 55.8898 74.6501 56.7651C75.0986 57.5807 75.334 58.4982 75.334 59.4311C75.334 60.364 75.0986 61.2815 74.6501 62.0971L72.7491 65.2962C72.3834 65.9318 71.8968 66.4882 71.3173 66.9331C70.7378 67.3781 70.0768 67.7029 69.3724 67.8888C68.668 68.0746 67.9342 68.118 67.2131 68.0162C66.4921 67.9144 65.7982 67.6694 65.1713 67.2957C64.452 66.8698 63.6284 66.6574 62.7949 66.6825C61.5048 66.6882 60.2665 67.1956 59.3372 68.0992C58.4078 69.0028 57.8591 70.2332 57.8047 71.5347C57.8013 72.2559 57.6571 72.9694 57.3806 73.6344C57.104 74.2994 56.7005 74.9028 56.193 75.4103C55.6854 75.9178 55.0839 76.3194 54.4227 76.5922C53.7859 76.8548 53.1057 76.993 52.4183 76.9997C52.3657 77.0003 52.3131 76.9955 52.2612 76.9868ZM50.359 42.7953C48.3537 42.774 46.4218 43.556 44.9866 44.9702C43.5514 46.3844 42.7298 48.3153 42.702 50.34C42.7008 51.3356 42.899 52.3212 43.2846 53.2375C43.6703 54.1538 44.2356 54.9819 44.9463 55.672C46.3961 57.0903 48.3404 57.8756 50.359 57.8581C51.8362 57.8644 53.2819 57.4269 54.5121 56.6013C55.7424 55.7756 56.7016 54.5991 57.2678 53.2214C57.8339 51.8437 57.9815 50.3272 57.6915 48.8646C57.4016 47.402 56.6873 46.0595 55.6396 45.008C54.2185 43.592 52.3028 42.7973 50.3062 42.7953H50.359Z" fill="url(#paint1_linear_1204_2974)"></path></g></g><defs><filter id="filter0_b_1204_2974" x="17.834" y="17.881" width="65" height="65.2381" filterUnits="userSpaceOnUse" color-interpolation-filters="sRGB"><feFlood flood-opacity="0" result="BackgroundImageFix"></feFlood><feGaussianBlur in="BackgroundImageFix" stdDeviation="10"></feGaussianBlur><feComposite in2="SourceAlpha" operator="in" result="effect1_backgroundBlur_1204_2974"></feComposite><feBlend mode="normal" in="SourceGraphic" in2="effect1_backgroundBlur_1204_2974" result="shape"></feBlend></filter><filter id="filter1_b_1204_2974" x="5.33398" y="4" width="90" height="92.9998" filterUnits="userSpaceOnUse" color-interpolation-filters="sRGB"><feFlood flood-opacity="0" result="BackgroundImageFix"></feFlood><feGaussianBlur in="BackgroundImageFix" stdDeviation="10"></feGaussianBlur><feComposite in2="SourceAlpha" operator="in" result="effect1_backgroundBlur_1204_2974"></feComposite><feBlend mode="normal" in="SourceGraphic" in2="effect1_backgroundBlur_1204_2974" result="shape"></feBlend></filter><linearGradient id="paint0_linear_1204_2974" x1="63.9185" y1="35.3209" x2="36.2011" y2="64.0822" gradientUnits="userSpaceOnUse"><stop stop-color="#02AF5F" stop-opacity="0.9"></stop><stop offset="1" stop-color="#014928" stop-opacity="0"></stop></linearGradient><linearGradient id="paint1_linear_1204_2974" x1="77.5029" y1="18.6237" x2="19.2608" y2="76.1817" gradientUnits="userSpaceOnUse"><stop stop-color="#02AF5F"></stop><stop offset="1" stop-color="#014928" stop-opacity="0"></stop></linearGradient><clipPath id="clip0_1204_2974"><rect width="100" height="100" fill="white"></rect></clipPath></defs></svg> 