<?xml version="1.0" encoding="UTF-8"?> <svg xmlns="http://www.w3.org/2000/svg" width="560" height="480" viewBox="0 0 560 480" fill="none"><g clip-path="url(#clip0_1230_1018)"><g filter="url(#filter0_f_1230_1018)"><circle cx="280" cy="221" r="129" fill="#02AF5F" fill-opacity="0.2"></circle></g><g opacity="0.7" filter="url(#filter1_b_1230_1018)"><path d="M249.106 299C234.048 299 225.913 296.563 224.702 291.69L216.135 258.014H174.856L167.327 290.385C166.288 295.78 157.981 298.478 142.404 298.478C134.096 298.478 127.952 298.043 123.971 297.173C119.99 296.128 118 295.345 118 294.823L163.952 118.088C163.952 116.696 175.808 116 199.519 116C223.231 116 235.087 116.696 235.087 118.088L280 295.084C280 296.302 276.019 297.26 268.058 297.956C260.096 298.652 253.779 299 249.106 299ZM181.346 224.86H208.606L196.923 170.822H195.365L181.346 224.86Z" fill="url(#paint0_linear_1230_1018)"></path></g><g filter="url(#filter2_b_1230_1018)"><path d="M269.315 323.7L276.068 278.714H409.521L416.273 323.7H269.315ZM342 198.694L300.296 294.638L301.487 307.378L264.946 387H201L342 92L483 387H418.656L382.91 309.767L383.704 295.435L342 198.694Z" fill="url(#paint1_linear_1230_1018)"></path></g></g><defs><filter id="filter0_f_1230_1018" x="51" y="-8" width="458" height="458" filterUnits="userSpaceOnUse" color-interpolation-filters="sRGB"><feFlood flood-opacity="0" result="BackgroundImageFix"></feFlood><feBlend mode="normal" in="SourceGraphic" in2="BackgroundImageFix" result="shape"></feBlend><feGaussianBlur stdDeviation="50" result="effect1_foregroundBlur_1230_1018"></feGaussianBlur></filter><filter id="filter1_b_1230_1018" x="98" y="96" width="202" height="223" filterUnits="userSpaceOnUse" color-interpolation-filters="sRGB"><feFlood flood-opacity="0" result="BackgroundImageFix"></feFlood><feGaussianBlur in="BackgroundImageFix" stdDeviation="10"></feGaussianBlur><feComposite in2="SourceAlpha" operator="in" result="effect1_backgroundBlur_1230_1018"></feComposite><feBlend mode="normal" in="SourceGraphic" in2="effect1_backgroundBlur_1230_1018" result="shape"></feBlend></filter><filter id="filter2_b_1230_1018" x="181" y="72" width="322" height="335" filterUnits="userSpaceOnUse" color-interpolation-filters="sRGB"><feFlood flood-opacity="0" result="BackgroundImageFix"></feFlood><feGaussianBlur in="BackgroundImageFix" stdDeviation="10"></feGaussianBlur><feComposite in2="SourceAlpha" operator="in" result="effect1_backgroundBlur_1230_1018"></feComposite><feBlend mode="normal" in="SourceGraphic" in2="effect1_backgroundBlur_1230_1018" result="shape"></feBlend></filter><linearGradient id="paint0_linear_1230_1018" x1="293.078" y1="117.855" x2="131.936" y2="311.958" gradientUnits="userSpaceOnUse"><stop stop-color="#02AF5F"></stop><stop offset="1" stop-color="#014928" stop-opacity="0.23"></stop></linearGradient><linearGradient id="paint1_linear_1230_1018" x1="392" y1="125.5" x2="145.175" y2="434.041" gradientUnits="userSpaceOnUse"><stop stop-color="#02AF5F"></stop><stop offset="1" stop-color="#014928" stop-opacity="0.23"></stop></linearGradient><clipPath id="clip0_1230_1018"><rect width="560" height="480" fill="white"></rect></clipPath></defs></svg> 