<?xml version="1.0" encoding="UTF-8"?> <svg xmlns="http://www.w3.org/2000/svg" width="560" height="380" viewBox="0 0 560 380" fill="none"><g filter="url(#filter0_f_1049_229)"><circle cx="246.5" cy="185.5" r="77.5" fill="#02AF5F"></circle></g><path fill-rule="evenodd" clip-rule="evenodd" d="M188.508 291.016C235.18 291.016 273.016 253.18 273.016 206.508C273.016 159.836 235.18 122 188.508 122C141.836 122 104 159.836 104 206.508C104 229.548 113.22 250.434 128.171 265.678L118.895 295.308C117.279 300.471 122.785 304.968 127.521 302.353L158.197 285.417C167.606 289.034 177.825 291.016 188.508 291.016Z" fill="#02AF5F"></path><g filter="url(#filter1_b_1049_229)"><path fill-rule="evenodd" clip-rule="evenodd" d="M323.5 287C263.025 287 214 237.975 214 177.5C214 117.025 263.025 68 323.5 68C383.975 68 433 117.025 433 177.5C433 207.353 421.054 234.416 401.68 254.169L415.022 296.783C416.638 301.946 411.132 306.443 406.396 303.828L362.776 279.745C350.584 284.432 337.342 287 323.5 287Z" fill="url(#paint0_linear_1049_229)"></path></g><path fill-rule="evenodd" clip-rule="evenodd" d="M297 180C297 185.523 292.523 190 287 190C281.477 190 277 185.523 277 180C277 174.477 281.477 170 287 170C292.523 170 297 174.477 297 180ZM334 180C334 185.523 329.523 190 324 190C318.477 190 314 185.523 314 180C314 174.477 318.477 170 324 170C329.523 170 334 174.477 334 180ZM361 190C366.523 190 371 185.523 371 180C371 174.477 366.523 170 361 170C355.477 170 351 174.477 351 180C351 185.523 355.477 190 361 190Z" fill="#161519" fill-opacity="0.6"></path><defs><filter id="filter0_f_1049_229" x="69" y="8" width="355" height="355" filterUnits="userSpaceOnUse" color-interpolation-filters="sRGB"><feFlood flood-opacity="0" result="BackgroundImageFix"></feFlood><feBlend mode="normal" in="SourceGraphic" in2="BackgroundImageFix" result="shape"></feBlend><feGaussianBlur stdDeviation="50" result="effect1_foregroundBlur_1049_229"></feGaussianBlur></filter><filter id="filter1_b_1049_229" x="194" y="48" width="259" height="276.595" filterUnits="userSpaceOnUse" color-interpolation-filters="sRGB"><feFlood flood-opacity="0" result="BackgroundImageFix"></feFlood><feGaussianBlur in="BackgroundImageFix" stdDeviation="10"></feGaussianBlur><feComposite in2="SourceAlpha" operator="in" result="effect1_backgroundBlur_1049_229"></feComposite><feBlend mode="normal" in="SourceGraphic" in2="effect1_backgroundBlur_1049_229" result="shape"></feBlend></filter><linearGradient id="paint0_linear_1049_229" x1="204.5" y1="44" x2="464.391" y2="296.002" gradientUnits="userSpaceOnUse"><stop stop-color="#02AF5F"></stop><stop offset="1" stop-color="#014928" stop-opacity="0"></stop></linearGradient></defs></svg> 