<?xml version="1.0" encoding="UTF-8"?> <svg xmlns="http://www.w3.org/2000/svg" width="80" height="80" viewBox="0 0 80 80" fill="none"><rect width="80" height="80" rx="16" fill="#28252C"></rect><g opacity="0.9" filter="url(#filter0_b_1201_2298)"><path d="M53.9392 37.122L40.6771 15.2483C40.6317 15.1753 40.5639 15.1191 40.484 15.0881C40.4041 15.0571 40.3163 15.0529 40.2339 15.0763C40.1514 15.0997 40.0788 15.1494 40.0268 15.2178C39.9748 15.2863 40 15.7857 40 16V33.4666C40 34.33 40.6511 35.0925 41.1266 35.8132C41.3878 36.209 41.4971 36.6867 41.4344 37.1575C41.3716 37.6283 41.1411 38.0601 40.7855 38.3729C40.4299 38.6857 39.9734 38.8581 39.5009 38.8581C39.0284 38.8581 38.572 38.6857 38.2164 38.3729C37.8608 38.0601 37.6302 37.6283 37.5675 37.1575C37.5047 36.6867 37.6141 36.209 37.8753 35.8132C38.3503 35.0932 39 34.3306 39 33.468V15.6429C39 15.4286 38.891 15.2262 38.8397 15.1577C38.7885 15.0892 38.7165 15.0393 38.6345 15.0155C38.5526 14.9917 38.4652 14.9954 38.3855 15.0259C38.3058 15.0565 38.2382 15.1123 38.1928 15.1849L24.0615 37.3902C24.0276 37.4437 24.007 37.5047 24.0015 37.568C23.9906 37.6936 24.0641 37.807 24.1319 37.9132L27.722 43.5355C29.6101 46.4916 30.8492 49.8186 31.3566 53.2943L31.8305 56.5241C31.853 56.6774 31.8809 56.8468 32.0094 56.9332C32.0743 56.9769 32.1506 57.0001 32.2287 57L46.0732 56.951C46.1523 56.9508 46.2296 56.9269 46.2951 56.8821C46.4246 56.7937 46.4482 56.6209 46.4635 56.4648L46.8248 52.7925C47.1465 49.4543 48.2687 46.2442 50.0951 43.4375L53.8729 37.6315C53.9399 37.5286 54.01 37.4175 53.9981 37.2952C53.9922 37.2336 53.972 37.1743 53.9392 37.122Z" fill="url(#paint0_linear_1201_2298)"></path></g><g opacity="0.9" filter="url(#filter1_b_1201_2298)"><rect x="30" y="55" width="18" height="7" rx="2" fill="url(#paint1_linear_1201_2298)"></rect></g><defs><filter id="filter0_b_1201_2298" x="4" y="-5" width="70" height="82" filterUnits="userSpaceOnUse" color-interpolation-filters="sRGB"><feFlood flood-opacity="0" result="BackgroundImageFix"></feFlood><feGaussianBlur in="BackgroundImageFix" stdDeviation="10"></feGaussianBlur><feComposite in2="SourceAlpha" operator="in" result="effect1_backgroundBlur_1201_2298"></feComposite><feBlend mode="normal" in="SourceGraphic" in2="effect1_backgroundBlur_1201_2298" result="shape"></feBlend></filter><filter id="filter1_b_1201_2298" x="10" y="35" width="58" height="47" filterUnits="userSpaceOnUse" color-interpolation-filters="sRGB"><feFlood flood-opacity="0" result="BackgroundImageFix"></feFlood><feGaussianBlur in="BackgroundImageFix" stdDeviation="10"></feGaussianBlur><feComposite in2="SourceAlpha" operator="in" result="effect1_backgroundBlur_1201_2298"></feComposite><feBlend mode="normal" in="SourceGraphic" in2="effect1_backgroundBlur_1201_2298" result="shape"></feBlend></filter><linearGradient id="paint0_linear_1201_2298" x1="55.3014" y1="10.7396" x2="11.0194" y2="43.8735" gradientUnits="userSpaceOnUse"><stop stop-color="#02AF5F"></stop><stop offset="1" stop-color="#014928" stop-opacity="0"></stop></linearGradient><linearGradient id="paint1_linear_1201_2298" x1="48.7808" y1="54.2899" x2="43.7609" y2="67.8121" gradientUnits="userSpaceOnUse"><stop stop-color="#02AF5F"></stop><stop offset="1" stop-color="#014928" stop-opacity="0"></stop></linearGradient></defs></svg> 