<?xml version="1.0" encoding="UTF-8"?> <svg xmlns="http://www.w3.org/2000/svg" width="560" height="480" viewBox="0 0 560 480" fill="none"><g clip-path="url(#clip0_1071_478)"><g filter="url(#filter0_b_1071_478)"><rect x="73" y="110" width="342" height="248" rx="10" fill="#1C1A20"></rect></g><g opacity="0.5" filter="url(#filter1_b_1071_478)"><rect x="107" y="147" width="279" height="110" rx="6" fill="url(#paint0_linear_1071_478)"></rect></g><g opacity="0.5" filter="url(#filter2_b_1071_478)"><path fill-rule="evenodd" clip-rule="evenodd" d="M107 280C107 277.791 108.791 276 111 276H275C277.209 276 279 277.791 279 280C279 282.209 277.209 284 275 284H111C108.791 284 107 282.209 107 280ZM107 298C107 295.791 108.791 294 111 294H197C199.209 294 201 295.791 201 298C201 300.209 199.209 302 197 302H111C108.791 302 107 300.209 107 298ZM111 312C108.791 312 107 313.791 107 316C107 318.209 108.791 320 111 320H156C158.209 320 160 318.209 160 316C160 313.791 158.209 312 156 312H111ZM208 298C208 295.791 209.791 294 212 294H257C259.209 294 261 295.791 261 298C261 300.209 259.209 302 257 302H212C209.791 302 208 300.209 208 298ZM170 312C167.791 312 166 313.791 166 316C166 318.209 167.791 320 170 320H227C229.209 320 231 318.209 231 316C231 313.791 229.209 312 227 312H170Z" fill="#02AF5F"></path></g><g filter="url(#filter3_f_1071_478)"><circle cx="293.5" cy="161.5" r="77.5" fill="#02AF5F" fill-opacity="0.5"></circle></g><circle cx="93" cy="127" r="4" fill="#2E2E30"></circle><circle cx="105" cy="127" r="4" fill="#2E2E30"></circle><circle cx="117" cy="127" r="4" fill="#2E2E30"></circle><g filter="url(#filter4_b_1071_478)"><ellipse cx="391" cy="253" rx="58" ry="56" fill="url(#paint1_linear_1071_478)" fill-opacity="0.8"></ellipse></g><path d="M458.866 303.32C456.99 301.44 454.444 300.384 451.788 300.384H448.502C447.679 300.384 446.887 300.064 446.294 299.493C445.079 298.321 444.997 296.409 446.045 295.085C456.017 282.482 461.465 266.856 461.453 250.727C461.453 236.541 457.247 222.673 449.365 210.878C441.484 199.082 430.282 189.889 417.175 184.46C404.069 179.031 389.647 177.611 375.734 180.378C361.82 183.146 349.039 189.977 339.008 200.008C328.977 210.039 322.146 222.82 319.378 236.734C316.611 250.647 318.031 265.069 323.46 278.175C328.889 291.282 338.082 302.484 349.878 310.365C361.673 318.247 375.541 322.453 389.727 322.453C406.42 322.453 421.846 316.706 434.084 307.041C435.408 305.995 437.32 306.078 438.492 307.293C439.064 307.887 439.384 308.679 439.384 309.504V312.788C439.384 315.444 440.44 317.99 442.32 319.866L487.487 364.943C491.393 368.842 497.72 368.838 501.622 364.936L503.936 362.622C507.838 358.72 507.842 352.393 503.943 348.487L458.866 303.32ZM389.727 300.384C362.25 300.384 340.07 278.204 340.07 250.727C340.07 223.25 362.25 201.07 389.727 201.07C417.204 201.07 439.384 223.25 439.384 250.727C439.384 278.204 417.204 300.384 389.727 300.384Z" fill="#02AF5F"></path></g><defs><filter id="filter0_b_1071_478" x="53" y="90" width="382" height="288" filterUnits="userSpaceOnUse" color-interpolation-filters="sRGB"><feFlood flood-opacity="0" result="BackgroundImageFix"></feFlood><feGaussianBlur in="BackgroundImageFix" stdDeviation="10"></feGaussianBlur><feComposite in2="SourceAlpha" operator="in" result="effect1_backgroundBlur_1071_478"></feComposite><feBlend mode="normal" in="SourceGraphic" in2="effect1_backgroundBlur_1071_478" result="shape"></feBlend></filter><filter id="filter1_b_1071_478" x="87" y="127" width="319" height="150" filterUnits="userSpaceOnUse" color-interpolation-filters="sRGB"><feFlood flood-opacity="0" result="BackgroundImageFix"></feFlood><feGaussianBlur in="BackgroundImageFix" stdDeviation="10"></feGaussianBlur><feComposite in2="SourceAlpha" operator="in" result="effect1_backgroundBlur_1071_478"></feComposite><feBlend mode="normal" in="SourceGraphic" in2="effect1_backgroundBlur_1071_478" result="shape"></feBlend></filter><filter id="filter2_b_1071_478" x="87" y="256" width="212" height="84" filterUnits="userSpaceOnUse" color-interpolation-filters="sRGB"><feFlood flood-opacity="0" result="BackgroundImageFix"></feFlood><feGaussianBlur in="BackgroundImageFix" stdDeviation="10"></feGaussianBlur><feComposite in2="SourceAlpha" operator="in" result="effect1_backgroundBlur_1071_478"></feComposite><feBlend mode="normal" in="SourceGraphic" in2="effect1_backgroundBlur_1071_478" result="shape"></feBlend></filter><filter id="filter3_f_1071_478" x="116" y="-16" width="355" height="355" filterUnits="userSpaceOnUse" color-interpolation-filters="sRGB"><feFlood flood-opacity="0" result="BackgroundImageFix"></feFlood><feBlend mode="normal" in="SourceGraphic" in2="BackgroundImageFix" result="shape"></feBlend><feGaussianBlur stdDeviation="50" result="effect1_foregroundBlur_1071_478"></feGaussianBlur></filter><filter id="filter4_b_1071_478" x="327" y="191" width="128" height="124" filterUnits="userSpaceOnUse" color-interpolation-filters="sRGB"><feFlood flood-opacity="0" result="BackgroundImageFix"></feFlood><feGaussianBlur in="BackgroundImageFix" stdDeviation="3"></feGaussianBlur><feComposite in2="SourceAlpha" operator="in" result="effect1_backgroundBlur_1071_478"></feComposite><feBlend mode="normal" in="SourceGraphic" in2="effect1_backgroundBlur_1071_478" result="shape"></feBlend></filter><linearGradient id="paint0_linear_1071_478" x1="398.103" y1="135.842" x2="318.396" y2="347.619" gradientUnits="userSpaceOnUse"><stop stop-color="#02AF5F"></stop><stop offset="1" stop-color="#014928" stop-opacity="0"></stop></linearGradient><linearGradient id="paint1_linear_1071_478" x1="454.032" y1="185.639" x2="331.354" y2="318.74" gradientUnits="userSpaceOnUse"><stop stop-color="#02AF5F"></stop><stop offset="1" stop-color="#014928" stop-opacity="0"></stop></linearGradient><clipPath id="clip0_1071_478"><rect width="560" height="480" fill="white"></rect></clipPath></defs></svg> 