<?xml version="1.0" encoding="UTF-8"?> <svg xmlns="http://www.w3.org/2000/svg" width="560" height="480" viewBox="0 0 560 480" fill="none"><g clip-path="url(#clip0_1071_399)"><g filter="url(#filter0_f_1071_399)"><circle cx="397.5" cy="177.5" r="77.5" fill="#02AF5F" fill-opacity="0.5"></circle></g><g filter="url(#filter1_f_1071_399)"><circle cx="159.5" cy="314.5" r="77.5" fill="#02AF5F" fill-opacity="0.2"></circle></g><g filter="url(#filter2_b_1071_399)"><rect x="109" y="116" width="342" height="248" rx="10" fill="#1C1A20"></rect></g><path d="M256 198C256 194.691 258.691 192 262 192H298C301.309 192 304 194.691 304 198V228C304 231.309 301.309 234 298 234H262C258.691 234 256 231.309 256 228V198ZM286.356 207.984C285.934 207.366 285.241 207 284.5 207C283.759 207 283.056 207.366 282.644 207.984L274.487 219.947L272.003 216.844C271.572 216.309 270.925 216 270.25 216C269.575 216 268.919 216.309 268.497 216.844L262.497 224.344C261.953 225.019 261.85 225.947 262.225 226.725C262.6 227.503 263.387 228 264.25 228H295.75C296.584 228 297.353 227.541 297.738 226.8C298.122 226.059 298.075 225.169 297.606 224.484L286.356 207.984ZM266.5 207C267.693 207 268.838 206.526 269.682 205.682C270.526 204.838 271 203.693 271 202.5C271 201.307 270.526 200.162 269.682 199.318C268.838 198.474 267.693 198 266.5 198C265.307 198 264.162 198.474 263.318 199.318C262.474 200.162 262 201.307 262 202.5C262 203.693 262.474 204.838 263.318 205.682C264.162 206.526 265.307 207 266.5 207Z" fill="#2E2E30"></path><g filter="url(#filter3_b_1071_399)"><rect x="141" y="159" width="277" height="108" rx="5" stroke="#323137" stroke-width="2" stroke-dasharray="4 4"></rect></g><circle cx="129" cy="133" r="4" fill="#2E2E30"></circle><circle cx="141" cy="133" r="4" fill="#2E2E30"></circle><circle cx="153" cy="133" r="4" fill="#2E2E30"></circle><g opacity="0.9" filter="url(#filter4_b_1071_399)"><rect x="379" y="73" width="118" height="153" rx="12" fill="url(#paint0_linear_1071_399)"></rect></g><path d="M256 198C256 194.691 258.691 192 262 192H298C301.309 192 304 194.691 304 198V228C304 231.309 301.309 234 298 234H262C258.691 234 256 231.309 256 228V198ZM286.356 207.984C285.934 207.366 285.241 207 284.5 207C283.759 207 283.056 207.366 282.644 207.984L274.487 219.947L272.003 216.844C271.572 216.309 270.925 216 270.25 216C269.575 216 268.919 216.309 268.497 216.844L262.497 224.344C261.953 225.019 261.85 225.947 262.225 226.725C262.6 227.503 263.387 228 264.25 228H295.75C296.584 228 297.353 227.541 297.738 226.8C298.122 226.059 298.075 225.169 297.606 224.484L286.356 207.984ZM266.5 207C267.693 207 268.838 206.526 269.682 205.682C270.526 204.838 271 203.693 271 202.5C271 201.307 270.526 200.162 269.682 199.318C268.838 198.474 267.693 198 266.5 198C265.307 198 264.162 198.474 263.318 199.318C262.474 200.162 262 201.307 262 202.5C262 203.693 262.474 204.838 263.318 205.682C264.162 206.526 265.307 207 266.5 207Z" fill="#2E2E30"></path><g opacity="0.8" filter="url(#filter5_b_1071_399)"><rect x="69" y="330" width="96" height="50" rx="25" fill="url(#paint1_linear_1071_399)"></rect></g><circle cx="139" cy="355" r="18" fill="#D9D9D9"></circle><rect x="395" y="89" width="85" height="64" rx="4" fill="#02AF5F"></rect><path opacity="0.6" d="M426 113C426 111.345 427.345 110 429 110H447C448.655 110 450 111.345 450 113V128C450 129.655 448.655 131 447 131H429C427.345 131 426 129.655 426 128V113ZM441.178 117.992C440.967 117.683 440.62 117.5 440.25 117.5C439.88 117.5 439.528 117.683 439.322 117.992L435.244 123.973L434.002 122.422C433.786 122.155 433.463 122 433.125 122C432.787 122 432.459 122.155 432.248 122.422L429.248 126.172C428.977 126.509 428.925 126.973 429.113 127.362C429.3 127.752 429.694 128 430.125 128H445.875C446.292 128 446.677 127.77 446.869 127.4C447.061 127.03 447.037 126.584 446.803 126.242L441.178 117.992ZM431.25 117.5C431.847 117.5 432.419 117.263 432.841 116.841C433.263 116.419 433.5 115.847 433.5 115.25C433.5 114.653 433.263 114.081 432.841 113.659C432.419 113.237 431.847 113 431.25 113C430.653 113 430.081 113.237 429.659 113.659C429.237 114.081 429 114.653 429 115.25C429 115.847 429.237 116.419 429.659 116.841C430.081 117.263 430.653 117.5 431.25 117.5Z" fill="#113F2D"></path><g clip-path="url(#clip1_1071_399)"><g opacity="0.9" filter="url(#filter6_b_1071_399)"><path d="M373.858 344.618L342.913 293.579C342.807 293.409 342.649 293.278 342.463 293.205C342.276 293.133 342.071 293.124 341.879 293.178C341.687 293.233 341.517 293.349 341.396 293.508C341.275 293.668 341 294 341 294.5V335.824C341 337.995 342.767 339.752 343.962 341.564C344.571 342.488 344.827 343.602 344.68 344.701C344.534 345.799 343.996 346.807 343.166 347.537C342.336 348.267 341.271 348.669 340.169 348.669C339.066 348.669 338.001 348.267 337.172 347.537C336.342 346.807 335.804 345.799 335.657 344.701C335.511 343.602 335.766 342.488 336.376 341.564C337.484 339.884 339 338.105 339 336.092V294.5C339 294 338.746 293.528 338.626 293.368C338.506 293.208 338.338 293.092 338.147 293.036C337.956 292.981 337.752 292.989 337.566 293.061C337.38 293.132 337.222 293.262 337.117 293.431L304.143 345.244C304.064 345.369 304.016 345.511 304.003 345.659C303.978 345.952 304.149 346.216 304.308 346.464L312.685 359.583C317.09 366.48 319.982 374.243 321.165 382.353L322.271 389.89C322.324 390.247 322.389 390.642 322.689 390.844C322.84 390.946 323.018 391 323.2 391L355.504 390.886C355.689 390.885 355.869 390.829 356.022 390.725C356.324 390.519 356.379 390.115 356.415 389.751L357.258 381.183C358.009 373.393 360.627 365.903 364.889 359.354L373.703 345.807C373.86 345.567 374.023 345.307 373.996 345.022C373.982 344.879 373.935 344.74 373.858 344.618Z" fill="url(#paint2_linear_1071_399)"></path></g><path d="M389.938 303.86C361.197 280.792 335.535 281.997 319.067 287.047C308.213 290.409 298.23 296.125 289.823 303.79L288.748 302.711C297.318 294.891 307.493 289.054 318.557 285.611C335.388 280.413 361.602 279.152 390.88 302.655L389.938 303.86Z" fill="#02AF5F"></path><path d="M290.87 304.428C290.87 305.011 290.698 305.581 290.375 306.066C290.052 306.551 289.593 306.929 289.056 307.152C288.519 307.376 287.928 307.434 287.358 307.32C286.788 307.206 286.264 306.926 285.853 306.513C285.442 306.101 285.162 305.575 285.049 305.003C284.935 304.431 284.993 303.838 285.216 303.299C285.438 302.76 285.815 302.3 286.298 301.975C286.782 301.651 287.35 301.478 287.931 301.478C288.317 301.477 288.7 301.553 289.057 301.701C289.414 301.849 289.738 302.066 290.011 302.34C290.285 302.614 290.501 302.94 290.648 303.298C290.796 303.656 290.871 304.04 290.87 304.428Z" fill="#02AF5F"></path><path d="M393.345 303.428C393.345 304.011 393.172 304.582 392.849 305.067C392.526 305.552 392.066 305.93 391.529 306.153C390.991 306.376 390.4 306.434 389.83 306.32C389.26 306.205 388.736 305.924 388.325 305.51C387.914 305.097 387.635 304.571 387.522 303.999C387.41 303.426 387.469 302.833 387.693 302.294C387.916 301.755 388.294 301.295 388.778 300.972C389.262 300.649 389.831 300.477 390.413 300.478C390.798 300.478 391.18 300.555 391.536 300.703C391.893 300.851 392.216 301.069 392.489 301.343C392.761 301.616 392.977 301.942 393.124 302.299C393.271 302.657 393.346 303.041 393.345 303.428Z" fill="#02AF5F"></path><path d="M343 280H337V286H343V280Z" fill="#02AF5F"></path><path d="M395 280H389V286H395V280Z" fill="#02AF5F"></path><path d="M292 280H286V286H292V280Z" fill="#02AF5F"></path><path d="M391.452 282L289.001 282L289.001 284L340 284.166L391.452 284L391.452 282Z" fill="#02AF5F"></path><g opacity="0.9" filter="url(#filter7_b_1071_399)"><rect x="319" y="389" width="40" height="14" rx="2" fill="url(#paint3_linear_1071_399)"></rect></g></g><path d="M397 165H466" stroke="#02AF5F" stroke-width="4" stroke-linecap="round"></path><path d="M397 176H426" stroke="#02AF5F" stroke-width="4" stroke-linecap="round"></path><path d="M397 187H448" stroke="#02AF5F" stroke-width="4" stroke-linecap="round"></path></g><defs><filter id="filter0_f_1071_399" x="220" y="0" width="355" height="355" filterUnits="userSpaceOnUse" color-interpolation-filters="sRGB"><feFlood flood-opacity="0" result="BackgroundImageFix"></feFlood><feBlend mode="normal" in="SourceGraphic" in2="BackgroundImageFix" result="shape"></feBlend><feGaussianBlur stdDeviation="50" result="effect1_foregroundBlur_1071_399"></feGaussianBlur></filter><filter id="filter1_f_1071_399" x="-18" y="137" width="355" height="355" filterUnits="userSpaceOnUse" color-interpolation-filters="sRGB"><feFlood flood-opacity="0" result="BackgroundImageFix"></feFlood><feBlend mode="normal" in="SourceGraphic" in2="BackgroundImageFix" result="shape"></feBlend><feGaussianBlur stdDeviation="50" result="effect1_foregroundBlur_1071_399"></feGaussianBlur></filter><filter id="filter2_b_1071_399" x="89" y="96" width="382" height="288" filterUnits="userSpaceOnUse" color-interpolation-filters="sRGB"><feFlood flood-opacity="0" result="BackgroundImageFix"></feFlood><feGaussianBlur in="BackgroundImageFix" stdDeviation="10"></feGaussianBlur><feComposite in2="SourceAlpha" operator="in" result="effect1_backgroundBlur_1071_399"></feComposite><feBlend mode="normal" in="SourceGraphic" in2="effect1_backgroundBlur_1071_399" result="shape"></feBlend></filter><filter id="filter3_b_1071_399" x="120" y="138" width="319" height="150" filterUnits="userSpaceOnUse" color-interpolation-filters="sRGB"><feFlood flood-opacity="0" result="BackgroundImageFix"></feFlood><feGaussianBlur in="BackgroundImageFix" stdDeviation="10"></feGaussianBlur><feComposite in2="SourceAlpha" operator="in" result="effect1_backgroundBlur_1071_399"></feComposite><feBlend mode="normal" in="SourceGraphic" in2="effect1_backgroundBlur_1071_399" result="shape"></feBlend></filter><filter id="filter4_b_1071_399" x="359" y="53" width="158" height="193" filterUnits="userSpaceOnUse" color-interpolation-filters="sRGB"><feFlood flood-opacity="0" result="BackgroundImageFix"></feFlood><feGaussianBlur in="BackgroundImageFix" stdDeviation="10"></feGaussianBlur><feComposite in2="SourceAlpha" operator="in" result="effect1_backgroundBlur_1071_399"></feComposite><feBlend mode="normal" in="SourceGraphic" in2="effect1_backgroundBlur_1071_399" result="shape"></feBlend></filter><filter id="filter5_b_1071_399" x="49" y="310" width="136" height="90" filterUnits="userSpaceOnUse" color-interpolation-filters="sRGB"><feFlood flood-opacity="0" result="BackgroundImageFix"></feFlood><feGaussianBlur in="BackgroundImageFix" stdDeviation="10"></feGaussianBlur><feComposite in2="SourceAlpha" operator="in" result="effect1_backgroundBlur_1071_399"></feComposite><feBlend mode="normal" in="SourceGraphic" in2="effect1_backgroundBlur_1071_399" result="shape"></feBlend></filter><filter id="filter6_b_1071_399" x="284" y="273" width="109.998" height="138" filterUnits="userSpaceOnUse" color-interpolation-filters="sRGB"><feFlood flood-opacity="0" result="BackgroundImageFix"></feFlood><feGaussianBlur in="BackgroundImageFix" stdDeviation="10"></feGaussianBlur><feComposite in2="SourceAlpha" operator="in" result="effect1_backgroundBlur_1071_399"></feComposite><feBlend mode="normal" in="SourceGraphic" in2="effect1_backgroundBlur_1071_399" result="shape"></feBlend></filter><filter id="filter7_b_1071_399" x="299" y="369" width="80" height="54" filterUnits="userSpaceOnUse" color-interpolation-filters="sRGB"><feFlood flood-opacity="0" result="BackgroundImageFix"></feFlood><feGaussianBlur in="BackgroundImageFix" stdDeviation="10"></feGaussianBlur><feComposite in2="SourceAlpha" operator="in" result="effect1_backgroundBlur_1071_399"></feComposite><feBlend mode="normal" in="SourceGraphic" in2="effect1_backgroundBlur_1071_399" result="shape"></feBlend></filter><linearGradient id="paint0_linear_1071_399" x1="502.119" y1="57.4798" x2="337.728" y2="190.293" gradientUnits="userSpaceOnUse"><stop stop-color="#02AF5F"></stop><stop offset="1" stop-color="#014928" stop-opacity="0"></stop></linearGradient><linearGradient id="paint1_linear_1071_399" x1="169.164" y1="324.928" x2="125.354" y2="413.044" gradientUnits="userSpaceOnUse"><stop stop-color="#02AF5F"></stop><stop offset="1" stop-color="#014928" stop-opacity="0"></stop></linearGradient><linearGradient id="paint2_linear_1071_399" x1="377.037" y1="283.059" x2="273.712" y2="360.372" gradientUnits="userSpaceOnUse"><stop stop-color="#02AF5F"></stop><stop offset="1" stop-color="#014928" stop-opacity="0"></stop></linearGradient><linearGradient id="paint3_linear_1071_399" x1="360.735" y1="387.58" x2="351.486" y2="415.261" gradientUnits="userSpaceOnUse"><stop stop-color="#02AF5F"></stop><stop offset="1" stop-color="#014928" stop-opacity="0"></stop></linearGradient><clipPath id="clip0_1071_399"><rect width="560" height="480" fill="white"></rect></clipPath><clipPath id="clip1_1071_399"><rect width="110" height="131" fill="white" transform="translate(285 280)"></rect></clipPath></defs></svg> 