<?xml version="1.0" encoding="UTF-8"?> <svg xmlns="http://www.w3.org/2000/svg" width="80" height="80" viewBox="0 0 80 80" fill="none"><rect width="80" height="80" rx="16" fill="#28252C"></rect><path d="M41.488 57.7663C36.9002 54.991 32.6467 51.7252 28.8063 48.0302C26.0999 45.3975 24.0447 42.2015 22.7959 38.6835C20.5119 31.7903 23.1562 23.9039 30.5691 21.5673C32.4968 20.9763 34.5425 20.8447 36.5336 21.1836C38.5246 21.5225 40.4025 22.322 42.0089 23.5145C43.6138 22.3266 45.4885 21.5298 47.4754 21.191C49.4624 20.8522 51.5035 20.9812 53.4286 21.5673C60.8415 23.9039 63.4463 31.7903 61.2425 38.6835C59.9855 42.1977 57.9313 45.3921 55.232 48.0302C51.3899 51.687 47.1433 54.9196 42.5699 57.669L42.0691 58L41.488 57.7663Z" fill="url(#paint0_linear_1230_1097)"></path><path d="M42 58L41.5405 57.6891C36.9591 54.9198 32.7108 51.661 28.874 47.9734C26.1418 45.3541 24.0579 42.1646 22.7803 38.6464C20.5226 31.7677 23.1796 23.898 30.552 21.5662C32.4809 20.9764 34.5275 20.845 36.5194 21.1831C38.5113 21.5212 40.3905 22.319 42 23.5093V58Z" fill="url(#paint1_linear_1230_1097)"></path><defs><linearGradient id="paint0_linear_1230_1097" x1="59.2093" y1="12.9359" x2="25.8496" y2="62.0385" gradientUnits="userSpaceOnUse"><stop stop-color="#02AF5F"></stop><stop offset="1" stop-color="#014928" stop-opacity="0.52"></stop></linearGradient><linearGradient id="paint1_linear_1230_1097" x1="40.6047" y1="12.9359" x2="6.34408" y2="38.1502" gradientUnits="userSpaceOnUse"><stop stop-color="#02AF5F"></stop><stop offset="1" stop-color="#014928" stop-opacity="0.52"></stop></linearGradient></defs></svg> 