<?xml version="1.0" encoding="UTF-8"?> <svg xmlns="http://www.w3.org/2000/svg" width="80" height="80" viewBox="0 0 80 80" fill="none"><rect width="80" height="80" rx="16" fill="#28252C"></rect><path fill-rule="evenodd" clip-rule="evenodd" d="M26.5 57.9283C34.508 57.9283 41 51.4524 41 43.4641C41 35.4759 34.508 29 26.5 29C18.492 29 12 35.4759 12 43.4641C12 47.4076 13.582 50.9824 16.1473 53.5915L14.5557 58.6629C14.2784 59.5466 15.2232 60.3163 16.0358 59.8687L21.2992 56.97C22.9136 57.589 24.667 57.9283 26.5 57.9283Z" fill="#02AF5F"></path><path fill-rule="evenodd" clip-rule="evenodd" d="M49.5 57.0253C39.2828 57.0253 31 48.7368 31 38.5126C31 28.2884 39.2828 20 49.5 20C59.7172 20 68 28.2884 68 38.5126C68 43.5597 65.9817 48.1351 62.7085 51.4747L64.9626 58.6792C65.2356 59.5521 64.3054 60.3124 63.5053 59.8703L56.1357 55.7987C54.0758 56.5911 51.8386 57.0253 49.5 57.0253Z" fill="url(#paint0_linear_1201_2283)"></path><defs><linearGradient id="paint0_linear_1201_2283" x1="29.395" y1="15.9424" x2="73.3325" y2="58.5172" gradientUnits="userSpaceOnUse"><stop stop-color="#02AF5F"></stop><stop offset="1" stop-color="#014928" stop-opacity="0"></stop></linearGradient></defs></svg> 