<?xml version="1.0" encoding="UTF-8"?> <svg xmlns="http://www.w3.org/2000/svg" width="80" height="80" viewBox="0 0 80 80" fill="none"><rect width="80" height="80" rx="16" fill="#28252C"></rect><g opacity="0.9" filter="url(#filter0_b_1201_2292)"><rect x="17" y="23" width="46" height="33" rx="6" fill="url(#paint0_linear_1201_2292)"></rect></g><g opacity="0.9" filter="url(#filter1_b_1201_2292)"><path fill-rule="evenodd" clip-rule="evenodd" d="M21 29C21 27.8954 21.8954 27 23 27H57C58.1046 27 59 27.8954 59 29V33C59 34.1046 58.1046 35 57 35H23C21.8954 35 21 34.1046 21 33V29ZM21 40C21 38.8954 21.8954 38 23 38H32C33.1046 38 34 38.8954 34 40V50C34 51.1046 33.1046 52 32 52H23C21.8954 52 21 51.1046 21 50V40ZM39 38C37.8954 38 37 38.8954 37 40V50C37 51.1046 37.8954 52 39 52H57C58.1046 52 59 51.1046 59 50V40C59 38.8954 58.1046 38 57 38H39Z" fill="url(#paint1_linear_1201_2292)"></path></g><path fill-rule="evenodd" clip-rule="evenodd" d="M50.3805 46.0752C50.1979 46.0001 49.9972 45.9807 49.8036 46.0195C49.61 46.0583 49.4322 46.1535 49.2926 46.2932C49.1531 46.4328 49.058 46.6107 49.0193 46.8043C48.9807 46.998 49.0002 47.1987 49.0755 47.3812L56.0755 64.3812C56.1505 64.5634 56.2776 64.7193 56.4408 64.8295C56.6041 64.9397 56.7962 64.9992 56.9932 65.0006C57.1902 65.002 57.3831 64.9452 57.5479 64.8373C57.7127 64.7294 57.842 64.5753 57.9195 64.3942L60.6045 58.1292C60.7057 57.8933 60.8936 57.7054 61.1295 57.6042L67.3945 54.9192C67.5756 54.8417 67.7297 54.7124 67.8376 54.5476C67.9455 54.3828 68.0023 54.1899 68.0009 53.9929C67.9995 53.796 67.94 53.6038 67.8298 53.4405C67.7196 53.2773 67.5637 53.1502 67.3815 53.0752L50.3805 46.0752Z" fill="#02AF5F"></path><defs><filter id="filter0_b_1201_2292" x="-3" y="3" width="86" height="73" filterUnits="userSpaceOnUse" color-interpolation-filters="sRGB"><feFlood flood-opacity="0" result="BackgroundImageFix"></feFlood><feGaussianBlur in="BackgroundImageFix" stdDeviation="10"></feGaussianBlur><feComposite in2="SourceAlpha" operator="in" result="effect1_backgroundBlur_1201_2292"></feComposite><feBlend mode="normal" in="SourceGraphic" in2="effect1_backgroundBlur_1201_2292" result="shape"></feBlend></filter><filter id="filter1_b_1201_2292" x="1" y="7" width="78" height="65" filterUnits="userSpaceOnUse" color-interpolation-filters="sRGB"><feFlood flood-opacity="0" result="BackgroundImageFix"></feFlood><feGaussianBlur in="BackgroundImageFix" stdDeviation="10"></feGaussianBlur><feComposite in2="SourceAlpha" operator="in" result="effect1_backgroundBlur_1201_2292"></feComposite><feBlend mode="normal" in="SourceGraphic" in2="effect1_backgroundBlur_1201_2292" result="shape"></feBlend></filter><linearGradient id="paint0_linear_1201_2292" x1="63" y1="7" x2="35.5931" y2="75.2706" gradientUnits="userSpaceOnUse"><stop stop-color="#02AF5F"></stop><stop offset="1" stop-color="#014928" stop-opacity="0"></stop></linearGradient><linearGradient id="paint1_linear_1201_2292" x1="59" y1="14.8788" x2="39.5295" y2="67.766" gradientUnits="userSpaceOnUse"><stop stop-color="#02AF5F"></stop><stop offset="1" stop-color="#014928" stop-opacity="0"></stop></linearGradient></defs></svg> 