<?xml version="1.0" encoding="UTF-8"?> <svg xmlns="http://www.w3.org/2000/svg" width="560" height="380" viewBox="0 0 560 380" fill="none"><g filter="url(#filter0_b_1049_226)"><path d="M169.312 206.529L104.533 316.976C102.969 319.643 104.892 323 107.983 323H452.106C455.178 323 457.103 319.682 455.579 317.015L377.856 181.048C376.306 178.338 372.387 178.368 370.88 181.103L339.178 238.623C337.677 241.348 333.777 241.391 332.216 238.701L280.68 149.916C279.144 147.27 275.327 147.258 273.774 149.894L213.068 252.945C211.557 255.51 207.875 255.585 206.261 253.084L176.124 206.384C174.508 203.88 170.82 203.958 169.312 206.529Z" fill="url(#paint0_linear_1049_226)"></path></g><g filter="url(#filter1_f_1049_226)"><circle cx="279.5" cy="189.5" r="77.5" fill="#02AF5F" fill-opacity="0.5"></circle></g><rect x="274" y="61" width="6" height="70" rx="3" fill="#02AF5F"></rect><path fill-rule="evenodd" clip-rule="evenodd" d="M322.02 106C322.698 106 323.365 105.825 323.958 105.493C324.551 105.161 325.049 104.682 325.406 104.102C325.762 103.523 325.965 102.861 325.996 102.18C326.027 101.499 325.883 100.822 325.58 100.212L318.507 86L325.58 71.788C325.883 71.1783 326.027 70.5009 325.996 69.82C325.965 69.1391 325.762 68.4774 325.406 67.8976C325.049 67.3178 324.551 66.8391 323.958 66.507C323.365 66.1749 322.698 66.0004 322.02 66H278.212V74C278.212 72.9391 277.793 71.9217 277.046 71.1716C276.299 70.4214 275.286 70 274.23 70C273.174 70 276.143 70.4214 275.396 71.1716C274.649 71.9217 274.23 72.9391 274.23 74V94C274.23 95.0609 274.649 96.0783 275.396 96.8284C276.143 97.5786 273.174 98 274.23 98C275.286 98 276.299 105.579 277.046 104.828C277.793 104.078 278.212 103.061 278.212 102V106H322.02Z" fill="#02AF5F"></path><defs><filter id="filter0_b_1049_226" x="83.9766" y="127.924" width="392.135" height="215.076" filterUnits="userSpaceOnUse" color-interpolation-filters="sRGB"><feFlood flood-opacity="0" result="BackgroundImageFix"></feFlood><feGaussianBlur in="BackgroundImageFix" stdDeviation="10"></feGaussianBlur><feComposite in2="SourceAlpha" operator="in" result="effect1_backgroundBlur_1049_226"></feComposite><feBlend mode="normal" in="SourceGraphic" in2="effect1_backgroundBlur_1049_226" result="shape"></feBlend></filter><filter id="filter1_f_1049_226" x="102" y="12" width="355" height="355" filterUnits="userSpaceOnUse" color-interpolation-filters="sRGB"><feFlood flood-opacity="0" result="BackgroundImageFix"></feFlood><feBlend mode="normal" in="SourceGraphic" in2="BackgroundImageFix" result="shape"></feBlend><feGaussianBlur stdDeviation="50" result="effect1_foregroundBlur_1049_226"></feGaussianBlur></filter><linearGradient id="paint0_linear_1049_226" x1="474.53" y1="125.842" x2="321.585" y2="446.277" gradientUnits="userSpaceOnUse"><stop stop-color="#02AF5F"></stop><stop offset="1" stop-color="#014928" stop-opacity="0"></stop></linearGradient></defs></svg> 